solid Exported from Blender-2.76 (sub 0)
facet normal -0.878613 0.086536 0.469628
outer loop
vertex -0.061900 0.000000 0.025640
vertex -0.055708 0.000000 0.037223
vertex -0.054638 0.010868 0.037223
endloop
endfacet
facet normal -0.878613 0.086536 0.469628
outer loop
vertex -0.054638 0.010868 0.037223
vertex -0.060711 0.012076 0.025640
vertex -0.061900 0.000000 0.025640
endloop
endfacet
facet normal -0.952718 0.093835 0.289004
outer loop
vertex -0.065713 0.000000 0.013071
vertex -0.061900 0.000000 0.025640
vertex -0.060711 0.012076 0.025640
endloop
endfacet
facet normal -0.952718 0.093835 0.289004
outer loop
vertex -0.060711 0.012076 0.025640
vertex -0.064450 0.012820 0.013071
vertex -0.065713 0.000000 0.013071
endloop
endfacet
facet normal -0.990438 0.097549 0.097550
outer loop
vertex -0.067000 0.000000 0.000000
vertex -0.065713 0.000000 0.013071
vertex -0.064450 0.012820 0.013071
endloop
endfacet
facet normal -0.990438 0.097550 0.097550
outer loop
vertex -0.064450 0.012820 0.013071
vertex -0.065713 0.013071 0.000000
vertex -0.067000 0.000000 0.000000
endloop
endfacet
facet normal -0.290166 0.028579 0.956550
outer loop
vertex -0.025640 0.000000 0.061900
vertex -0.013071 0.000000 0.065713
vertex -0.012820 0.002550 0.065713
endloop
endfacet
facet normal -0.290167 0.028579 0.956549
outer loop
vertex -0.012820 0.002550 0.065713
vertex -0.025147 0.005002 0.061900
vertex -0.025640 0.000000 0.061900
endloop
endfacet
facet normal -0.470889 0.046378 0.880973
outer loop
vertex -0.037223 0.000000 0.055708
vertex -0.025640 0.000000 0.061900
vertex -0.025147 0.005002 0.061900
endloop
endfacet
facet normal -0.470890 0.046379 0.880972
outer loop
vertex -0.025147 0.005002 0.061900
vertex -0.036508 0.007262 0.055708
vertex -0.037223 0.000000 0.055708
endloop
endfacet
facet normal -0.633158 0.062361 0.771506
outer loop
vertex -0.047376 0.000000 0.047376
vertex -0.037223 0.000000 0.055708
vertex -0.036508 0.007262 0.055708
endloop
endfacet
facet normal -0.633159 0.062361 0.771506
outer loop
vertex -0.036508 0.007262 0.055708
vertex -0.046466 0.009243 0.047376
vertex -0.047376 0.000000 0.047376
endloop
endfacet
facet normal -0.770780 0.075915 0.632563
outer loop
vertex -0.055708 0.000000 0.037223
vertex -0.047376 0.000000 0.047376
vertex -0.046466 0.009243 0.047376
endloop
endfacet
facet normal -0.770780 0.075915 0.632562
outer loop
vertex -0.046466 0.009243 0.047376
vertex -0.054638 0.010868 0.037223
vertex -0.055708 0.000000 0.037223
endloop
endfacet
facet normal -0.741159 0.224828 0.632562
outer loop
vertex -0.054638 0.010868 0.037223
vertex -0.046466 0.009243 0.047376
vertex -0.043770 0.018130 0.047376
endloop
endfacet
facet normal -0.741159 0.224828 0.632563
outer loop
vertex -0.043770 0.018130 0.047376
vertex -0.051468 0.021319 0.037223
vertex -0.054638 0.010868 0.037223
endloop
endfacet
facet normal -0.844848 0.256282 0.469628
outer loop
vertex -0.060711 0.012076 0.025640
vertex -0.054638 0.010868 0.037223
vertex -0.051468 0.021319 0.037223
endloop
endfacet
facet normal -0.844848 0.256282 0.469628
outer loop
vertex -0.051468 0.021319 0.037223
vertex -0.057188 0.023688 0.025640
vertex -0.060711 0.012076 0.025640
endloop
endfacet
facet normal -0.916106 0.277897 0.289005
outer loop
vertex -0.064450 0.012820 0.013071
vertex -0.060711 0.012076 0.025640
vertex -0.057188 0.023688 0.025640
endloop
endfacet
facet normal -0.916106 0.277898 0.289004
outer loop
vertex -0.057188 0.023688 0.025640
vertex -0.060711 0.025147 0.013071
vertex -0.064450 0.012820 0.013071
endloop
endfacet
facet normal -0.952376 0.288900 0.097550
outer loop
vertex -0.065713 0.013071 0.000000
vertex -0.064450 0.012820 0.013071
vertex -0.060711 0.025147 0.013071
endloop
endfacet
facet normal -0.952376 0.288901 0.097550
outer loop
vertex -0.060711 0.025147 0.013071
vertex -0.061900 0.025640 0.000000
vertex -0.065713 0.013071 0.000000
endloop
endfacet
facet normal -0.279015 0.084638 0.956549
outer loop
vertex -0.025147 0.005002 0.061900
vertex -0.012820 0.002550 0.065713
vertex -0.012076 0.005002 0.065713
endloop
endfacet
facet normal -0.279015 0.084638 0.956550
outer loop
vertex -0.012076 0.005002 0.065713
vertex -0.023688 0.009812 0.061900
vertex -0.025147 0.005002 0.061900
endloop
endfacet
facet normal -0.452793 0.137353 0.880972
outer loop
vertex -0.036508 0.007262 0.055708
vertex -0.025147 0.005002 0.061900
vertex -0.023688 0.009812 0.061900
endloop
endfacet
facet normal -0.452794 0.137353 0.880972
outer loop
vertex -0.023688 0.009812 0.061900
vertex -0.034390 0.014245 0.055708
vertex -0.036508 0.007262 0.055708
endloop
endfacet
facet normal -0.608826 0.184685 0.771506
outer loop
vertex -0.046466 0.009243 0.047376
vertex -0.036508 0.007262 0.055708
vertex -0.034390 0.014245 0.055708
endloop
endfacet
facet normal -0.608827 0.184686 0.771506
outer loop
vertex -0.034390 0.014245 0.055708
vertex -0.043770 0.018130 0.047376
vertex -0.046466 0.009243 0.047376
endloop
endfacet
facet normal -0.257142 0.137446 0.956549
outer loop
vertex -0.023688 0.009812 0.061900
vertex -0.012076 0.005002 0.065713
vertex -0.010868 0.007262 0.065713
endloop
endfacet
facet normal -0.257143 0.137445 0.956549
outer loop
vertex -0.010868 0.007262 0.065713
vertex -0.021319 0.014245 0.061900
vertex -0.023688 0.009812 0.061900
endloop
endfacet
facet normal -0.417296 0.223049 0.880973
outer loop
vertex -0.034390 0.014245 0.055708
vertex -0.023688 0.009812 0.061900
vertex -0.021319 0.014245 0.061900
endloop
endfacet
facet normal -0.417297 0.223050 0.880972
outer loop
vertex -0.021319 0.014245 0.061900
vertex -0.030950 0.020680 0.055708
vertex -0.034390 0.014245 0.055708
endloop
endfacet
facet normal -0.561098 0.299913 0.771506
outer loop
vertex -0.043770 0.018130 0.047376
vertex -0.034390 0.014245 0.055708
vertex -0.030950 0.020680 0.055708
endloop
endfacet
facet normal -0.561098 0.299913 0.771506
outer loop
vertex -0.030950 0.020680 0.055708
vertex -0.039392 0.026321 0.047376
vertex -0.043770 0.018130 0.047376
endloop
endfacet
facet normal -0.683057 0.365101 0.632562
outer loop
vertex -0.051468 0.021319 0.037223
vertex -0.043770 0.018130 0.047376
vertex -0.039392 0.026321 0.047376
endloop
endfacet
facet normal -0.683056 0.365102 0.632562
outer loop
vertex -0.039392 0.026321 0.047376
vertex -0.046320 0.030950 0.037223
vertex -0.051468 0.021319 0.037223
endloop
endfacet
facet normal -0.778617 0.416179 0.469628
outer loop
vertex -0.057188 0.023688 0.025640
vertex -0.051468 0.021319 0.037223
vertex -0.046320 0.030950 0.037223
endloop
endfacet
facet normal -0.778617 0.416179 0.469628
outer loop
vertex -0.046320 0.030950 0.037223
vertex -0.051468 0.034390 0.025640
vertex -0.057188 0.023688 0.025640
endloop
endfacet
facet normal -0.844288 0.451281 0.289004
outer loop
vertex -0.060711 0.025147 0.013071
vertex -0.057188 0.023688 0.025640
vertex -0.051468 0.034390 0.025640
endloop
endfacet
facet normal -0.844287 0.451282 0.289004
outer loop
vertex -0.051468 0.034390 0.025640
vertex -0.054638 0.036508 0.013071
vertex -0.060711 0.025147 0.013071
endloop
endfacet
facet normal -0.877715 0.469148 0.097550
outer loop
vertex -0.061900 0.025640 0.000000
vertex -0.060711 0.025147 0.013071
vertex -0.054638 0.036508 0.013071
endloop
endfacet
facet normal -0.877715 0.469149 0.097550
outer loop
vertex -0.054638 0.036508 0.013071
vertex -0.055708 0.037223 0.000000
vertex -0.061900 0.025640 0.000000
endloop
endfacet
facet normal -0.598704 0.491343 0.632563
outer loop
vertex -0.046320 0.030950 0.037223
vertex -0.039392 0.026321 0.047376
vertex -0.033500 0.033500 0.047376
endloop
endfacet
facet normal -0.598704 0.491344 0.632562
outer loop
vertex -0.033500 0.033500 0.047376
vertex -0.039392 0.039392 0.037223
vertex -0.046320 0.030950 0.037223
endloop
endfacet
facet normal -0.682463 0.560083 0.469628
outer loop
vertex -0.051468 0.034390 0.025640
vertex -0.046320 0.030950 0.037223
vertex -0.039392 0.039392 0.037223
endloop
endfacet
facet normal -0.682463 0.560083 0.469629
outer loop
vertex -0.039392 0.039392 0.037223
vertex -0.043770 0.043770 0.025640
vertex -0.051468 0.034390 0.025640
endloop
endfacet
facet normal -0.740025 0.607322 0.289004
outer loop
vertex -0.054638 0.036508 0.013071
vertex -0.051468 0.034390 0.025640
vertex -0.043770 0.043770 0.025640
endloop
endfacet
facet normal -0.740024 0.607323 0.289004
outer loop
vertex -0.043770 0.043770 0.025640
vertex -0.046466 0.046466 0.013071
vertex -0.054638 0.036508 0.013071
endloop
endfacet
facet normal -0.769324 0.631368 0.097550
outer loop
vertex -0.055708 0.037223 0.000000
vertex -0.054638 0.036508 0.013071
vertex -0.046466 0.046466 0.013071
endloop
endfacet
facet normal -0.769323 0.631368 0.097550
outer loop
vertex -0.046466 0.046466 0.013071
vertex -0.047376 0.047376 0.000000
vertex -0.055708 0.037223 0.000000
endloop
endfacet
facet normal -0.225387 0.184970 0.956549
outer loop
vertex -0.021319 0.014245 0.061900
vertex -0.010868 0.007262 0.065713
vertex -0.009243 0.009243 0.065713
endloop
endfacet
facet normal -0.225387 0.184970 0.956549
outer loop
vertex -0.009243 0.009243 0.065713
vertex -0.018130 0.018130 0.061900
vertex -0.021319 0.014245 0.061900
endloop
endfacet
facet normal -0.365763 0.300175 0.880972
outer loop
vertex -0.030950 0.020680 0.055708
vertex -0.021319 0.014245 0.061900
vertex -0.018130 0.018130 0.061900
endloop
endfacet
facet normal -0.365764 0.300174 0.880972
outer loop
vertex -0.018130 0.018130 0.061900
vertex -0.026321 0.026321 0.055708
vertex -0.030950 0.020680 0.055708
endloop
endfacet
facet normal -0.491805 0.403615 0.771506
outer loop
vertex -0.039392 0.026321 0.047376
vertex -0.030950 0.020680 0.055708
vertex -0.026321 0.026321 0.055708
endloop
endfacet
facet normal -0.491807 0.403615 0.771506
outer loop
vertex -0.026321 0.026321 0.055708
vertex -0.033500 0.033500 0.047376
vertex -0.039392 0.026321 0.047376
endloop
endfacet
facet normal -0.184972 0.225387 0.956549
outer loop
vertex -0.018130 0.018130 0.061900
vertex -0.009243 0.009243 0.065713
vertex -0.007262 0.010868 0.065713
endloop
endfacet
facet normal -0.184971 0.225387 0.956549
outer loop
vertex -0.007262 0.010868 0.065713
vertex -0.014245 0.021319 0.061900
vertex -0.018130 0.018130 0.061900
endloop
endfacet
facet normal -0.300175 0.365764 0.880972
outer loop
vertex -0.026321 0.026321 0.055708
vertex -0.018130 0.018130 0.061900
vertex -0.014245 0.021319 0.061900
endloop
endfacet
facet normal -0.300174 0.365764 0.880973
outer loop
vertex -0.014245 0.021319 0.061900
vertex -0.020680 0.030950 0.055708
vertex -0.026321 0.026321 0.055708
endloop
endfacet
facet normal -0.403615 0.491807 0.771505
outer loop
vertex -0.033500 0.033500 0.047376
vertex -0.026321 0.026321 0.055708
vertex -0.020680 0.030950 0.055708
endloop
endfacet
facet normal -0.403615 0.491806 0.771506
outer loop
vertex -0.020680 0.030950 0.055708
vertex -0.026321 0.039392 0.047376
vertex -0.033500 0.033500 0.047376
endloop
endfacet
facet normal -0.491344 0.598704 0.632562
outer loop
vertex -0.039392 0.039392 0.037223
vertex -0.033500 0.033500 0.047376
vertex -0.026321 0.039392 0.047376
endloop
endfacet
facet normal -0.491343 0.598704 0.632563
outer loop
vertex -0.026321 0.039392 0.047376
vertex -0.030950 0.046320 0.037223
vertex -0.039392 0.039392 0.037223
endloop
endfacet
facet normal -0.560083 0.682464 0.469628
outer loop
vertex -0.043770 0.043770 0.025640
vertex -0.039392 0.039392 0.037223
vertex -0.030950 0.046320 0.037223
endloop
endfacet
facet normal -0.560083 0.682463 0.469628
outer loop
vertex -0.030950 0.046320 0.037223
vertex -0.034390 0.051468 0.025640
vertex -0.043770 0.043770 0.025640
endloop
endfacet
facet normal -0.607322 0.740024 0.289005
outer loop
vertex -0.046466 0.046466 0.013071
vertex -0.043770 0.043770 0.025640
vertex -0.034390 0.051468 0.025640
endloop
endfacet
facet normal -0.607322 0.740025 0.289004
outer loop
vertex -0.034390 0.051468 0.025640
vertex -0.036508 0.054638 0.013071
vertex -0.046466 0.046466 0.013071
endloop
endfacet
facet normal -0.631368 0.769324 0.097550
outer loop
vertex -0.047376 0.047376 0.000000
vertex -0.046466 0.046466 0.013071
vertex -0.036508 0.054638 0.013071
endloop
endfacet
facet normal -0.631367 0.769324 0.097550
outer loop
vertex -0.036508 0.054638 0.013071
vertex -0.037223 0.055708 0.000000
vertex -0.047376 0.047376 0.000000
endloop
endfacet
facet normal -0.416179 0.778616 0.469629
outer loop
vertex -0.034390 0.051468 0.025640
vertex -0.030950 0.046320 0.037223
vertex -0.021319 0.051468 0.037223
endloop
endfacet
facet normal -0.416179 0.778617 0.469628
outer loop
vertex -0.021319 0.051468 0.037223
vertex -0.023688 0.057188 0.025640
vertex -0.034390 0.051468 0.025640
endloop
endfacet
facet normal -0.451281 0.844288 0.289004
outer loop
vertex -0.036508 0.054638 0.013071
vertex -0.034390 0.051468 0.025640
vertex -0.023688 0.057188 0.025640
endloop
endfacet
facet normal -0.451281 0.844288 0.289004
outer loop
vertex -0.023688 0.057188 0.025640
vertex -0.025147 0.060711 0.013071
vertex -0.036508 0.054638 0.013071
endloop
endfacet
facet normal -0.469148 0.877715 0.097550
outer loop
vertex -0.037223 0.055708 0.000000
vertex -0.036508 0.054638 0.013071
vertex -0.025147 0.060711 0.013071
endloop
endfacet
facet normal -0.469148 0.877715 0.097550
outer loop
vertex -0.025147 0.060711 0.013071
vertex -0.025640 0.061900 0.000000
vertex -0.037223 0.055708 0.000000
endloop
endfacet
facet normal -0.137442 0.257142 0.956550
outer loop
vertex -0.014245 0.021319 0.061900
vertex -0.007262 0.010868 0.065713
vertex -0.005002 0.012076 0.065713
endloop
endfacet
facet normal -0.137446 0.257142 0.956549
outer loop
vertex -0.005002 0.012076 0.065713
vertex -0.009812 0.023688 0.061900
vertex -0.014245 0.021319 0.061900
endloop
endfacet
facet normal -0.223050 0.417296 0.880972
outer loop
vertex -0.020680 0.030950 0.055708
vertex -0.014245 0.021319 0.061900
vertex -0.009812 0.023688 0.061900
endloop
endfacet
facet normal -0.223050 0.417297 0.880972
outer loop
vertex -0.009812 0.023688 0.061900
vertex -0.014245 0.034390 0.055708
vertex -0.020680 0.030950 0.055708
endloop
endfacet
facet normal -0.299913 0.561098 0.771506
outer loop
vertex -0.026321 0.039392 0.047376
vertex -0.020680 0.030950 0.055708
vertex -0.014245 0.034390 0.055708
endloop
endfacet
facet normal -0.299913 0.561098 0.771506
outer loop
vertex -0.014245 0.034390 0.055708
vertex -0.018130 0.043770 0.047376
vertex -0.026321 0.039392 0.047376
endloop
endfacet
facet normal -0.365102 0.683057 0.632562
outer loop
vertex -0.030950 0.046320 0.037223
vertex -0.026321 0.039392 0.047376
vertex -0.018130 0.043770 0.047376
endloop
endfacet
facet normal -0.365101 0.683056 0.632563
outer loop
vertex -0.018130 0.043770 0.047376
vertex -0.021319 0.051468 0.037223
vertex -0.030950 0.046320 0.037223
endloop
endfacet
facet normal -0.137353 0.452794 0.880972
outer loop
vertex -0.014245 0.034390 0.055708
vertex -0.009812 0.023688 0.061900
vertex -0.005002 0.025147 0.061900
endloop
endfacet
facet normal -0.137353 0.452793 0.880972
outer loop
vertex -0.005002 0.025147 0.061900
vertex -0.007262 0.036508 0.055708
vertex -0.014245 0.034390 0.055708
endloop
endfacet
facet normal -0.184685 0.608827 0.771506
outer loop
vertex -0.018130 0.043770 0.047376
vertex -0.014245 0.034390 0.055708
vertex -0.007262 0.036508 0.055708
endloop
endfacet
facet normal -0.184685 0.608827 0.771506
outer loop
vertex -0.007262 0.036508 0.055708
vertex -0.009243 0.046466 0.047376
vertex -0.018130 0.043770 0.047376
endloop
endfacet
facet normal -0.224828 0.741159 0.632563
outer loop
vertex -0.021319 0.051468 0.037223
vertex -0.018130 0.043770 0.047376
vertex -0.009243 0.046466 0.047376
endloop
endfacet
facet normal -0.224828 0.741159 0.632563
outer loop
vertex -0.009243 0.046466 0.047376
vertex -0.010868 0.054638 0.037223
vertex -0.021319 0.051468 0.037223
endloop
endfacet
facet normal -0.256282 0.844849 0.469628
outer loop
vertex -0.023688 0.057188 0.025640
vertex -0.021319 0.051468 0.037223
vertex -0.010868 0.054638 0.037223
endloop
endfacet
facet normal -0.256282 0.844848 0.469629
outer loop
vertex -0.010868 0.054638 0.037223
vertex -0.012076 0.060711 0.025640
vertex -0.023688 0.057188 0.025640
endloop
endfacet
facet normal -0.277897 0.916106 0.289004
outer loop
vertex -0.025147 0.060711 0.013071
vertex -0.023688 0.057188 0.025640
vertex -0.012076 0.060711 0.025640
endloop
endfacet
facet normal -0.277898 0.916105 0.289005
outer loop
vertex -0.012076 0.060711 0.025640
vertex -0.012820 0.064450 0.013071
vertex -0.025147 0.060711 0.013071
endloop
endfacet
facet normal -0.288901 0.952376 0.097550
outer loop
vertex -0.025640 0.061900 0.000000
vertex -0.025147 0.060711 0.013071
vertex -0.012820 0.064450 0.013071
endloop
endfacet
facet normal -0.288900 0.952376 0.097550
outer loop
vertex -0.012820 0.064450 0.013071
vertex -0.013071 0.065713 0.000000
vertex -0.025640 0.061900 0.000000
endloop
endfacet
facet normal -0.084637 0.279016 0.956549
outer loop
vertex -0.009812 0.023688 0.061900
vertex -0.005002 0.012076 0.065713
vertex -0.002550 0.012820 0.065713
endloop
endfacet
facet normal -0.084639 0.279015 0.956549
outer loop
vertex -0.002550 0.012820 0.065713
vertex -0.005002 0.025147 0.061900
vertex -0.009812 0.023688 0.061900
endloop
endfacet
facet normal -0.093834 0.952718 0.289005
outer loop
vertex -0.012820 0.064450 0.013071
vertex -0.012076 0.060711 0.025640
vertex 0.000000 0.061900 0.025640
endloop
endfacet
facet normal -0.093835 0.952718 0.289004
outer loop
vertex 0.000000 0.061900 0.025640
vertex 0.000000 0.065713 0.013071
vertex -0.012820 0.064450 0.013071
endloop
endfacet
facet normal -0.097550 0.990438 0.097549
outer loop
vertex -0.013071 0.065713 0.000000
vertex -0.012820 0.064450 0.013071
vertex 0.000000 0.065713 0.013071
endloop
endfacet
facet normal -0.097550 0.990438 0.097551
outer loop
vertex 0.000000 0.065713 0.013071
vertex 0.000000 0.067000 0.000000
vertex -0.013071 0.065713 0.000000
endloop
endfacet
facet normal -0.028577 0.290166 0.956549
outer loop
vertex -0.005002 0.025147 0.061900
vertex -0.002550 0.012820 0.065713
vertex 0.000000 0.013071 0.065713
endloop
endfacet
facet normal -0.028579 0.290166 0.956549
outer loop
vertex 0.000000 0.013071 0.065713
vertex 0.000000 0.025640 0.061900
vertex -0.005002 0.025147 0.061900
endloop
endfacet
facet normal -0.046379 0.470890 0.880972
outer loop
vertex -0.007262 0.036508 0.055708
vertex -0.005002 0.025147 0.061900
vertex 0.000000 0.025640 0.061900
endloop
endfacet
facet normal -0.046378 0.470889 0.880972
outer loop
vertex 0.000000 0.025640 0.061900
vertex 0.000000 0.037223 0.055708
vertex -0.007262 0.036508 0.055708
endloop
endfacet
facet normal -0.062361 0.633159 0.771506
outer loop
vertex -0.009243 0.046466 0.047376
vertex -0.007262 0.036508 0.055708
vertex 0.000000 0.037223 0.055708
endloop
endfacet
facet normal -0.062361 0.633159 0.771506
outer loop
vertex 0.000000 0.037223 0.055708
vertex 0.000000 0.047376 0.047376
vertex -0.009243 0.046466 0.047376
endloop
endfacet
facet normal -0.075915 0.770780 0.632562
outer loop
vertex -0.010868 0.054638 0.037223
vertex -0.009243 0.046466 0.047376
vertex 0.000000 0.047376 0.047376
endloop
endfacet
facet normal -0.075915 0.770780 0.632563
outer loop
vertex 0.000000 0.047376 0.047376
vertex 0.000000 0.055708 0.037223
vertex -0.010868 0.054638 0.037223
endloop
endfacet
facet normal -0.086536 0.878613 0.469628
outer loop
vertex -0.012076 0.060711 0.025640
vertex -0.010868 0.054638 0.037223
vertex 0.000000 0.055708 0.037223
endloop
endfacet
facet normal -0.086536 0.878613 0.469628
outer loop
vertex 0.000000 0.055708 0.037223
vertex 0.000000 0.061900 0.025640
vertex -0.012076 0.060711 0.025640
endloop
endfacet
facet normal 0.046379 0.470889 0.880972
outer loop
vertex 0.000000 0.037223 0.055708
vertex 0.000000 0.025640 0.061900
vertex 0.005002 0.025147 0.061900
endloop
endfacet
facet normal 0.046378 0.470889 0.880972
outer loop
vertex 0.005002 0.025147 0.061900
vertex 0.007262 0.036508 0.055708
vertex 0.000000 0.037223 0.055708
endloop
endfacet
facet normal 0.062361 0.633159 0.771506
outer loop
vertex 0.000000 0.047376 0.047376
vertex 0.000000 0.037223 0.055708
vertex 0.007262 0.036508 0.055708
endloop
endfacet
facet normal 0.062361 0.633158 0.771506
outer loop
vertex 0.007262 0.036508 0.055708
vertex 0.009243 0.046466 0.047376
vertex 0.000000 0.047376 0.047376
endloop
endfacet
facet normal 0.075915 0.770780 0.632562
outer loop
vertex 0.000000 0.055708 0.037223
vertex 0.000000 0.047376 0.047376
vertex 0.009243 0.046466 0.047376
endloop
endfacet
facet normal 0.075915 0.770780 0.632562
outer loop
vertex 0.009243 0.046466 0.047376
vertex 0.010868 0.054638 0.037223
vertex 0.000000 0.055708 0.037223
endloop
endfacet
facet normal 0.086536 0.878613 0.469628
outer loop
vertex 0.000000 0.061900 0.025640
vertex 0.000000 0.055708 0.037223
vertex 0.010868 0.054638 0.037223
endloop
endfacet
facet normal 0.086536 0.878613 0.469628
outer loop
vertex 0.010868 0.054638 0.037223
vertex 0.012076 0.060711 0.025640
vertex 0.000000 0.061900 0.025640
endloop
endfacet
facet normal 0.093835 0.952718 0.289004
outer loop
vertex 0.000000 0.065713 0.013071
vertex 0.000000 0.061900 0.025640
vertex 0.012076 0.060711 0.025640
endloop
endfacet
facet normal 0.093834 0.952718 0.289005
outer loop
vertex 0.012076 0.060711 0.025640
vertex 0.012820 0.064450 0.013071
vertex 0.000000 0.065713 0.013071
endloop
endfacet
facet normal 0.097549 0.990438 0.097550
outer loop
vertex 0.000000 0.067000 0.000000
vertex 0.000000 0.065713 0.013071
vertex 0.012820 0.064450 0.013071
endloop
endfacet
facet normal 0.097549 0.990438 0.097550
outer loop
vertex 0.012820 0.064450 0.013071
vertex 0.013071 0.065713 0.000000
vertex 0.000000 0.067000 0.000000
endloop
endfacet
facet normal 0.028577 0.290166 0.956549
outer loop
vertex 0.000000 0.025640 0.061900
vertex 0.000000 0.013071 0.065713
vertex 0.002550 0.012820 0.065713
endloop
endfacet
facet normal 0.028579 0.290167 0.956549
outer loop
vertex 0.002550 0.012820 0.065713
vertex 0.005002 0.025147 0.061900
vertex 0.000000 0.025640 0.061900
endloop
endfacet
facet normal 0.277897 0.916105 0.289006
outer loop
vertex 0.012820 0.064450 0.013071
vertex 0.012076 0.060711 0.025640
vertex 0.023688 0.057188 0.025640
endloop
endfacet
facet normal 0.277898 0.916105 0.289005
outer loop
vertex 0.023688 0.057188 0.025640
vertex 0.025147 0.060711 0.013071
vertex 0.012820 0.064450 0.013071
endloop
endfacet
facet normal 0.288900 0.952376 0.097551
outer loop
vertex 0.013071 0.065713 0.000000
vertex 0.012820 0.064450 0.013071
vertex 0.025147 0.060711 0.013071
endloop
endfacet
facet normal 0.288900 0.952376 0.097550
outer loop
vertex 0.025147 0.060711 0.013071
vertex 0.025640 0.061900 0.000000
vertex 0.013071 0.065713 0.000000
endloop
endfacet
facet normal 0.084640 0.279015 0.956549
outer loop
vertex 0.005002 0.025147 0.061900
vertex 0.002550 0.012820 0.065713
vertex 0.005002 0.012076 0.065713
endloop
endfacet
facet normal 0.084638 0.279016 0.956549
outer loop
vertex 0.005002 0.012076 0.065713
vertex 0.009812 0.023688 0.061900
vertex 0.005002 0.025147 0.061900
endloop
endfacet
facet normal 0.137353 0.452793 0.880972
outer loop
vertex 0.007262 0.036508 0.055708
vertex 0.005002 0.025147 0.061900
vertex 0.009812 0.023688 0.061900
endloop
endfacet
facet normal 0.137354 0.452793 0.880972
outer loop
vertex 0.009812 0.023688 0.061900
vertex 0.014245 0.034390 0.055708
vertex 0.007262 0.036508 0.055708
endloop
endfacet
facet normal 0.184685 0.608827 0.771506
outer loop
vertex 0.009243 0.046466 0.047376
vertex 0.007262 0.036508 0.055708
vertex 0.014245 0.034390 0.055708
endloop
endfacet
facet normal 0.184686 0.608826 0.771506
outer loop
vertex 0.014245 0.034390 0.055708
vertex 0.018130 0.043770 0.047376
vertex 0.009243 0.046466 0.047376
endloop
endfacet
facet normal 0.224828 0.741159 0.632562
outer loop
vertex 0.010868 0.054638 0.037223
vertex 0.009243 0.046466 0.047376
vertex 0.018130 0.043770 0.047376
endloop
endfacet
facet normal 0.224828 0.741159 0.632562
outer loop
vertex 0.018130 0.043770 0.047376
vertex 0.021319 0.051468 0.037223
vertex 0.010868 0.054638 0.037223
endloop
endfacet
facet normal 0.256282 0.844848 0.469628
outer loop
vertex 0.012076 0.060711 0.025640
vertex 0.010868 0.054638 0.037223
vertex 0.021319 0.051468 0.037223
endloop
endfacet
facet normal 0.256282 0.844848 0.469628
outer loop
vertex 0.021319 0.051468 0.037223
vertex 0.023688 0.057188 0.025640
vertex 0.012076 0.060711 0.025640
endloop
endfacet
facet normal 0.299913 0.561098 0.771506
outer loop
vertex 0.018130 0.043770 0.047376
vertex 0.014245 0.034390 0.055708
vertex 0.020680 0.030950 0.055708
endloop
endfacet
facet normal 0.299914 0.561098 0.771506
outer loop
vertex 0.020680 0.030950 0.055708
vertex 0.026321 0.039392 0.047376
vertex 0.018130 0.043770 0.047376
endloop
endfacet
facet normal 0.365102 0.683056 0.632562
outer loop
vertex 0.021319 0.051468 0.037223
vertex 0.018130 0.043770 0.047376
vertex 0.026321 0.039392 0.047376
endloop
endfacet
facet normal 0.365101 0.683057 0.632562
outer loop
vertex 0.026321 0.039392 0.047376
vertex 0.030950 0.046320 0.037223
vertex 0.021319 0.051468 0.037223
endloop
endfacet
facet normal 0.416180 0.778617 0.469628
outer loop
vertex 0.023688 0.057188 0.025640
vertex 0.021319 0.051468 0.037223
vertex 0.030950 0.046320 0.037223
endloop
endfacet
facet normal 0.416180 0.778617 0.469627
outer loop
vertex 0.030950 0.046320 0.037223
vertex 0.034390 0.051468 0.025640
vertex 0.023688 0.057188 0.025640
endloop
endfacet
facet normal 0.451281 0.844287 0.289006
outer loop
vertex 0.025147 0.060711 0.013071
vertex 0.023688 0.057188 0.025640
vertex 0.034390 0.051468 0.025640
endloop
endfacet
facet normal 0.451281 0.844288 0.289005
outer loop
vertex 0.034390 0.051468 0.025640
vertex 0.036508 0.054638 0.013071
vertex 0.025147 0.060711 0.013071
endloop
endfacet
facet normal 0.469148 0.877715 0.097551
outer loop
vertex 0.025640 0.061900 0.000000
vertex 0.025147 0.060711 0.013071
vertex 0.036508 0.054638 0.013071
endloop
endfacet
facet normal 0.469148 0.877715 0.097550
outer loop
vertex 0.036508 0.054638 0.013071
vertex 0.037223 0.055708 0.000000
vertex 0.025640 0.061900 0.000000
endloop
endfacet
facet normal 0.137446 0.257142 0.956549
outer loop
vertex 0.009812 0.023688 0.061900
vertex 0.005002 0.012076 0.065713
vertex 0.007262 0.010868 0.065713
endloop
endfacet
facet normal 0.137446 0.257142 0.956549
outer loop
vertex 0.007262 0.010868 0.065713
vertex 0.014245 0.021319 0.061900
vertex 0.009812 0.023688 0.061900
endloop
endfacet
facet normal 0.223049 0.417297 0.880973
outer loop
vertex 0.014245 0.034390 0.055708
vertex 0.009812 0.023688 0.061900
vertex 0.014245 0.021319 0.061900
endloop
endfacet
facet normal 0.223050 0.417297 0.880972
outer loop
vertex 0.014245 0.021319 0.061900
vertex 0.020680 0.030950 0.055708
vertex 0.014245 0.034390 0.055708
endloop
endfacet
facet normal 0.631368 0.769324 0.097550
outer loop
vertex 0.037223 0.055708 0.000000
vertex 0.036508 0.054638 0.013071
vertex 0.046466 0.046466 0.013071
endloop
endfacet
facet normal 0.631368 0.769323 0.097550
outer loop
vertex 0.046466 0.046466 0.013071
vertex 0.047376 0.047376 0.000000
vertex 0.037223 0.055708 0.000000
endloop
endfacet
facet normal 0.184970 0.225387 0.956549
outer loop
vertex 0.014245 0.021319 0.061900
vertex 0.007262 0.010868 0.065713
vertex 0.009243 0.009243 0.065713
endloop
endfacet
facet normal 0.184970 0.225387 0.956549
outer loop
vertex 0.009243 0.009243 0.065713
vertex 0.018130 0.018130 0.061900
vertex 0.014245 0.021319 0.061900
endloop
endfacet
facet normal 0.300175 0.365764 0.880972
outer loop
vertex 0.020680 0.030950 0.055708
vertex 0.014245 0.021319 0.061900
vertex 0.018130 0.018130 0.061900
endloop
endfacet
facet normal 0.300174 0.365764 0.880973
outer loop
vertex 0.018130 0.018130 0.061900
vertex 0.026321 0.026321 0.055708
vertex 0.020680 0.030950 0.055708
endloop
endfacet
facet normal 0.403616 0.491807 0.771505
outer loop
vertex 0.026321 0.039392 0.047376
vertex 0.020680 0.030950 0.055708
vertex 0.026321 0.026321 0.055708
endloop
endfacet
facet normal 0.403615 0.491807 0.771506
outer loop
vertex 0.026321 0.026321 0.055708
vertex 0.033500 0.033500 0.047376
vertex 0.026321 0.039392 0.047376
endloop
endfacet
facet normal 0.491343 0.598704 0.632562
outer loop
vertex 0.030950 0.046320 0.037223
vertex 0.026321 0.039392 0.047376
vertex 0.033500 0.033500 0.047376
endloop
endfacet
facet normal 0.491344 0.598704 0.632562
outer loop
vertex 0.033500 0.033500 0.047376
vertex 0.039392 0.039392 0.037223
vertex 0.030950 0.046320 0.037223
endloop
endfacet
facet normal 0.560083 0.682463 0.469628
outer loop
vertex 0.034390 0.051468 0.025640
vertex 0.030950 0.046320 0.037223
vertex 0.039392 0.039392 0.037223
endloop
endfacet
facet normal 0.560083 0.682463 0.469628
outer loop
vertex 0.039392 0.039392 0.037223
vertex 0.043770 0.043770 0.025640
vertex 0.034390 0.051468 0.025640
endloop
endfacet
facet normal 0.607323 0.740024 0.289006
outer loop
vertex 0.036508 0.054638 0.013071
vertex 0.034390 0.051468 0.025640
vertex 0.043770 0.043770 0.025640
endloop
endfacet
facet normal 0.607322 0.740024 0.289005
outer loop
vertex 0.043770 0.043770 0.025640
vertex 0.046466 0.046466 0.013071
vertex 0.036508 0.054638 0.013071
endloop
endfacet
facet normal 0.491807 0.403614 0.771506
outer loop
vertex 0.033500 0.033500 0.047376
vertex 0.026321 0.026321 0.055708
vertex 0.030950 0.020680 0.055708
endloop
endfacet
facet normal 0.491806 0.403615 0.771506
outer loop
vertex 0.030950 0.020680 0.055708
vertex 0.039392 0.026321 0.047376
vertex 0.033500 0.033500 0.047376
endloop
endfacet
facet normal 0.598704 0.491343 0.632563
outer loop
vertex 0.039392 0.039392 0.037223
vertex 0.033500 0.033500 0.047376
vertex 0.039392 0.026321 0.047376
endloop
endfacet
facet normal 0.598703 0.491344 0.632562
outer loop
vertex 0.039392 0.026321 0.047376
vertex 0.046320 0.030950 0.037223
vertex 0.039392 0.039392 0.037223
endloop
endfacet
facet normal 0.682464 0.560083 0.469628
outer loop
vertex 0.043770 0.043770 0.025640
vertex 0.039392 0.039392 0.037223
vertex 0.046320 0.030950 0.037223
endloop
endfacet
facet normal 0.682463 0.560083 0.469628
outer loop
vertex 0.046320 0.030950 0.037223
vertex 0.051468 0.034390 0.025640
vertex 0.043770 0.043770 0.025640
endloop
endfacet
facet normal 0.740024 0.607322 0.289005
outer loop
vertex 0.046466 0.046466 0.013071
vertex 0.043770 0.043770 0.025640
vertex 0.051468 0.034390 0.025640
endloop
endfacet
facet normal 0.740024 0.607322 0.289005
outer loop
vertex 0.051468 0.034390 0.025640
vertex 0.054638 0.036508 0.013071
vertex 0.046466 0.046466 0.013071
endloop
endfacet
facet normal 0.769324 0.631367 0.097550
outer loop
vertex 0.047376 0.047376 0.000000
vertex 0.046466 0.046466 0.013071
vertex 0.054638 0.036508 0.013071
endloop
endfacet
facet normal 0.769324 0.631368 0.097550
outer loop
vertex 0.054638 0.036508 0.013071
vertex 0.055709 0.037223 0.000000
vertex 0.047376 0.047376 0.000000
endloop
endfacet
facet normal 0.225386 0.184971 0.956550
outer loop
vertex 0.018130 0.018130 0.061900
vertex 0.009243 0.009243 0.065713
vertex 0.010868 0.007262 0.065713
endloop
endfacet
facet normal 0.225388 0.184970 0.956549
outer loop
vertex 0.010868 0.007262 0.065713
vertex 0.021319 0.014245 0.061900
vertex 0.018130 0.018130 0.061900
endloop
endfacet
facet normal 0.365764 0.300174 0.880972
outer loop
vertex 0.026321 0.026321 0.055708
vertex 0.018130 0.018130 0.061900
vertex 0.021319 0.014245 0.061900
endloop
endfacet
facet normal 0.365763 0.300174 0.880973
outer loop
vertex 0.021319 0.014245 0.061900
vertex 0.030950 0.020680 0.055708
vertex 0.026321 0.026321 0.055708
endloop
endfacet
facet normal 0.877715 0.469148 0.097550
outer loop
vertex 0.055709 0.037223 0.000000
vertex 0.054638 0.036508 0.013071
vertex 0.060711 0.025147 0.013071
endloop
endfacet
facet normal 0.877715 0.469148 0.097550
outer loop
vertex 0.060711 0.025147 0.013071
vertex 0.061900 0.025640 0.000000
vertex 0.055709 0.037223 0.000000
endloop
endfacet
facet normal 0.257142 0.137445 0.956549
outer loop
vertex 0.021319 0.014245 0.061900
vertex 0.010868 0.007262 0.065713
vertex 0.012076 0.005002 0.065713
endloop
endfacet
facet normal 0.257143 0.137445 0.956549
outer loop
vertex 0.012076 0.005002 0.065713
vertex 0.023688 0.009812 0.061900
vertex 0.021319 0.014245 0.061900
endloop
endfacet
facet normal 0.417296 0.223050 0.880973
outer loop
vertex 0.030950 0.020680 0.055708
vertex 0.021319 0.014245 0.061900
vertex 0.023688 0.009812 0.061900
endloop
endfacet
facet normal 0.417297 0.223050 0.880972
outer loop
vertex 0.023688 0.009812 0.061900
vertex 0.034390 0.014245 0.055708
vertex 0.030950 0.020680 0.055708
endloop
endfacet
facet normal 0.561098 0.299913 0.771506
outer loop
vertex 0.039392 0.026321 0.047376
vertex 0.030950 0.020680 0.055708
vertex 0.034390 0.014245 0.055708
endloop
endfacet
facet normal 0.561098 0.299913 0.771506
outer loop
vertex 0.034390 0.014245 0.055708
vertex 0.043770 0.018130 0.047376
vertex 0.039392 0.026321 0.047376
endloop
endfacet
facet normal 0.683057 0.365101 0.632562
outer loop
vertex 0.046320 0.030950 0.037223
vertex 0.039392 0.026321 0.047376
vertex 0.043770 0.018130 0.047376
endloop
endfacet
facet normal 0.683056 0.365101 0.632563
outer loop
vertex 0.043770 0.018130 0.047376
vertex 0.051468 0.021319 0.037223
vertex 0.046320 0.030950 0.037223
endloop
endfacet
facet normal 0.778617 0.416180 0.469627
outer loop
vertex 0.051468 0.034390 0.025640
vertex 0.046320 0.030950 0.037223
vertex 0.051468 0.021319 0.037223
endloop
endfacet
facet normal 0.778617 0.416180 0.469628
outer loop
vertex 0.051468 0.021319 0.037223
vertex 0.057188 0.023688 0.025640
vertex 0.051468 0.034390 0.025640
endloop
endfacet
facet normal 0.844287 0.451281 0.289005
outer loop
vertex 0.054638 0.036508 0.013071
vertex 0.051468 0.034390 0.025640
vertex 0.057188 0.023688 0.025640
endloop
endfacet
facet normal 0.844288 0.451280 0.289005
outer loop
vertex 0.057188 0.023688 0.025640
vertex 0.060711 0.025147 0.013071
vertex 0.054638 0.036508 0.013071
endloop
endfacet
facet normal 0.741159 0.224827 0.632563
outer loop
vertex 0.051468 0.021319 0.037223
vertex 0.043770 0.018130 0.047376
vertex 0.046466 0.009243 0.047376
endloop
endfacet
facet normal 0.741159 0.224829 0.632563
outer loop
vertex 0.046466 0.009243 0.047376
vertex 0.054638 0.010868 0.037223
vertex 0.051468 0.021319 0.037223
endloop
endfacet
facet normal 0.844849 0.256282 0.469628
outer loop
vertex 0.057188 0.023688 0.025640
vertex 0.051468 0.021319 0.037223
vertex 0.054638 0.010868 0.037223
endloop
endfacet
facet normal 0.844849 0.256282 0.469628
outer loop
vertex 0.054638 0.010868 0.037223
vertex 0.060711 0.012076 0.025640
vertex 0.057188 0.023688 0.025640
endloop
endfacet
facet normal 0.916105 0.277897 0.289005
outer loop
vertex 0.060711 0.025147 0.013071
vertex 0.057188 0.023688 0.025640
vertex 0.060711 0.012076 0.025640
endloop
endfacet
facet normal 0.916105 0.277898 0.289005
outer loop
vertex 0.060711 0.012076 0.025640
vertex 0.064450 0.012820 0.013071
vertex 0.060711 0.025147 0.013071
endloop
endfacet
facet normal 0.952377 0.288899 0.097550
outer loop
vertex 0.061900 0.025640 0.000000
vertex 0.060711 0.025147 0.013071
vertex 0.064450 0.012820 0.013071
endloop
endfacet
facet normal 0.952376 0.288901 0.097550
outer loop
vertex 0.064450 0.012820 0.013071
vertex 0.065713 0.013071 0.000000
vertex 0.061900 0.025640 0.000000
endloop
endfacet
facet normal 0.279016 0.084639 0.956549
outer loop
vertex 0.023688 0.009812 0.061900
vertex 0.012076 0.005002 0.065713
vertex 0.012820 0.002550 0.065713
endloop
endfacet
facet normal 0.279015 0.084638 0.956549
outer loop
vertex 0.012820 0.002550 0.065713
vertex 0.025147 0.005002 0.061900
vertex 0.023688 0.009812 0.061900
endloop
endfacet
facet normal 0.452792 0.137353 0.880973
outer loop
vertex 0.034390 0.014245 0.055708
vertex 0.023688 0.009812 0.061900
vertex 0.025147 0.005002 0.061900
endloop
endfacet
facet normal 0.452794 0.137353 0.880972
outer loop
vertex 0.025147 0.005002 0.061900
vertex 0.036508 0.007262 0.055708
vertex 0.034390 0.014245 0.055708
endloop
endfacet
facet normal 0.608827 0.184685 0.771506
outer loop
vertex 0.043770 0.018130 0.047376
vertex 0.034390 0.014245 0.055708
vertex 0.036508 0.007262 0.055708
endloop
endfacet
facet normal 0.608827 0.184686 0.771506
outer loop
vertex 0.036508 0.007262 0.055708
vertex 0.046466 0.009243 0.047376
vertex 0.043770 0.018130 0.047376
endloop
endfacet
facet normal 0.290167 0.028579 0.956549
outer loop
vertex 0.025147 0.005002 0.061900
vertex 0.012820 0.002550 0.065713
vertex 0.013071 -0.000000 0.065713
endloop
endfacet
facet normal 0.290167 0.028579 0.956549
outer loop
vertex 0.013071 -0.000000 0.065713
vertex 0.025640 0.000000 0.061900
vertex 0.025147 0.005002 0.061900
endloop
endfacet
facet normal 0.470889 0.046379 0.880973
outer loop
vertex 0.036508 0.007262 0.055708
vertex 0.025147 0.005002 0.061900
vertex 0.025640 0.000000 0.061900
endloop
endfacet
facet normal 0.470890 0.046378 0.880972
outer loop
vertex 0.025640 0.000000 0.061900
vertex 0.037223 -0.000000 0.055708
vertex 0.036508 0.007262 0.055708
endloop
endfacet
facet normal 0.633159 0.062360 0.771506
outer loop
vertex 0.046466 0.009243 0.047376
vertex 0.036508 0.007262 0.055708
vertex 0.037223 -0.000000 0.055708
endloop
endfacet
facet normal 0.633159 0.062361 0.771505
outer loop
vertex 0.037223 -0.000000 0.055708
vertex 0.047376 -0.000000 0.047376
vertex 0.046466 0.009243 0.047376
endloop
endfacet
facet normal 0.770780 0.075914 0.632563
outer loop
vertex 0.054638 0.010868 0.037223
vertex 0.046466 0.009243 0.047376
vertex 0.047376 -0.000000 0.047376
endloop
endfacet
facet normal 0.770780 0.075915 0.632563
outer loop
vertex 0.047376 -0.000000 0.047376
vertex 0.055708 -0.000000 0.037223
vertex 0.054638 0.010868 0.037223
endloop
endfacet
facet normal 0.878614 0.086536 0.469627
outer loop
vertex 0.060711 0.012076 0.025640
vertex 0.054638 0.010868 0.037223
vertex 0.055708 -0.000000 0.037223
endloop
endfacet
facet normal 0.878613 0.086536 0.469628
outer loop
vertex 0.055708 -0.000000 0.037223
vertex 0.061900 -0.000000 0.025640
vertex 0.060711 0.012076 0.025640
endloop
endfacet
facet normal 0.952718 0.093834 0.289005
outer loop
vertex 0.064450 0.012820 0.013071
vertex 0.060711 0.012076 0.025640
vertex 0.061900 -0.000000 0.025640
endloop
endfacet
facet normal 0.952717 0.093836 0.289006
outer loop
vertex 0.061900 -0.000000 0.025640
vertex 0.065713 0.000000 0.013071
vertex 0.064450 0.012820 0.013071
endloop
endfacet
facet normal 0.990438 0.097549 0.097550
outer loop
vertex 0.065713 0.013071 0.000000
vertex 0.064450 0.012820 0.013071
vertex 0.065713 0.000000 0.013071
endloop
endfacet
facet normal 0.990438 0.097551 0.097550
outer loop
vertex 0.065713 0.000000 0.013071
vertex 0.067000 -0.000000 0.000000
vertex 0.065713 0.013071 0.000000
endloop
endfacet
facet normal 0.878613 -0.086536 0.469627
outer loop
vertex 0.061900 -0.000000 0.025640
vertex 0.055708 -0.000000 0.037223
vertex 0.054638 -0.010868 0.037223
endloop
endfacet
facet normal 0.878613 -0.086536 0.469627
outer loop
vertex 0.054638 -0.010868 0.037223
vertex 0.060711 -0.012076 0.025640
vertex 0.061900 -0.000000 0.025640
endloop
endfacet
facet normal 0.952718 -0.093834 0.289005
outer loop
vertex 0.065713 0.000000 0.013071
vertex 0.061900 -0.000000 0.025640
vertex 0.060711 -0.012076 0.025640
endloop
endfacet
facet normal 0.952718 -0.093835 0.289006
outer loop
vertex 0.060711 -0.012076 0.025640
vertex 0.064450 -0.012820 0.013071
vertex 0.065713 0.000000 0.013071
endloop
endfacet
facet normal 0.990438 -0.097551 0.097550
outer loop
vertex 0.067000 -0.000000 0.000000
vertex 0.065713 0.000000 0.013071
vertex 0.064450 -0.012820 0.013071
endloop
endfacet
facet normal 0.990438 -0.097549 0.097550
outer loop
vertex 0.064450 -0.012820 0.013071
vertex 0.065713 -0.013071 0.000000
vertex 0.067000 -0.000000 0.000000
endloop
endfacet
facet normal 0.290166 -0.028579 0.956549
outer loop
vertex 0.025640 0.000000 0.061900
vertex 0.013071 -0.000000 0.065713
vertex 0.012820 -0.002550 0.065713
endloop
endfacet
facet normal 0.290167 -0.028579 0.956549
outer loop
vertex 0.012820 -0.002550 0.065713
vertex 0.025147 -0.005002 0.061900
vertex 0.025640 0.000000 0.061900
endloop
endfacet
facet normal 0.470889 -0.046378 0.880973
outer loop
vertex 0.037223 -0.000000 0.055708
vertex 0.025640 0.000000 0.061900
vertex 0.025147 -0.005002 0.061900
endloop
endfacet
facet normal 0.470889 -0.046379 0.880973
outer loop
vertex 0.025147 -0.005002 0.061900
vertex 0.036508 -0.007262 0.055708
vertex 0.037223 -0.000000 0.055708
endloop
endfacet
facet normal 0.633159 -0.062361 0.771506
outer loop
vertex 0.047376 -0.000000 0.047376
vertex 0.037223 -0.000000 0.055708
vertex 0.036508 -0.007262 0.055708
endloop
endfacet
facet normal 0.633159 -0.062361 0.771505
outer loop
vertex 0.036508 -0.007262 0.055708
vertex 0.046466 -0.009243 0.047376
vertex 0.047376 -0.000000 0.047376
endloop
endfacet
facet normal 0.770780 -0.075915 0.632563
outer loop
vertex 0.055708 -0.000000 0.037223
vertex 0.047376 -0.000000 0.047376
vertex 0.046466 -0.009243 0.047376
endloop
endfacet
facet normal 0.770780 -0.075916 0.632563
outer loop
vertex 0.046466 -0.009243 0.047376
vertex 0.054638 -0.010868 0.037223
vertex 0.055708 -0.000000 0.037223
endloop
endfacet
facet normal 0.279016 -0.084639 0.956549
outer loop
vertex 0.025147 -0.005002 0.061900
vertex 0.012820 -0.002550 0.065713
vertex 0.012076 -0.005002 0.065713
endloop
endfacet
facet normal 0.279015 -0.084639 0.956549
outer loop
vertex 0.012076 -0.005002 0.065713
vertex 0.023688 -0.009812 0.061900
vertex 0.025147 -0.005002 0.061900
endloop
endfacet
facet normal 0.452793 -0.137354 0.880973
outer loop
vertex 0.036508 -0.007262 0.055708
vertex 0.025147 -0.005002 0.061900
vertex 0.023688 -0.009812 0.061900
endloop
endfacet
facet normal 0.452793 -0.137353 0.880972
outer loop
vertex 0.023688 -0.009812 0.061900
vertex 0.034390 -0.014245 0.055708
vertex 0.036508 -0.007262 0.055708
endloop
endfacet
facet normal 0.608827 -0.184686 0.771506
outer loop
vertex 0.046466 -0.009243 0.047376
vertex 0.036508 -0.007262 0.055708
vertex 0.034390 -0.014245 0.055708
endloop
endfacet
facet normal 0.608827 -0.184685 0.771505
outer loop
vertex 0.034390 -0.014245 0.055708
vertex 0.043770 -0.018130 0.047376
vertex 0.046466 -0.009243 0.047376
endloop
endfacet
facet normal 0.741159 -0.224828 0.632563
outer loop
vertex 0.054638 -0.010868 0.037223
vertex 0.046466 -0.009243 0.047376
vertex 0.043770 -0.018130 0.047376
endloop
endfacet
facet normal 0.741159 -0.224828 0.632563
outer loop
vertex 0.043770 -0.018130 0.047376
vertex 0.051468 -0.021319 0.037223
vertex 0.054638 -0.010868 0.037223
endloop
endfacet
facet normal 0.844849 -0.256282 0.469627
outer loop
vertex 0.060711 -0.012076 0.025640
vertex 0.054638 -0.010868 0.037223
vertex 0.051468 -0.021319 0.037223
endloop
endfacet
facet normal 0.844849 -0.256282 0.469628
outer loop
vertex 0.051468 -0.021319 0.037223
vertex 0.057188 -0.023688 0.025640
vertex 0.060711 -0.012076 0.025640
endloop
endfacet
facet normal 0.916105 -0.277898 0.289006
outer loop
vertex 0.064450 -0.012820 0.013071
vertex 0.060711 -0.012076 0.025640
vertex 0.057188 -0.023688 0.025640
endloop
endfacet
facet normal 0.916105 -0.277898 0.289005
outer loop
vertex 0.057188 -0.023688 0.025640
vertex 0.060711 -0.025147 0.013071
vertex 0.064450 -0.012820 0.013071
endloop
endfacet
facet normal 0.952376 -0.288900 0.097550
outer loop
vertex 0.065713 -0.013071 0.000000
vertex 0.064450 -0.012820 0.013071
vertex 0.060711 -0.025147 0.013071
endloop
endfacet
facet normal 0.952376 -0.288900 0.097551
outer loop
vertex 0.060711 -0.025147 0.013071
vertex 0.061900 -0.025640 0.000000
vertex 0.065713 -0.013071 0.000000
endloop
endfacet
facet normal 0.778617 -0.416180 0.469627
outer loop
vertex 0.057188 -0.023688 0.025640
vertex 0.051468 -0.021319 0.037223
vertex 0.046320 -0.030950 0.037223
endloop
endfacet
facet normal 0.778617 -0.416180 0.469627
outer loop
vertex 0.046320 -0.030950 0.037223
vertex 0.051468 -0.034390 0.025640
vertex 0.057188 -0.023688 0.025640
endloop
endfacet
facet normal 0.844288 -0.451281 0.289006
outer loop
vertex 0.060711 -0.025147 0.013071
vertex 0.057188 -0.023688 0.025640
vertex 0.051468 -0.034390 0.025640
endloop
endfacet
facet normal 0.844287 -0.451282 0.289006
outer loop
vertex 0.051468 -0.034390 0.025640
vertex 0.054638 -0.036508 0.013071
vertex 0.060711 -0.025147 0.013071
endloop
endfacet
facet normal 0.877715 -0.469149 0.097551
outer loop
vertex 0.061900 -0.025640 0.000000
vertex 0.060711 -0.025147 0.013071
vertex 0.054638 -0.036508 0.013071
endloop
endfacet
facet normal 0.877715 -0.469148 0.097550
outer loop
vertex 0.054638 -0.036508 0.013071
vertex 0.055708 -0.037223 0.000000
vertex 0.061900 -0.025640 0.000000
endloop
endfacet
facet normal 0.257143 -0.137445 0.956549
outer loop
vertex 0.023688 -0.009812 0.061900
vertex 0.012076 -0.005002 0.065713
vertex 0.010868 -0.007262 0.065713
endloop
endfacet
facet normal 0.257143 -0.137445 0.956549
outer loop
vertex 0.010868 -0.007262 0.065713
vertex 0.021319 -0.014245 0.061900
vertex 0.023688 -0.009812 0.061900
endloop
endfacet
facet normal 0.417297 -0.223050 0.880972
outer loop
vertex 0.034390 -0.014245 0.055708
vertex 0.023688 -0.009812 0.061900
vertex 0.021319 -0.014245 0.061900
endloop
endfacet
facet normal 0.417296 -0.223050 0.880973
outer loop
vertex 0.021319 -0.014245 0.061900
vertex 0.030950 -0.020680 0.055708
vertex 0.034390 -0.014245 0.055708
endloop
endfacet
facet normal 0.561098 -0.299914 0.771505
outer loop
vertex 0.043770 -0.018130 0.047376
vertex 0.034390 -0.014245 0.055708
vertex 0.030950 -0.020680 0.055708
endloop
endfacet
facet normal 0.561098 -0.299913 0.771506
outer loop
vertex 0.030950 -0.020680 0.055708
vertex 0.039392 -0.026321 0.047376
vertex 0.043770 -0.018130 0.047376
endloop
endfacet
facet normal 0.683056 -0.365102 0.632563
outer loop
vertex 0.051468 -0.021319 0.037223
vertex 0.043770 -0.018130 0.047376
vertex 0.039392 -0.026321 0.047376
endloop
endfacet
facet normal 0.683056 -0.365101 0.632563
outer loop
vertex 0.039392 -0.026321 0.047376
vertex 0.046320 -0.030950 0.037223
vertex 0.051468 -0.021319 0.037223
endloop
endfacet
facet normal 0.365763 -0.300175 0.880972
outer loop
vertex 0.030950 -0.020680 0.055708
vertex 0.021319 -0.014245 0.061900
vertex 0.018130 -0.018130 0.061900
endloop
endfacet
facet normal 0.365763 -0.300174 0.880973
outer loop
vertex 0.018130 -0.018130 0.061900
vertex 0.026321 -0.026321 0.055708
vertex 0.030950 -0.020680 0.055708
endloop
endfacet
facet normal 0.491806 -0.403616 0.771506
outer loop
vertex 0.039392 -0.026321 0.047376
vertex 0.030950 -0.020680 0.055708
vertex 0.026321 -0.026321 0.055708
endloop
endfacet
facet normal 0.491807 -0.403616 0.771505
outer loop
vertex 0.026321 -0.026321 0.055708
vertex 0.033500 -0.033500 0.047376
vertex 0.039392 -0.026321 0.047376
endloop
endfacet
facet normal 0.598704 -0.491344 0.632563
outer loop
vertex 0.046320 -0.030950 0.037223
vertex 0.039392 -0.026321 0.047376
vertex 0.033500 -0.033500 0.047376
endloop
endfacet
facet normal 0.598704 -0.491344 0.632563
outer loop
vertex 0.033500 -0.033500 0.047376
vertex 0.039392 -0.039392 0.037223
vertex 0.046320 -0.030950 0.037223
endloop
endfacet
facet normal 0.682464 -0.560084 0.469627
outer loop
vertex 0.051468 -0.034390 0.025640
vertex 0.046320 -0.030950 0.037223
vertex 0.039392 -0.039392 0.037223
endloop
endfacet
facet normal 0.682463 -0.560083 0.469628
outer loop
vertex 0.039392 -0.039392 0.037223
vertex 0.043770 -0.043770 0.025640
vertex 0.051468 -0.034390 0.025640
endloop
endfacet
facet normal 0.740024 -0.607322 0.289006
outer loop
vertex 0.054638 -0.036508 0.013071
vertex 0.051468 -0.034390 0.025640
vertex 0.043770 -0.043770 0.025640
endloop
endfacet
facet normal 0.740024 -0.607322 0.289006
outer loop
vertex 0.043770 -0.043770 0.025640
vertex 0.046466 -0.046466 0.013071
vertex 0.054638 -0.036508 0.013071
endloop
endfacet
facet normal 0.769323 -0.631368 0.097550
outer loop
vertex 0.055708 -0.037223 0.000000
vertex 0.054638 -0.036508 0.013071
vertex 0.046466 -0.046466 0.013071
endloop
endfacet
facet normal 0.769324 -0.631367 0.097550
outer loop
vertex 0.046466 -0.046466 0.013071
vertex 0.047376 -0.047376 0.000000
vertex 0.055708 -0.037223 0.000000
endloop
endfacet
facet normal 0.225387 -0.184970 0.956549
outer loop
vertex 0.021319 -0.014245 0.061900
vertex 0.010868 -0.007262 0.065713
vertex 0.009243 -0.009243 0.065713
endloop
endfacet
facet normal 0.225387 -0.184971 0.956549
outer loop
vertex 0.009243 -0.009243 0.065713
vertex 0.018130 -0.018130 0.061900
vertex 0.021319 -0.014245 0.061900
endloop
endfacet
facet normal 0.607322 -0.740024 0.289006
outer loop
vertex 0.046466 -0.046466 0.013071
vertex 0.043770 -0.043770 0.025640
vertex 0.034390 -0.051468 0.025640
endloop
endfacet
facet normal 0.607322 -0.740024 0.289005
outer loop
vertex 0.034390 -0.051468 0.025640
vertex 0.036508 -0.054638 0.013071
vertex 0.046466 -0.046466 0.013071
endloop
endfacet
facet normal 0.631367 -0.769324 0.097551
outer loop
vertex 0.047376 -0.047376 0.000000
vertex 0.046466 -0.046466 0.013071
vertex 0.036508 -0.054638 0.013071
endloop
endfacet
facet normal 0.631368 -0.769324 0.097550
outer loop
vertex 0.036508 -0.054638 0.013071
vertex 0.037223 -0.055708 0.000000
vertex 0.047376 -0.047376 0.000000
endloop
endfacet
facet normal 0.184970 -0.225387 0.956549
outer loop
vertex 0.018130 -0.018130 0.061900
vertex 0.009243 -0.009243 0.065713
vertex 0.007262 -0.010868 0.065713
endloop
endfacet
facet normal 0.184970 -0.225387 0.956549
outer loop
vertex 0.007262 -0.010868 0.065713
vertex 0.014245 -0.021319 0.061900
vertex 0.018130 -0.018130 0.061900
endloop
endfacet
facet normal 0.300174 -0.365764 0.880972
outer loop
vertex 0.026321 -0.026321 0.055708
vertex 0.018130 -0.018130 0.061900
vertex 0.014245 -0.021319 0.061900
endloop
endfacet
facet normal 0.300174 -0.365763 0.880973
outer loop
vertex 0.014245 -0.021319 0.061900
vertex 0.020680 -0.030950 0.055708
vertex 0.026321 -0.026321 0.055708
endloop
endfacet
facet normal 0.403615 -0.491807 0.771506
outer loop
vertex 0.033500 -0.033500 0.047376
vertex 0.026321 -0.026321 0.055708
vertex 0.020680 -0.030950 0.055708
endloop
endfacet
facet normal 0.403615 -0.491807 0.771506
outer loop
vertex 0.020680 -0.030950 0.055708
vertex 0.026321 -0.039392 0.047376
vertex 0.033500 -0.033500 0.047376
endloop
endfacet
facet normal 0.491343 -0.598704 0.632563
outer loop
vertex 0.039392 -0.039392 0.037223
vertex 0.033500 -0.033500 0.047376
vertex 0.026321 -0.039392 0.047376
endloop
endfacet
facet normal 0.491343 -0.598704 0.632563
outer loop
vertex 0.026321 -0.039392 0.047376
vertex 0.030950 -0.046320 0.037223
vertex 0.039392 -0.039392 0.037223
endloop
endfacet
facet normal 0.560084 -0.682463 0.469627
outer loop
vertex 0.043770 -0.043770 0.025640
vertex 0.039392 -0.039392 0.037223
vertex 0.030950 -0.046320 0.037223
endloop
endfacet
facet normal 0.560083 -0.682464 0.469628
outer loop
vertex 0.030950 -0.046320 0.037223
vertex 0.034390 -0.051468 0.025640
vertex 0.043770 -0.043770 0.025640
endloop
endfacet
facet normal 0.223050 -0.417297 0.880972
outer loop
vertex 0.020680 -0.030950 0.055708
vertex 0.014245 -0.021319 0.061900
vertex 0.009812 -0.023688 0.061900
endloop
endfacet
facet normal 0.223050 -0.417296 0.880973
outer loop
vertex 0.009812 -0.023688 0.061900
vertex 0.014245 -0.034390 0.055708
vertex 0.020680 -0.030950 0.055708
endloop
endfacet
facet normal 0.299913 -0.561099 0.771505
outer loop
vertex 0.026321 -0.039392 0.047376
vertex 0.020680 -0.030950 0.055708
vertex 0.014245 -0.034390 0.055708
endloop
endfacet
facet normal 0.299913 -0.561098 0.771506
outer loop
vertex 0.014245 -0.034390 0.055708
vertex 0.018130 -0.043770 0.047376
vertex 0.026321 -0.039392 0.047376
endloop
endfacet
facet normal 0.365101 -0.683057 0.632562
outer loop
vertex 0.030950 -0.046320 0.037223
vertex 0.026321 -0.039392 0.047376
vertex 0.018130 -0.043770 0.047376
endloop
endfacet
facet normal 0.365101 -0.683056 0.632562
outer loop
vertex 0.018130 -0.043770 0.047376
vertex 0.021319 -0.051468 0.037223
vertex 0.030950 -0.046320 0.037223
endloop
endfacet
facet normal 0.416179 -0.778617 0.469628
outer loop
vertex 0.034390 -0.051468 0.025640
vertex 0.030950 -0.046320 0.037223
vertex 0.021319 -0.051468 0.037223
endloop
endfacet
facet normal 0.416179 -0.778617 0.469628
outer loop
vertex 0.021319 -0.051468 0.037223
vertex 0.023688 -0.057188 0.025640
vertex 0.034390 -0.051468 0.025640
endloop
endfacet
facet normal 0.451281 -0.844288 0.289005
outer loop
vertex 0.036508 -0.054638 0.013071
vertex 0.034390 -0.051468 0.025640
vertex 0.023688 -0.057188 0.025640
endloop
endfacet
facet normal 0.451281 -0.844287 0.289006
outer loop
vertex 0.023688 -0.057188 0.025640
vertex 0.025147 -0.060711 0.013071
vertex 0.036508 -0.054638 0.013071
endloop
endfacet
facet normal 0.469148 -0.877715 0.097550
outer loop
vertex 0.037223 -0.055708 0.000000
vertex 0.036508 -0.054638 0.013071
vertex 0.025147 -0.060711 0.013071
endloop
endfacet
facet normal 0.469148 -0.877715 0.097551
outer loop
vertex 0.025147 -0.060711 0.013071
vertex 0.025640 -0.061900 0.000000
vertex 0.037223 -0.055708 0.000000
endloop
endfacet
facet normal 0.137445 -0.257143 0.956549
outer loop
vertex 0.014245 -0.021319 0.061900
vertex 0.007262 -0.010868 0.065713
vertex 0.005002 -0.012076 0.065713
endloop
endfacet
facet normal 0.137446 -0.257142 0.956549
outer loop
vertex 0.005002 -0.012076 0.065713
vertex 0.009812 -0.023688 0.061900
vertex 0.014245 -0.021319 0.061900
endloop
endfacet
facet normal 0.277897 -0.916105 0.289005
outer loop
vertex 0.025147 -0.060711 0.013071
vertex 0.023688 -0.057188 0.025640
vertex 0.012076 -0.060711 0.025640
endloop
endfacet
facet normal 0.277897 -0.916105 0.289006
outer loop
vertex 0.012076 -0.060711 0.025640
vertex 0.012820 -0.064450 0.013071
vertex 0.025147 -0.060711 0.013071
endloop
endfacet
facet normal 0.288900 -0.952376 0.097550
outer loop
vertex 0.025640 -0.061900 0.000000
vertex 0.025147 -0.060711 0.013071
vertex 0.012820 -0.064450 0.013071
endloop
endfacet
facet normal 0.288900 -0.952376 0.097550
outer loop
vertex 0.012820 -0.064450 0.013071
vertex 0.013071 -0.065713 0.000000
vertex 0.025640 -0.061900 0.000000
endloop
endfacet
facet normal 0.084636 -0.279016 0.956549
outer loop
vertex 0.009812 -0.023688 0.061900
vertex 0.005002 -0.012076 0.065713
vertex 0.002550 -0.012820 0.065713
endloop
endfacet
facet normal 0.084640 -0.279016 0.956549
outer loop
vertex 0.002550 -0.012820 0.065713
vertex 0.005002 -0.025147 0.061900
vertex 0.009812 -0.023688 0.061900
endloop
endfacet
facet normal 0.137353 -0.452793 0.880973
outer loop
vertex 0.014245 -0.034390 0.055708
vertex 0.009812 -0.023688 0.061900
vertex 0.005002 -0.025147 0.061900
endloop
endfacet
facet normal 0.137354 -0.452793 0.880972
outer loop
vertex 0.005002 -0.025147 0.061900
vertex 0.007262 -0.036508 0.055708
vertex 0.014245 -0.034390 0.055708
endloop
endfacet
facet normal 0.184685 -0.608827 0.771506
outer loop
vertex 0.018130 -0.043770 0.047376
vertex 0.014245 -0.034390 0.055708
vertex 0.007262 -0.036508 0.055708
endloop
endfacet
facet normal 0.184686 -0.608827 0.771506
outer loop
vertex 0.007262 -0.036508 0.055708
vertex 0.009243 -0.046466 0.047376
vertex 0.018130 -0.043770 0.047376
endloop
endfacet
facet normal 0.224828 -0.741160 0.632562
outer loop
vertex 0.021319 -0.051468 0.037223
vertex 0.018130 -0.043770 0.047376
vertex 0.009243 -0.046466 0.047376
endloop
endfacet
facet normal 0.224828 -0.741159 0.632562
outer loop
vertex 0.009243 -0.046466 0.047376
vertex 0.010868 -0.054638 0.037223
vertex 0.021319 -0.051468 0.037223
endloop
endfacet
facet normal 0.256282 -0.844849 0.469628
outer loop
vertex 0.023688 -0.057188 0.025640
vertex 0.021319 -0.051468 0.037223
vertex 0.010868 -0.054638 0.037223
endloop
endfacet
facet normal 0.256282 -0.844849 0.469628
outer loop
vertex 0.010868 -0.054638 0.037223
vertex 0.012076 -0.060711 0.025640
vertex 0.023688 -0.057188 0.025640
endloop
endfacet
facet normal 0.062360 -0.633158 0.771506
outer loop
vertex 0.009243 -0.046466 0.047376
vertex 0.007262 -0.036508 0.055708
vertex 0.000000 -0.037223 0.055708
endloop
endfacet
facet normal 0.062360 -0.633159 0.771506
outer loop
vertex 0.000000 -0.037223 0.055708
vertex 0.000000 -0.047376 0.047376
vertex 0.009243 -0.046466 0.047376
endloop
endfacet
facet normal 0.075914 -0.770780 0.632562
outer loop
vertex 0.010868 -0.054638 0.037223
vertex 0.009243 -0.046466 0.047376
vertex 0.000000 -0.047376 0.047376
endloop
endfacet
facet normal 0.075915 -0.770780 0.632562
outer loop
vertex 0.000000 -0.047376 0.047376
vertex 0.000000 -0.055708 0.037223
vertex 0.010868 -0.054638 0.037223
endloop
endfacet
facet normal 0.086535 -0.878613 0.469628
outer loop
vertex 0.012076 -0.060711 0.025640
vertex 0.010868 -0.054638 0.037223
vertex 0.000000 -0.055708 0.037223
endloop
endfacet
facet normal 0.086536 -0.878613 0.469628
outer loop
vertex 0.000000 -0.055708 0.037223
vertex 0.000000 -0.061900 0.025640
vertex 0.012076 -0.060711 0.025640
endloop
endfacet
facet normal 0.093834 -0.952718 0.289005
outer loop
vertex 0.012820 -0.064450 0.013071
vertex 0.012076 -0.060711 0.025640
vertex 0.000000 -0.061900 0.025640
endloop
endfacet
facet normal 0.093834 -0.952718 0.289005
outer loop
vertex 0.000000 -0.061900 0.025640
vertex 0.000000 -0.065713 0.013071
vertex 0.012820 -0.064450 0.013071
endloop
endfacet
facet normal 0.097549 -0.990438 0.097551
outer loop
vertex 0.013071 -0.065713 0.000000
vertex 0.012820 -0.064450 0.013071
vertex 0.000000 -0.065713 0.013071
endloop
endfacet
facet normal 0.097550 -0.990438 0.097551
outer loop
vertex 0.000000 -0.065713 0.013071
vertex 0.000000 -0.067000 0.000000
vertex 0.013071 -0.065713 0.000000
endloop
endfacet
facet normal 0.028576 -0.290167 0.956549
outer loop
vertex 0.005002 -0.025147 0.061900
vertex 0.002550 -0.012820 0.065713
vertex 0.000000 -0.013071 0.065713
endloop
endfacet
facet normal 0.028579 -0.290167 0.956549
outer loop
vertex 0.000000 -0.013071 0.065713
vertex 0.000000 -0.025640 0.061900
vertex 0.005002 -0.025147 0.061900
endloop
endfacet
facet normal 0.046377 -0.470889 0.880972
outer loop
vertex 0.007262 -0.036508 0.055708
vertex 0.005002 -0.025147 0.061900
vertex 0.000000 -0.025640 0.061900
endloop
endfacet
facet normal 0.046379 -0.470889 0.880972
outer loop
vertex 0.000000 -0.025640 0.061900
vertex 0.000000 -0.037223 0.055708
vertex 0.007262 -0.036508 0.055708
endloop
endfacet
facet normal -0.097550 -0.990438 0.097551
outer loop
vertex 0.000000 -0.067000 0.000000
vertex 0.000000 -0.065713 0.013071
vertex -0.012820 -0.064450 0.013071
endloop
endfacet
facet normal -0.097550 -0.990438 0.097550
outer loop
vertex -0.012820 -0.064450 0.013071
vertex -0.013071 -0.065713 0.000000
vertex 0.000000 -0.067000 0.000000
endloop
endfacet
facet normal -0.028577 -0.290167 0.956549
outer loop
vertex 0.000000 -0.025640 0.061900
vertex 0.000000 -0.013071 0.065713
vertex -0.002550 -0.012820 0.065713
endloop
endfacet
facet normal -0.028579 -0.290166 0.956549
outer loop
vertex -0.002550 -0.012820 0.065713
vertex -0.005002 -0.025147 0.061900
vertex 0.000000 -0.025640 0.061900
endloop
endfacet
facet normal -0.046379 -0.470889 0.880972
outer loop
vertex 0.000000 -0.037223 0.055708
vertex 0.000000 -0.025640 0.061900
vertex -0.005002 -0.025147 0.061900
endloop
endfacet
facet normal -0.046378 -0.470889 0.880973
outer loop
vertex -0.005002 -0.025147 0.061900
vertex -0.007262 -0.036508 0.055708
vertex 0.000000 -0.037223 0.055708
endloop
endfacet
facet normal -0.062361 -0.633159 0.771506
outer loop
vertex 0.000000 -0.047376 0.047376
vertex 0.000000 -0.037223 0.055708
vertex -0.007262 -0.036508 0.055708
endloop
endfacet
facet normal -0.062361 -0.633159 0.771505
outer loop
vertex -0.007262 -0.036508 0.055708
vertex -0.009243 -0.046466 0.047376
vertex 0.000000 -0.047376 0.047376
endloop
endfacet
facet normal -0.075915 -0.770780 0.632563
outer loop
vertex 0.000000 -0.055708 0.037223
vertex 0.000000 -0.047376 0.047376
vertex -0.009243 -0.046466 0.047376
endloop
endfacet
facet normal -0.075915 -0.770780 0.632562
outer loop
vertex -0.009243 -0.046466 0.047376
vertex -0.010868 -0.054638 0.037223
vertex 0.000000 -0.055708 0.037223
endloop
endfacet
facet normal -0.086536 -0.878613 0.469628
outer loop
vertex 0.000000 -0.061900 0.025640
vertex 0.000000 -0.055708 0.037223
vertex -0.010868 -0.054638 0.037223
endloop
endfacet
facet normal -0.086536 -0.878614 0.469627
outer loop
vertex -0.010868 -0.054638 0.037223
vertex -0.012076 -0.060711 0.025640
vertex 0.000000 -0.061900 0.025640
endloop
endfacet
facet normal -0.093835 -0.952718 0.289005
outer loop
vertex 0.000000 -0.065713 0.013071
vertex 0.000000 -0.061900 0.025640
vertex -0.012076 -0.060711 0.025640
endloop
endfacet
facet normal -0.093835 -0.952718 0.289005
outer loop
vertex -0.012076 -0.060711 0.025640
vertex -0.012820 -0.064450 0.013071
vertex 0.000000 -0.065713 0.013071
endloop
endfacet
facet normal -0.224828 -0.741159 0.632563
outer loop
vertex -0.010868 -0.054638 0.037223
vertex -0.009243 -0.046466 0.047376
vertex -0.018130 -0.043770 0.047376
endloop
endfacet
facet normal -0.224829 -0.741160 0.632562
outer loop
vertex -0.018130 -0.043770 0.047376
vertex -0.021319 -0.051468 0.037223
vertex -0.010868 -0.054638 0.037223
endloop
endfacet
facet normal -0.256283 -0.844849 0.469628
outer loop
vertex -0.012076 -0.060711 0.025640
vertex -0.010868 -0.054638 0.037223
vertex -0.021319 -0.051468 0.037223
endloop
endfacet
facet normal -0.256282 -0.844848 0.469628
outer loop
vertex -0.021319 -0.051468 0.037223
vertex -0.023688 -0.057188 0.025640
vertex -0.012076 -0.060711 0.025640
endloop
endfacet
facet normal -0.277898 -0.916106 0.289004
outer loop
vertex -0.012820 -0.064450 0.013071
vertex -0.012076 -0.060711 0.025640
vertex -0.023688 -0.057188 0.025640
endloop
endfacet
facet normal -0.277898 -0.916106 0.289004
outer loop
vertex -0.023688 -0.057188 0.025640
vertex -0.025147 -0.060711 0.013071
vertex -0.012820 -0.064450 0.013071
endloop
endfacet
facet normal -0.288900 -0.952376 0.097551
outer loop
vertex -0.013071 -0.065713 0.000000
vertex -0.012820 -0.064450 0.013071
vertex -0.025147 -0.060711 0.013071
endloop
endfacet
facet normal -0.288900 -0.952376 0.097552
outer loop
vertex -0.025147 -0.060711 0.013071
vertex -0.025640 -0.061900 0.000000
vertex -0.013071 -0.065713 0.000000
endloop
endfacet
facet normal -0.084640 -0.279015 0.956549
outer loop
vertex -0.005002 -0.025147 0.061900
vertex -0.002550 -0.012820 0.065713
vertex -0.005002 -0.012076 0.065713
endloop
endfacet
facet normal -0.084638 -0.279016 0.956549
outer loop
vertex -0.005002 -0.012076 0.065713
vertex -0.009812 -0.023688 0.061900
vertex -0.005002 -0.025147 0.061900
endloop
endfacet
facet normal -0.137355 -0.452793 0.880972
outer loop
vertex -0.007262 -0.036508 0.055708
vertex -0.005002 -0.025147 0.061900
vertex -0.009812 -0.023688 0.061900
endloop
endfacet
facet normal -0.137353 -0.452793 0.880973
outer loop
vertex -0.009812 -0.023688 0.061900
vertex -0.014245 -0.034390 0.055708
vertex -0.007262 -0.036508 0.055708
endloop
endfacet
facet normal -0.184685 -0.608827 0.771506
outer loop
vertex -0.009243 -0.046466 0.047376
vertex -0.007262 -0.036508 0.055708
vertex -0.014245 -0.034390 0.055708
endloop
endfacet
facet normal -0.184686 -0.608827 0.771505
outer loop
vertex -0.014245 -0.034390 0.055708
vertex -0.018130 -0.043770 0.047376
vertex -0.009243 -0.046466 0.047376
endloop
endfacet
facet normal -0.137446 -0.257142 0.956549
outer loop
vertex -0.009812 -0.023688 0.061900
vertex -0.005002 -0.012076 0.065713
vertex -0.007262 -0.010868 0.065713
endloop
endfacet
facet normal -0.137446 -0.257142 0.956549
outer loop
vertex -0.007262 -0.010868 0.065713
vertex -0.014245 -0.021319 0.061900
vertex -0.009812 -0.023688 0.061900
endloop
endfacet
facet normal -0.223049 -0.417297 0.880973
outer loop
vertex -0.014245 -0.034390 0.055708
vertex -0.009812 -0.023688 0.061900
vertex -0.014245 -0.021319 0.061900
endloop
endfacet
facet normal -0.223050 -0.417297 0.880972
outer loop
vertex -0.014245 -0.021319 0.061900
vertex -0.020680 -0.030950 0.055708
vertex -0.014245 -0.034390 0.055708
endloop
endfacet
facet normal -0.299914 -0.561098 0.771506
outer loop
vertex -0.018130 -0.043770 0.047376
vertex -0.014245 -0.034390 0.055708
vertex -0.020680 -0.030950 0.055708
endloop
endfacet
facet normal -0.299913 -0.561098 0.771506
outer loop
vertex -0.020680 -0.030950 0.055708
vertex -0.026321 -0.039392 0.047376
vertex -0.018130 -0.043770 0.047376
endloop
endfacet
facet normal -0.365102 -0.683056 0.632562
outer loop
vertex -0.021319 -0.051468 0.037223
vertex -0.018130 -0.043770 0.047376
vertex -0.026321 -0.039392 0.047376
endloop
endfacet
facet normal -0.365101 -0.683056 0.632562
outer loop
vertex -0.026321 -0.039392 0.047376
vertex -0.030950 -0.046320 0.037223
vertex -0.021319 -0.051468 0.037223
endloop
endfacet
facet normal -0.416180 -0.778617 0.469628
outer loop
vertex -0.023688 -0.057188 0.025640
vertex -0.021319 -0.051468 0.037223
vertex -0.030950 -0.046320 0.037223
endloop
endfacet
facet normal -0.416180 -0.778617 0.469627
outer loop
vertex -0.030950 -0.046320 0.037223
vertex -0.034390 -0.051468 0.025640
vertex -0.023688 -0.057188 0.025640
endloop
endfacet
facet normal -0.451282 -0.844288 0.289005
outer loop
vertex -0.025147 -0.060711 0.013071
vertex -0.023688 -0.057188 0.025640
vertex -0.034390 -0.051468 0.025640
endloop
endfacet
facet normal -0.451281 -0.844288 0.289005
outer loop
vertex -0.034390 -0.051468 0.025640
vertex -0.036508 -0.054638 0.013071
vertex -0.025147 -0.060711 0.013071
endloop
endfacet
facet normal -0.469149 -0.877715 0.097551
outer loop
vertex -0.025640 -0.061900 0.000000
vertex -0.025147 -0.060711 0.013071
vertex -0.036508 -0.054638 0.013071
endloop
endfacet
facet normal -0.469148 -0.877715 0.097552
outer loop
vertex -0.036508 -0.054638 0.013071
vertex -0.037223 -0.055708 0.000000
vertex -0.025640 -0.061900 0.000000
endloop
endfacet
facet normal -0.491344 -0.598704 0.632562
outer loop
vertex -0.030950 -0.046320 0.037223
vertex -0.026321 -0.039392 0.047376
vertex -0.033500 -0.033500 0.047376
endloop
endfacet
facet normal -0.491344 -0.598704 0.632562
outer loop
vertex -0.033500 -0.033500 0.047376
vertex -0.039392 -0.039392 0.037223
vertex -0.030950 -0.046320 0.037223
endloop
endfacet
facet normal -0.560084 -0.682463 0.469627
outer loop
vertex -0.034390 -0.051468 0.025640
vertex -0.030950 -0.046320 0.037223
vertex -0.039392 -0.039392 0.037223
endloop
endfacet
facet normal -0.560083 -0.682464 0.469628
outer loop
vertex -0.039392 -0.039392 0.037223
vertex -0.043770 -0.043770 0.025640
vertex -0.034390 -0.051468 0.025640
endloop
endfacet
facet normal -0.607322 -0.740024 0.289005
outer loop
vertex -0.036508 -0.054638 0.013071
vertex -0.034390 -0.051468 0.025640
vertex -0.043770 -0.043770 0.025640
endloop
endfacet
facet normal -0.607322 -0.740025 0.289004
outer loop
vertex -0.043770 -0.043770 0.025640
vertex -0.046466 -0.046466 0.013071
vertex -0.036508 -0.054638 0.013071
endloop
endfacet
facet normal -0.631368 -0.769324 0.097551
outer loop
vertex -0.037223 -0.055708 0.000000
vertex -0.036508 -0.054638 0.013071
vertex -0.046466 -0.046466 0.013071
endloop
endfacet
facet normal -0.631367 -0.769324 0.097552
outer loop
vertex -0.046466 -0.046466 0.013071
vertex -0.047376 -0.047376 0.000000
vertex -0.037223 -0.055708 0.000000
endloop
endfacet
facet normal -0.184970 -0.225387 0.956549
outer loop
vertex -0.014245 -0.021319 0.061900
vertex -0.007262 -0.010868 0.065713
vertex -0.009243 -0.009243 0.065713
endloop
endfacet
facet normal -0.184970 -0.225387 0.956549
outer loop
vertex -0.009243 -0.009243 0.065713
vertex -0.018130 -0.018130 0.061900
vertex -0.014245 -0.021319 0.061900
endloop
endfacet
facet normal -0.300175 -0.365763 0.880972
outer loop
vertex -0.020680 -0.030950 0.055708
vertex -0.014245 -0.021319 0.061900
vertex -0.018130 -0.018130 0.061900
endloop
endfacet
facet normal -0.300174 -0.365763 0.880973
outer loop
vertex -0.018130 -0.018130 0.061900
vertex -0.026321 -0.026321 0.055708
vertex -0.020680 -0.030950 0.055708
endloop
endfacet
facet normal -0.403615 -0.491807 0.771506
outer loop
vertex -0.026321 -0.039392 0.047376
vertex -0.020680 -0.030950 0.055708
vertex -0.026321 -0.026321 0.055708
endloop
endfacet
facet normal -0.403616 -0.491807 0.771505
outer loop
vertex -0.026321 -0.026321 0.055708
vertex -0.033500 -0.033500 0.047376
vertex -0.026321 -0.039392 0.047376
endloop
endfacet
facet normal -0.225388 -0.184970 0.956549
outer loop
vertex -0.018130 -0.018130 0.061900
vertex -0.009243 -0.009243 0.065713
vertex -0.010868 -0.007262 0.065713
endloop
endfacet
facet normal -0.225386 -0.184970 0.956550
outer loop
vertex -0.010868 -0.007262 0.065713
vertex -0.021319 -0.014245 0.061900
vertex -0.018130 -0.018130 0.061900
endloop
endfacet
facet normal -0.365764 -0.300175 0.880972
outer loop
vertex -0.026321 -0.026321 0.055708
vertex -0.018130 -0.018130 0.061900
vertex -0.021319 -0.014245 0.061900
endloop
endfacet
facet normal -0.365764 -0.300174 0.880972
outer loop
vertex -0.021319 -0.014245 0.061900
vertex -0.030950 -0.020680 0.055708
vertex -0.026321 -0.026321 0.055708
endloop
endfacet
facet normal -0.491806 -0.403615 0.771506
outer loop
vertex -0.033500 -0.033500 0.047376
vertex -0.026321 -0.026321 0.055708
vertex -0.030950 -0.020680 0.055708
endloop
endfacet
facet normal -0.491807 -0.403615 0.771505
outer loop
vertex -0.030950 -0.020680 0.055708
vertex -0.039392 -0.026321 0.047376
vertex -0.033500 -0.033500 0.047376
endloop
endfacet
facet normal -0.598704 -0.491343 0.632562
outer loop
vertex -0.039392 -0.039392 0.037223
vertex -0.033500 -0.033500 0.047376
vertex -0.039392 -0.026321 0.047376
endloop
endfacet
facet normal -0.598704 -0.491343 0.632562
outer loop
vertex -0.039392 -0.026321 0.047376
vertex -0.046320 -0.030950 0.037223
vertex -0.039392 -0.039392 0.037223
endloop
endfacet
facet normal -0.682464 -0.560083 0.469628
outer loop
vertex -0.043770 -0.043770 0.025640
vertex -0.039392 -0.039392 0.037223
vertex -0.046320 -0.030950 0.037223
endloop
endfacet
facet normal -0.682464 -0.560083 0.469628
outer loop
vertex -0.046320 -0.030950 0.037223
vertex -0.051468 -0.034390 0.025640
vertex -0.043770 -0.043770 0.025640
endloop
endfacet
facet normal -0.740024 -0.607322 0.289005
outer loop
vertex -0.046466 -0.046466 0.013071
vertex -0.043770 -0.043770 0.025640
vertex -0.051468 -0.034390 0.025640
endloop
endfacet
facet normal -0.740025 -0.607322 0.289005
outer loop
vertex -0.051468 -0.034390 0.025640
vertex -0.054638 -0.036508 0.013071
vertex -0.046466 -0.046466 0.013071
endloop
endfacet
facet normal -0.769324 -0.631368 0.097551
outer loop
vertex -0.047376 -0.047376 0.000000
vertex -0.046466 -0.046466 0.013071
vertex -0.054638 -0.036508 0.013071
endloop
endfacet
facet normal -0.769324 -0.631367 0.097552
outer loop
vertex -0.054638 -0.036508 0.013071
vertex -0.055708 -0.037223 0.000000
vertex -0.047376 -0.047376 0.000000
endloop
endfacet
facet normal -0.778617 -0.416179 0.469628
outer loop
vertex -0.051468 -0.034390 0.025640
vertex -0.046320 -0.030950 0.037223
vertex -0.051468 -0.021319 0.037223
endloop
endfacet
facet normal -0.778617 -0.416180 0.469628
outer loop
vertex -0.051468 -0.021319 0.037223
vertex -0.057188 -0.023688 0.025640
vertex -0.051468 -0.034390 0.025640
endloop
endfacet
facet normal -0.844288 -0.451281 0.289004
outer loop
vertex -0.054638 -0.036508 0.013071
vertex -0.051468 -0.034390 0.025640
vertex -0.057188 -0.023688 0.025640
endloop
endfacet
facet normal -0.844288 -0.451281 0.289004
outer loop
vertex -0.057188 -0.023688 0.025640
vertex -0.060711 -0.025147 0.013071
vertex -0.054638 -0.036508 0.013071
endloop
endfacet
facet normal -0.877715 -0.469149 0.097551
outer loop
vertex -0.055708 -0.037223 0.000000
vertex -0.054638 -0.036508 0.013071
vertex -0.060711 -0.025147 0.013071
endloop
endfacet
facet normal -0.877715 -0.469148 0.097551
outer loop
vertex -0.060711 -0.025147 0.013071
vertex -0.061900 -0.025640 0.000000
vertex -0.055708 -0.037223 0.000000
endloop
endfacet
facet normal -0.257142 -0.137445 0.956549
outer loop
vertex -0.021319 -0.014245 0.061900
vertex -0.010868 -0.007262 0.065713
vertex -0.012076 -0.005002 0.065713
endloop
endfacet
facet normal -0.257143 -0.137446 0.956549
outer loop
vertex -0.012076 -0.005002 0.065713
vertex -0.023688 -0.009812 0.061900
vertex -0.021319 -0.014245 0.061900
endloop
endfacet
facet normal -0.417297 -0.223050 0.880972
outer loop
vertex -0.030950 -0.020680 0.055708
vertex -0.021319 -0.014245 0.061900
vertex -0.023688 -0.009812 0.061900
endloop
endfacet
facet normal -0.417296 -0.223050 0.880973
outer loop
vertex -0.023688 -0.009812 0.061900
vertex -0.034390 -0.014245 0.055708
vertex -0.030950 -0.020680 0.055708
endloop
endfacet
facet normal -0.561098 -0.299912 0.771506
outer loop
vertex -0.039392 -0.026321 0.047376
vertex -0.030950 -0.020680 0.055708
vertex -0.034390 -0.014245 0.055708
endloop
endfacet
facet normal -0.561099 -0.299913 0.771505
outer loop
vertex -0.034390 -0.014245 0.055708
vertex -0.043770 -0.018130 0.047376
vertex -0.039392 -0.026321 0.047376
endloop
endfacet
facet normal -0.683057 -0.365101 0.632562
outer loop
vertex -0.046320 -0.030950 0.037223
vertex -0.039392 -0.026321 0.047376
vertex -0.043770 -0.018130 0.047376
endloop
endfacet
facet normal -0.683056 -0.365102 0.632563
outer loop
vertex -0.043770 -0.018130 0.047376
vertex -0.051468 -0.021319 0.037223
vertex -0.046320 -0.030950 0.037223
endloop
endfacet
facet normal -0.279014 -0.084638 0.956550
outer loop
vertex -0.023688 -0.009812 0.061900
vertex -0.012076 -0.005002 0.065713
vertex -0.012820 -0.002550 0.065713
endloop
endfacet
facet normal -0.279016 -0.084639 0.956549
outer loop
vertex -0.012820 -0.002550 0.065713
vertex -0.025147 -0.005002 0.061900
vertex -0.023688 -0.009812 0.061900
endloop
endfacet
facet normal -0.452793 -0.137353 0.880972
outer loop
vertex -0.034390 -0.014245 0.055708
vertex -0.023688 -0.009812 0.061900
vertex -0.025147 -0.005002 0.061900
endloop
endfacet
facet normal -0.452793 -0.137353 0.880972
outer loop
vertex -0.025147 -0.005002 0.061900
vertex -0.036508 -0.007262 0.055708
vertex -0.034390 -0.014245 0.055708
endloop
endfacet
facet normal -0.608827 -0.184686 0.771506
outer loop
vertex -0.043770 -0.018130 0.047376
vertex -0.034390 -0.014245 0.055708
vertex -0.036508 -0.007262 0.055708
endloop
endfacet
facet normal -0.608827 -0.184686 0.771505
outer loop
vertex -0.036508 -0.007262 0.055708
vertex -0.046466 -0.009243 0.047376
vertex -0.043770 -0.018130 0.047376
endloop
endfacet
facet normal -0.741160 -0.224828 0.632562
outer loop
vertex -0.051468 -0.021319 0.037223
vertex -0.043770 -0.018130 0.047376
vertex -0.046466 -0.009243 0.047376
endloop
endfacet
facet normal -0.741159 -0.224828 0.632562
outer loop
vertex -0.046466 -0.009243 0.047376
vertex -0.054638 -0.010868 0.037223
vertex -0.051468 -0.021319 0.037223
endloop
endfacet
facet normal -0.844848 -0.256282 0.469628
outer loop
vertex -0.057188 -0.023688 0.025640
vertex -0.051468 -0.021319 0.037223
vertex -0.054638 -0.010868 0.037223
endloop
endfacet
facet normal -0.844849 -0.256282 0.469628
outer loop
vertex -0.054638 -0.010868 0.037223
vertex -0.060710 -0.012076 0.025640
vertex -0.057188 -0.023688 0.025640
endloop
endfacet
facet normal -0.916105 -0.277898 0.289004
outer loop
vertex -0.060711 -0.025147 0.013071
vertex -0.057188 -0.023688 0.025640
vertex -0.060710 -0.012076 0.025640
endloop
endfacet
facet normal -0.916106 -0.277897 0.289004
outer loop
vertex -0.060710 -0.012076 0.025640
vertex -0.064450 -0.012820 0.013071
vertex -0.060711 -0.025147 0.013071
endloop
endfacet
facet normal -0.952376 -0.288900 0.097551
outer loop
vertex -0.061900 -0.025640 0.000000
vertex -0.060711 -0.025147 0.013071
vertex -0.064450 -0.012820 0.013071
endloop
endfacet
facet normal -0.952376 -0.288900 0.097551
outer loop
vertex -0.064450 -0.012820 0.013071
vertex -0.065713 -0.013071 0.000000
vertex -0.061900 -0.025640 0.000000
endloop
endfacet
facet normal -0.098012 0.009653 0.995138
outer loop
vertex -0.013071 0.000000 0.065713
vertex 0.000000 -0.000000 0.067000
vertex -0.012820 0.002550 0.065713
endloop
endfacet
facet normal -0.094246 0.028589 0.995138
outer loop
vertex -0.012820 0.002550 0.065713
vertex 0.000000 -0.000000 0.067000
vertex -0.012076 0.005002 0.065713
endloop
endfacet
facet normal -0.086856 0.046426 0.995139
outer loop
vertex -0.012076 0.005002 0.065713
vertex 0.000000 -0.000000 0.067000
vertex -0.010868 0.007262 0.065713
endloop
endfacet
facet normal -0.076130 0.062479 0.995138
outer loop
vertex -0.010868 0.007262 0.065713
vertex 0.000000 -0.000000 0.067000
vertex -0.009243 0.009243 0.065713
endloop
endfacet
facet normal -0.062478 0.076131 0.995138
outer loop
vertex -0.009243 0.009243 0.065713
vertex 0.000000 -0.000000 0.067000
vertex -0.007262 0.010868 0.065713
endloop
endfacet
facet normal -0.046428 0.086857 0.995138
outer loop
vertex -0.007262 0.010868 0.065713
vertex 0.000000 -0.000000 0.067000
vertex -0.005002 0.012076 0.065713
endloop
endfacet
facet normal -0.028587 0.094246 0.995138
outer loop
vertex -0.005002 0.012076 0.065713
vertex 0.000000 -0.000000 0.067000
vertex -0.002550 0.012820 0.065713
endloop
endfacet
facet normal -0.009655 0.098012 0.995138
outer loop
vertex -0.002550 0.012820 0.065713
vertex 0.000000 -0.000000 0.067000
vertex 0.000000 0.013071 0.065713
endloop
endfacet
facet normal 0.009655 0.098012 0.995138
outer loop
vertex 0.000000 0.013071 0.065713
vertex 0.000000 -0.000000 0.067000
vertex 0.002550 0.012820 0.065713
endloop
endfacet
facet normal 0.028587 0.094246 0.995138
outer loop
vertex 0.002550 0.012820 0.065713
vertex 0.000000 -0.000000 0.067000
vertex 0.005002 0.012076 0.065713
endloop
endfacet
facet normal 0.046428 0.086857 0.995138
outer loop
vertex 0.005002 0.012076 0.065713
vertex 0.000000 -0.000000 0.067000
vertex 0.007262 0.010868 0.065713
endloop
endfacet
facet normal 0.062478 0.076131 0.995138
outer loop
vertex 0.007262 0.010868 0.065713
vertex 0.000000 -0.000000 0.067000
vertex 0.009243 0.009243 0.065713
endloop
endfacet
facet normal 0.076132 0.062479 0.995138
outer loop
vertex 0.009243 0.009243 0.065713
vertex 0.000000 -0.000000 0.067000
vertex 0.010868 0.007262 0.065713
endloop
endfacet
facet normal 0.086856 0.046426 0.995138
outer loop
vertex 0.010868 0.007262 0.065713
vertex 0.000000 -0.000000 0.067000
vertex 0.012076 0.005002 0.065713
endloop
endfacet
facet normal 0.094246 0.028589 0.995138
outer loop
vertex 0.012076 0.005002 0.065713
vertex 0.000000 -0.000000 0.067000
vertex 0.012820 0.002550 0.065713
endloop
endfacet
facet normal 0.098012 0.009653 0.995138
outer loop
vertex 0.012820 0.002550 0.065713
vertex 0.000000 -0.000000 0.067000
vertex 0.013071 -0.000000 0.065713
endloop
endfacet
facet normal 0.098013 -0.009653 0.995138
outer loop
vertex 0.013071 -0.000000 0.065713
vertex 0.000000 -0.000000 0.067000
vertex 0.012820 -0.002550 0.065713
endloop
endfacet
facet normal 0.094246 -0.028589 0.995138
outer loop
vertex 0.012820 -0.002550 0.065713
vertex 0.000000 -0.000000 0.067000
vertex 0.012076 -0.005002 0.065713
endloop
endfacet
facet normal 0.086856 -0.046426 0.995138
outer loop
vertex 0.012076 -0.005002 0.065713
vertex 0.000000 -0.000000 0.067000
vertex 0.010868 -0.007262 0.065713
endloop
endfacet
facet normal 0.076134 -0.062479 0.995138
outer loop
vertex 0.010868 -0.007262 0.065713
vertex 0.000000 -0.000000 0.067000
vertex 0.009243 -0.009243 0.065713
endloop
endfacet
facet normal 0.062478 -0.076131 0.995138
outer loop
vertex 0.009243 -0.009243 0.065713
vertex 0.000000 -0.000000 0.067000
vertex 0.007262 -0.010868 0.065713
endloop
endfacet
facet normal 0.046428 -0.086858 0.995138
outer loop
vertex 0.007262 -0.010868 0.065713
vertex 0.000000 -0.000000 0.067000
vertex 0.005002 -0.012076 0.065713
endloop
endfacet
facet normal 0.028591 -0.094246 0.995138
outer loop
vertex 0.005002 -0.012076 0.065713
vertex 0.000000 -0.000000 0.067000
vertex 0.002550 -0.012820 0.065713
endloop
endfacet
facet normal 0.009652 -0.098013 0.995138
outer loop
vertex 0.002550 -0.012820 0.065713
vertex 0.000000 -0.000000 0.067000
vertex 0.000000 -0.013071 0.065713
endloop
endfacet
facet normal -0.009652 -0.098013 0.995138
outer loop
vertex 0.000000 -0.013071 0.065713
vertex 0.000000 -0.000000 0.067000
vertex -0.002550 -0.012820 0.065713
endloop
endfacet
facet normal -0.028591 -0.094246 0.995138
outer loop
vertex -0.002550 -0.012820 0.065713
vertex 0.000000 -0.000000 0.067000
vertex -0.005002 -0.012076 0.065713
endloop
endfacet
facet normal -0.046424 -0.086858 0.995138
outer loop
vertex -0.005002 -0.012076 0.065713
vertex 0.000000 -0.000000 0.067000
vertex -0.007262 -0.010868 0.065713
endloop
endfacet
facet normal -0.062482 -0.076131 0.995138
outer loop
vertex -0.007262 -0.010868 0.065713
vertex 0.000000 -0.000000 0.067000
vertex -0.009243 -0.009243 0.065713
endloop
endfacet
facet normal -0.076132 -0.062479 0.995138
outer loop
vertex -0.009243 -0.009243 0.065713
vertex 0.000000 -0.000000 0.067000
vertex -0.010868 -0.007262 0.065713
endloop
endfacet
facet normal -0.086857 -0.046426 0.995138
outer loop
vertex -0.010868 -0.007262 0.065713
vertex 0.000000 -0.000000 0.067000
vertex -0.012076 -0.005002 0.065713
endloop
endfacet
facet normal -0.094247 -0.028589 0.995138
outer loop
vertex -0.012076 -0.005002 0.065713
vertex 0.000000 -0.000000 0.067000
vertex -0.012820 -0.002550 0.065713
endloop
endfacet
facet normal -0.878613 -0.086538 0.469628
outer loop
vertex -0.060710 -0.012076 0.025640
vertex -0.054638 -0.010868 0.037223
vertex -0.055708 0.000000 0.037223
endloop
endfacet
facet normal -0.878613 -0.086539 0.469628
outer loop
vertex -0.055708 0.000000 0.037223
vertex -0.061900 0.000000 0.025640
vertex -0.060710 -0.012076 0.025640
endloop
endfacet
facet normal -0.952718 -0.093837 0.289004
outer loop
vertex -0.064450 -0.012820 0.013071
vertex -0.060710 -0.012076 0.025640
vertex -0.061900 0.000000 0.025640
endloop
endfacet
facet normal -0.952718 -0.093838 0.289004
outer loop
vertex -0.061900 0.000000 0.025640
vertex -0.065713 0.000000 0.013071
vertex -0.064450 -0.012820 0.013071
endloop
endfacet
facet normal -0.990438 -0.097552 0.097551
outer loop
vertex -0.065713 -0.013071 0.000000
vertex -0.064450 -0.012820 0.013071
vertex -0.065713 0.000000 0.013071
endloop
endfacet
facet normal -0.990438 -0.097552 0.097550
outer loop
vertex -0.065713 0.000000 0.013071
vertex -0.067000 0.000000 0.000000
vertex -0.065713 -0.013071 0.000000
endloop
endfacet
facet normal -0.098012 -0.009654 0.995138
outer loop
vertex -0.012820 -0.002550 0.065713
vertex 0.000000 -0.000000 0.067000
vertex -0.013071 0.000000 0.065713
endloop
endfacet
facet normal -0.290166 -0.028580 0.956549
outer loop
vertex -0.013071 0.000000 0.065713
vertex -0.025640 0.000000 0.061900
vertex -0.025147 -0.005002 0.061900
endloop
endfacet
facet normal -0.290165 -0.028580 0.956550
outer loop
vertex -0.025147 -0.005002 0.061900
vertex -0.012820 -0.002550 0.065713
vertex -0.013071 0.000000 0.065713
endloop
endfacet
facet normal -0.470890 -0.046380 0.880972
outer loop
vertex -0.036508 -0.007262 0.055708
vertex -0.025147 -0.005002 0.061900
vertex -0.025640 0.000000 0.061900
endloop
endfacet
facet normal -0.470889 -0.046380 0.880972
outer loop
vertex -0.025640 0.000000 0.061900
vertex -0.037223 0.000000 0.055708
vertex -0.036508 -0.007262 0.055708
endloop
endfacet
facet normal -0.633158 -0.062362 0.771506
outer loop
vertex -0.046466 -0.009243 0.047376
vertex -0.036508 -0.007262 0.055708
vertex -0.037223 0.000000 0.055708
endloop
endfacet
facet normal -0.633158 -0.062363 0.771506
outer loop
vertex -0.037223 0.000000 0.055708
vertex -0.047376 0.000000 0.047376
vertex -0.046466 -0.009243 0.047376
endloop
endfacet
facet normal -0.770780 -0.075918 0.632562
outer loop
vertex -0.054638 -0.010868 0.037223
vertex -0.046466 -0.009243 0.047376
vertex -0.047376 0.000000 0.047376
endloop
endfacet
facet normal -0.770780 -0.075918 0.632562
outer loop
vertex -0.047376 0.000000 0.047376
vertex -0.055708 0.000000 0.037223
vertex -0.054638 -0.010868 0.037223
endloop
endfacet
endsolid Exported from Blender-2.76 (sub 0)
