solid Exported from Blender-2.76 (sub 0)
facet normal -0.878613 0.086536 0.469628
outer loop
vertex -0.020325 0.000000 0.008419
vertex -0.018292 0.000000 0.012223
vertex -0.017941 0.003569 0.012223
endloop
endfacet
facet normal -0.878613 0.086536 0.469628
outer loop
vertex -0.017941 0.003569 0.012223
vertex -0.019935 0.003965 0.008419
vertex -0.020325 0.000000 0.008419
endloop
endfacet
facet normal -0.952718 0.093834 0.289004
outer loop
vertex -0.021577 0.000000 0.004292
vertex -0.020325 0.000000 0.008419
vertex -0.019935 0.003965 0.008419
endloop
endfacet
facet normal -0.952718 0.093835 0.289004
outer loop
vertex -0.019935 0.003965 0.008419
vertex -0.021163 0.004210 0.004292
vertex -0.021577 0.000000 0.004292
endloop
endfacet
facet normal -0.990438 0.097550 0.097550
outer loop
vertex -0.022000 0.000000 0.000000
vertex -0.021577 0.000000 0.004292
vertex -0.021163 0.004210 0.004292
endloop
endfacet
facet normal -0.990438 0.097549 0.097550
outer loop
vertex -0.021163 0.004210 0.004292
vertex -0.021577 0.004292 0.000000
vertex -0.022000 0.000000 0.000000
endloop
endfacet
facet normal -0.290166 0.028579 0.956549
outer loop
vertex -0.008419 0.000000 0.020325
vertex -0.004292 0.000000 0.021577
vertex -0.004210 0.000837 0.021577
endloop
endfacet
facet normal -0.290166 0.028579 0.956549
outer loop
vertex -0.004210 0.000837 0.021577
vertex -0.008257 0.001642 0.020325
vertex -0.008419 0.000000 0.020325
endloop
endfacet
facet normal -0.470890 0.046378 0.880972
outer loop
vertex -0.012223 0.000000 0.018292
vertex -0.008419 0.000000 0.020325
vertex -0.008257 0.001642 0.020325
endloop
endfacet
facet normal -0.470889 0.046379 0.880972
outer loop
vertex -0.008257 0.001642 0.020325
vertex -0.011988 0.002385 0.018292
vertex -0.012223 0.000000 0.018292
endloop
endfacet
facet normal -0.633158 0.062361 0.771506
outer loop
vertex -0.015556 0.000000 0.015556
vertex -0.012223 0.000000 0.018292
vertex -0.011988 0.002385 0.018292
endloop
endfacet
facet normal -0.633159 0.062361 0.771506
outer loop
vertex -0.011988 0.002385 0.018292
vertex -0.015257 0.003035 0.015556
vertex -0.015556 0.000000 0.015556
endloop
endfacet
facet normal -0.770780 0.075915 0.632563
outer loop
vertex -0.018292 0.000000 0.012223
vertex -0.015556 0.000000 0.015556
vertex -0.015257 0.003035 0.015556
endloop
endfacet
facet normal -0.770780 0.075916 0.632563
outer loop
vertex -0.015257 0.003035 0.015556
vertex -0.017941 0.003569 0.012223
vertex -0.018292 0.000000 0.012223
endloop
endfacet
facet normal -0.741159 0.224828 0.632563
outer loop
vertex -0.017941 0.003569 0.012223
vertex -0.015257 0.003035 0.015556
vertex -0.014372 0.005953 0.015556
endloop
endfacet
facet normal -0.741159 0.224829 0.632562
outer loop
vertex -0.014372 0.005953 0.015556
vertex -0.016900 0.007000 0.012223
vertex -0.017941 0.003569 0.012223
endloop
endfacet
facet normal -0.844848 0.256282 0.469629
outer loop
vertex -0.019935 0.003965 0.008419
vertex -0.017941 0.003569 0.012223
vertex -0.016900 0.007000 0.012223
endloop
endfacet
facet normal -0.844848 0.256283 0.469628
outer loop
vertex -0.016900 0.007000 0.012223
vertex -0.018778 0.007778 0.008419
vertex -0.019935 0.003965 0.008419
endloop
endfacet
facet normal -0.916106 0.277897 0.289004
outer loop
vertex -0.021163 0.004210 0.004292
vertex -0.019935 0.003965 0.008419
vertex -0.018778 0.007778 0.008419
endloop
endfacet
facet normal -0.916105 0.277898 0.289004
outer loop
vertex -0.018778 0.007778 0.008419
vertex -0.019935 0.008257 0.004292
vertex -0.021163 0.004210 0.004292
endloop
endfacet
facet normal -0.952376 0.288900 0.097550
outer loop
vertex -0.021577 0.004292 0.000000
vertex -0.021163 0.004210 0.004292
vertex -0.019935 0.008257 0.004292
endloop
endfacet
facet normal -0.952376 0.288901 0.097550
outer loop
vertex -0.019935 0.008257 0.004292
vertex -0.020325 0.008419 0.000000
vertex -0.021577 0.004292 0.000000
endloop
endfacet
facet normal -0.279016 0.084639 0.956549
outer loop
vertex -0.008257 0.001642 0.020325
vertex -0.004210 0.000837 0.021577
vertex -0.003965 0.001642 0.021577
endloop
endfacet
facet normal -0.279015 0.084638 0.956550
outer loop
vertex -0.003965 0.001642 0.021577
vertex -0.007778 0.003222 0.020325
vertex -0.008257 0.001642 0.020325
endloop
endfacet
facet normal -0.452794 0.137354 0.880972
outer loop
vertex -0.011988 0.002385 0.018292
vertex -0.008257 0.001642 0.020325
vertex -0.007778 0.003222 0.020325
endloop
endfacet
facet normal -0.452794 0.137353 0.880972
outer loop
vertex -0.007778 0.003222 0.020325
vertex -0.011292 0.004677 0.018292
vertex -0.011988 0.002385 0.018292
endloop
endfacet
facet normal -0.608826 0.184685 0.771506
outer loop
vertex -0.015257 0.003035 0.015556
vertex -0.011988 0.002385 0.018292
vertex -0.011292 0.004677 0.018292
endloop
endfacet
facet normal -0.608827 0.184686 0.771505
outer loop
vertex -0.011292 0.004677 0.018292
vertex -0.014372 0.005953 0.015556
vertex -0.015257 0.003035 0.015556
endloop
endfacet
facet normal -0.257142 0.137445 0.956549
outer loop
vertex -0.007778 0.003222 0.020325
vertex -0.003965 0.001642 0.021577
vertex -0.003569 0.002385 0.021577
endloop
endfacet
facet normal -0.257141 0.137445 0.956550
outer loop
vertex -0.003569 0.002385 0.021577
vertex -0.007000 0.004677 0.020325
vertex -0.007778 0.003222 0.020325
endloop
endfacet
facet normal -0.417297 0.223050 0.880972
outer loop
vertex -0.011292 0.004677 0.018292
vertex -0.007778 0.003222 0.020325
vertex -0.007000 0.004677 0.020325
endloop
endfacet
facet normal -0.417296 0.223050 0.880972
outer loop
vertex -0.007000 0.004677 0.020325
vertex -0.010163 0.006790 0.018292
vertex -0.011292 0.004677 0.018292
endloop
endfacet
facet normal -0.561097 0.299913 0.771506
outer loop
vertex -0.014372 0.005953 0.015556
vertex -0.011292 0.004677 0.018292
vertex -0.010163 0.006790 0.018292
endloop
endfacet
facet normal -0.561098 0.299913 0.771505
outer loop
vertex -0.010163 0.006790 0.018292
vertex -0.012935 0.008643 0.015556
vertex -0.014372 0.005953 0.015556
endloop
endfacet
facet normal -0.683056 0.365100 0.632563
outer loop
vertex -0.016900 0.007000 0.012223
vertex -0.014372 0.005953 0.015556
vertex -0.012935 0.008643 0.015556
endloop
endfacet
facet normal -0.683056 0.365101 0.632562
outer loop
vertex -0.012935 0.008643 0.015556
vertex -0.015210 0.010163 0.012223
vertex -0.016900 0.007000 0.012223
endloop
endfacet
facet normal -0.778617 0.416179 0.469629
outer loop
vertex -0.018778 0.007778 0.008419
vertex -0.016900 0.007000 0.012223
vertex -0.015210 0.010163 0.012223
endloop
endfacet
facet normal -0.778617 0.416180 0.469628
outer loop
vertex -0.015210 0.010163 0.012223
vertex -0.016900 0.011292 0.008419
vertex -0.018778 0.007778 0.008419
endloop
endfacet
facet normal -0.844288 0.451281 0.289004
outer loop
vertex -0.019935 0.008257 0.004292
vertex -0.018778 0.007778 0.008419
vertex -0.016900 0.011292 0.008419
endloop
endfacet
facet normal -0.844288 0.451281 0.289004
outer loop
vertex -0.016900 0.011292 0.008419
vertex -0.017941 0.011988 0.004292
vertex -0.019935 0.008257 0.004292
endloop
endfacet
facet normal -0.877715 0.469149 0.097550
outer loop
vertex -0.020325 0.008419 0.000000
vertex -0.019935 0.008257 0.004292
vertex -0.017941 0.011988 0.004292
endloop
endfacet
facet normal -0.877715 0.469149 0.097550
outer loop
vertex -0.017941 0.011988 0.004292
vertex -0.018292 0.012223 0.000000
vertex -0.020325 0.008419 0.000000
endloop
endfacet
facet normal -0.682463 0.560083 0.469629
outer loop
vertex -0.016900 0.011292 0.008419
vertex -0.015210 0.010163 0.012223
vertex -0.012935 0.012935 0.012223
endloop
endfacet
facet normal -0.682463 0.560083 0.469628
outer loop
vertex -0.012935 0.012935 0.012223
vertex -0.014372 0.014372 0.008419
vertex -0.016900 0.011292 0.008419
endloop
endfacet
facet normal -0.740024 0.607323 0.289004
outer loop
vertex -0.017941 0.011988 0.004292
vertex -0.016900 0.011292 0.008419
vertex -0.014372 0.014372 0.008419
endloop
endfacet
facet normal -0.740025 0.607322 0.289004
outer loop
vertex -0.014372 0.014372 0.008419
vertex -0.015257 0.015257 0.004292
vertex -0.017941 0.011988 0.004292
endloop
endfacet
facet normal -0.769324 0.631367 0.097550
outer loop
vertex -0.018292 0.012223 0.000000
vertex -0.017941 0.011988 0.004292
vertex -0.015257 0.015257 0.004292
endloop
endfacet
facet normal -0.769323 0.631368 0.097550
outer loop
vertex -0.015257 0.015257 0.004292
vertex -0.015556 0.015556 0.000000
vertex -0.018292 0.012223 0.000000
endloop
endfacet
facet normal -0.225388 0.184970 0.956549
outer loop
vertex -0.007000 0.004677 0.020325
vertex -0.003569 0.002385 0.021577
vertex -0.003035 0.003035 0.021577
endloop
endfacet
facet normal -0.225386 0.184970 0.956550
outer loop
vertex -0.003035 0.003035 0.021577
vertex -0.005953 0.005953 0.020325
vertex -0.007000 0.004677 0.020325
endloop
endfacet
facet normal -0.365764 0.300175 0.880972
outer loop
vertex -0.010163 0.006790 0.018292
vertex -0.007000 0.004677 0.020325
vertex -0.005953 0.005953 0.020325
endloop
endfacet
facet normal -0.365764 0.300175 0.880972
outer loop
vertex -0.005953 0.005953 0.020325
vertex -0.008643 0.008643 0.018292
vertex -0.010163 0.006790 0.018292
endloop
endfacet
facet normal -0.491806 0.403615 0.771506
outer loop
vertex -0.012935 0.008643 0.015556
vertex -0.010163 0.006790 0.018292
vertex -0.008643 0.008643 0.018292
endloop
endfacet
facet normal -0.491807 0.403615 0.771506
outer loop
vertex -0.008643 0.008643 0.018292
vertex -0.011000 0.011000 0.015556
vertex -0.012935 0.008643 0.015556
endloop
endfacet
facet normal -0.598704 0.491343 0.632563
outer loop
vertex -0.015210 0.010163 0.012223
vertex -0.012935 0.008643 0.015556
vertex -0.011000 0.011000 0.015556
endloop
endfacet
facet normal -0.598704 0.491343 0.632562
outer loop
vertex -0.011000 0.011000 0.015556
vertex -0.012935 0.012935 0.012223
vertex -0.015210 0.010163 0.012223
endloop
endfacet
facet normal -0.184971 0.225387 0.956549
outer loop
vertex -0.005953 0.005953 0.020325
vertex -0.003035 0.003035 0.021577
vertex -0.002384 0.003569 0.021577
endloop
endfacet
facet normal -0.184971 0.225387 0.956549
outer loop
vertex -0.002384 0.003569 0.021577
vertex -0.004677 0.007000 0.020325
vertex -0.005953 0.005953 0.020325
endloop
endfacet
facet normal -0.300175 0.365764 0.880972
outer loop
vertex -0.008643 0.008643 0.018292
vertex -0.005953 0.005953 0.020325
vertex -0.004677 0.007000 0.020325
endloop
endfacet
facet normal -0.300174 0.365764 0.880972
outer loop
vertex -0.004677 0.007000 0.020325
vertex -0.006790 0.010163 0.018292
vertex -0.008643 0.008643 0.018292
endloop
endfacet
facet normal -0.403614 0.491806 0.771506
outer loop
vertex -0.011000 0.011000 0.015556
vertex -0.008643 0.008643 0.018292
vertex -0.006790 0.010163 0.018292
endloop
endfacet
facet normal -0.403615 0.491807 0.771506
outer loop
vertex -0.006790 0.010163 0.018292
vertex -0.008643 0.012935 0.015556
vertex -0.011000 0.011000 0.015556
endloop
endfacet
facet normal -0.491344 0.598704 0.632562
outer loop
vertex -0.012935 0.012935 0.012223
vertex -0.011000 0.011000 0.015556
vertex -0.008643 0.012935 0.015556
endloop
endfacet
facet normal -0.491344 0.598703 0.632563
outer loop
vertex -0.008643 0.012935 0.015556
vertex -0.010163 0.015210 0.012223
vertex -0.012935 0.012935 0.012223
endloop
endfacet
facet normal -0.560083 0.682463 0.469628
outer loop
vertex -0.014372 0.014372 0.008419
vertex -0.012935 0.012935 0.012223
vertex -0.010163 0.015210 0.012223
endloop
endfacet
facet normal -0.560083 0.682463 0.469628
outer loop
vertex -0.010163 0.015210 0.012223
vertex -0.011292 0.016900 0.008419
vertex -0.014372 0.014372 0.008419
endloop
endfacet
facet normal -0.607322 0.740025 0.289004
outer loop
vertex -0.015257 0.015257 0.004292
vertex -0.014372 0.014372 0.008419
vertex -0.011292 0.016900 0.008419
endloop
endfacet
facet normal -0.607322 0.740025 0.289003
outer loop
vertex -0.011292 0.016900 0.008419
vertex -0.011988 0.017941 0.004292
vertex -0.015257 0.015257 0.004292
endloop
endfacet
facet normal -0.631368 0.769324 0.097550
outer loop
vertex -0.015556 0.015556 0.000000
vertex -0.015257 0.015257 0.004292
vertex -0.011988 0.017941 0.004292
endloop
endfacet
facet normal -0.631368 0.769324 0.097549
outer loop
vertex -0.011988 0.017941 0.004292
vertex -0.012223 0.018292 0.000000
vertex -0.015556 0.015556 0.000000
endloop
endfacet
facet normal -0.416179 0.778617 0.469629
outer loop
vertex -0.011292 0.016900 0.008419
vertex -0.010163 0.015210 0.012223
vertex -0.007000 0.016900 0.012223
endloop
endfacet
facet normal -0.416179 0.778617 0.469628
outer loop
vertex -0.007000 0.016900 0.012223
vertex -0.007778 0.018778 0.008419
vertex -0.011292 0.016900 0.008419
endloop
endfacet
facet normal -0.451281 0.844288 0.289003
outer loop
vertex -0.011988 0.017941 0.004292
vertex -0.011292 0.016900 0.008419
vertex -0.007778 0.018778 0.008419
endloop
endfacet
facet normal -0.451281 0.844288 0.289005
outer loop
vertex -0.007778 0.018778 0.008419
vertex -0.008257 0.019935 0.004292
vertex -0.011988 0.017941 0.004292
endloop
endfacet
facet normal -0.469148 0.877715 0.097550
outer loop
vertex -0.012223 0.018292 0.000000
vertex -0.011988 0.017941 0.004292
vertex -0.008257 0.019935 0.004292
endloop
endfacet
facet normal -0.469148 0.877715 0.097549
outer loop
vertex -0.008257 0.019935 0.004292
vertex -0.008419 0.020325 0.000000
vertex -0.012223 0.018292 0.000000
endloop
endfacet
facet normal -0.137445 0.257142 0.956550
outer loop
vertex -0.004677 0.007000 0.020325
vertex -0.002384 0.003569 0.021577
vertex -0.001642 0.003965 0.021577
endloop
endfacet
facet normal -0.137444 0.257142 0.956550
outer loop
vertex -0.001642 0.003965 0.021577
vertex -0.003222 0.007778 0.020325
vertex -0.004677 0.007000 0.020325
endloop
endfacet
facet normal -0.223050 0.417297 0.880972
outer loop
vertex -0.006790 0.010163 0.018292
vertex -0.004677 0.007000 0.020325
vertex -0.003222 0.007778 0.020325
endloop
endfacet
facet normal -0.223050 0.417297 0.880972
outer loop
vertex -0.003222 0.007778 0.020325
vertex -0.004677 0.011292 0.018292
vertex -0.006790 0.010163 0.018292
endloop
endfacet
facet normal -0.299913 0.561098 0.771506
outer loop
vertex -0.008643 0.012935 0.015556
vertex -0.006790 0.010163 0.018292
vertex -0.004677 0.011292 0.018292
endloop
endfacet
facet normal -0.299914 0.561098 0.771506
outer loop
vertex -0.004677 0.011292 0.018292
vertex -0.005953 0.014372 0.015556
vertex -0.008643 0.012935 0.015556
endloop
endfacet
facet normal -0.365101 0.683056 0.632562
outer loop
vertex -0.010163 0.015210 0.012223
vertex -0.008643 0.012935 0.015556
vertex -0.005953 0.014372 0.015556
endloop
endfacet
facet normal -0.365101 0.683056 0.632562
outer loop
vertex -0.005953 0.014372 0.015556
vertex -0.007000 0.016900 0.012223
vertex -0.010163 0.015210 0.012223
endloop
endfacet
facet normal -0.137354 0.452794 0.880972
outer loop
vertex -0.004677 0.011292 0.018292
vertex -0.003222 0.007778 0.020325
vertex -0.001642 0.008257 0.020325
endloop
endfacet
facet normal -0.137353 0.452793 0.880972
outer loop
vertex -0.001642 0.008257 0.020325
vertex -0.002384 0.011988 0.018292
vertex -0.004677 0.011292 0.018292
endloop
endfacet
facet normal -0.184686 0.608827 0.771506
outer loop
vertex -0.005953 0.014372 0.015556
vertex -0.004677 0.011292 0.018292
vertex -0.002384 0.011988 0.018292
endloop
endfacet
facet normal -0.184685 0.608827 0.771506
outer loop
vertex -0.002384 0.011988 0.018292
vertex -0.003035 0.015257 0.015556
vertex -0.005953 0.014372 0.015556
endloop
endfacet
facet normal -0.224828 0.741159 0.632563
outer loop
vertex -0.007000 0.016900 0.012223
vertex -0.005953 0.014372 0.015556
vertex -0.003035 0.015257 0.015556
endloop
endfacet
facet normal -0.224828 0.741159 0.632562
outer loop
vertex -0.003035 0.015257 0.015556
vertex -0.003569 0.017941 0.012223
vertex -0.007000 0.016900 0.012223
endloop
endfacet
facet normal -0.256282 0.844848 0.469628
outer loop
vertex -0.007778 0.018778 0.008419
vertex -0.007000 0.016900 0.012223
vertex -0.003569 0.017941 0.012223
endloop
endfacet
facet normal -0.256282 0.844849 0.469628
outer loop
vertex -0.003569 0.017941 0.012223
vertex -0.003965 0.019935 0.008419
vertex -0.007778 0.018778 0.008419
endloop
endfacet
facet normal -0.277897 0.916106 0.289004
outer loop
vertex -0.008257 0.019935 0.004292
vertex -0.007778 0.018778 0.008419
vertex -0.003965 0.019935 0.008419
endloop
endfacet
facet normal -0.277897 0.916106 0.289005
outer loop
vertex -0.003965 0.019935 0.008419
vertex -0.004210 0.021163 0.004292
vertex -0.008257 0.019935 0.004292
endloop
endfacet
facet normal -0.288900 0.952376 0.097549
outer loop
vertex -0.008419 0.020325 0.000000
vertex -0.008257 0.019935 0.004292
vertex -0.004210 0.021163 0.004292
endloop
endfacet
facet normal -0.288900 0.952376 0.097549
outer loop
vertex -0.004210 0.021163 0.004292
vertex -0.004292 0.021577 0.000000
vertex -0.008419 0.020325 0.000000
endloop
endfacet
facet normal -0.084640 0.279015 0.956549
outer loop
vertex -0.003222 0.007778 0.020325
vertex -0.001642 0.003965 0.021577
vertex -0.000837 0.004210 0.021577
endloop
endfacet
facet normal -0.084638 0.279015 0.956549
outer loop
vertex -0.000837 0.004210 0.021577
vertex -0.001642 0.008257 0.020325
vertex -0.003222 0.007778 0.020325
endloop
endfacet
facet normal -0.093835 0.952718 0.289005
outer loop
vertex -0.004210 0.021163 0.004292
vertex -0.003965 0.019935 0.008419
vertex 0.000000 0.020325 0.008419
endloop
endfacet
facet normal -0.093834 0.952718 0.289003
outer loop
vertex 0.000000 0.020325 0.008419
vertex 0.000000 0.021577 0.004292
vertex -0.004210 0.021163 0.004292
endloop
endfacet
facet normal -0.097549 0.990438 0.097550
outer loop
vertex -0.004292 0.021577 0.000000
vertex -0.004210 0.021163 0.004292
vertex 0.000000 0.021577 0.004292
endloop
endfacet
facet normal -0.097550 0.990438 0.097550
outer loop
vertex 0.000000 0.021577 0.004292
vertex 0.000000 0.022000 0.000000
vertex -0.004292 0.021577 0.000000
endloop
endfacet
facet normal -0.028578 0.290166 0.956550
outer loop
vertex -0.001642 0.008257 0.020325
vertex -0.000837 0.004210 0.021577
vertex 0.000000 0.004292 0.021577
endloop
endfacet
facet normal -0.028578 0.290166 0.956550
outer loop
vertex 0.000000 0.004292 0.021577
vertex 0.000000 0.008419 0.020325
vertex -0.001642 0.008257 0.020325
endloop
endfacet
facet normal -0.046378 0.470890 0.880972
outer loop
vertex -0.002384 0.011988 0.018292
vertex -0.001642 0.008257 0.020325
vertex 0.000000 0.008419 0.020325
endloop
endfacet
facet normal -0.046379 0.470889 0.880972
outer loop
vertex 0.000000 0.008419 0.020325
vertex 0.000000 0.012223 0.018292
vertex -0.002384 0.011988 0.018292
endloop
endfacet
facet normal -0.062361 0.633159 0.771505
outer loop
vertex -0.003035 0.015257 0.015556
vertex -0.002384 0.011988 0.018292
vertex 0.000000 0.012223 0.018292
endloop
endfacet
facet normal -0.062361 0.633159 0.771506
outer loop
vertex 0.000000 0.012223 0.018292
vertex 0.000000 0.015556 0.015556
vertex -0.003035 0.015257 0.015556
endloop
endfacet
facet normal -0.075915 0.770780 0.632563
outer loop
vertex -0.003569 0.017941 0.012223
vertex -0.003035 0.015257 0.015556
vertex 0.000000 0.015556 0.015556
endloop
endfacet
facet normal -0.075915 0.770779 0.632563
outer loop
vertex 0.000000 0.015556 0.015556
vertex 0.000000 0.018292 0.012223
vertex -0.003569 0.017941 0.012223
endloop
endfacet
facet normal -0.086536 0.878614 0.469627
outer loop
vertex -0.003965 0.019935 0.008419
vertex -0.003569 0.017941 0.012223
vertex 0.000000 0.018292 0.012223
endloop
endfacet
facet normal -0.086536 0.878613 0.469628
outer loop
vertex 0.000000 0.018292 0.012223
vertex 0.000000 0.020325 0.008419
vertex -0.003965 0.019935 0.008419
endloop
endfacet
facet normal 0.046378 0.470890 0.880972
outer loop
vertex 0.000000 0.012223 0.018292
vertex 0.000000 0.008419 0.020325
vertex 0.001642 0.008257 0.020325
endloop
endfacet
facet normal 0.046379 0.470890 0.880972
outer loop
vertex 0.001642 0.008257 0.020325
vertex 0.002385 0.011988 0.018292
vertex 0.000000 0.012223 0.018292
endloop
endfacet
facet normal 0.062361 0.633159 0.771505
outer loop
vertex 0.000000 0.015556 0.015556
vertex 0.000000 0.012223 0.018292
vertex 0.002385 0.011988 0.018292
endloop
endfacet
facet normal 0.062361 0.633159 0.771506
outer loop
vertex 0.002385 0.011988 0.018292
vertex 0.003035 0.015257 0.015556
vertex 0.000000 0.015556 0.015556
endloop
endfacet
facet normal 0.075916 0.770780 0.632563
outer loop
vertex 0.000000 0.018292 0.012223
vertex 0.000000 0.015556 0.015556
vertex 0.003035 0.015257 0.015556
endloop
endfacet
facet normal 0.075915 0.770780 0.632563
outer loop
vertex 0.003035 0.015257 0.015556
vertex 0.003569 0.017941 0.012223
vertex 0.000000 0.018292 0.012223
endloop
endfacet
facet normal 0.086536 0.878613 0.469628
outer loop
vertex 0.000000 0.020325 0.008419
vertex 0.000000 0.018292 0.012223
vertex 0.003569 0.017941 0.012223
endloop
endfacet
facet normal 0.086536 0.878613 0.469628
outer loop
vertex 0.003569 0.017941 0.012223
vertex 0.003965 0.019935 0.008419
vertex 0.000000 0.020325 0.008419
endloop
endfacet
facet normal 0.093835 0.952718 0.289005
outer loop
vertex 0.000000 0.021577 0.004292
vertex 0.000000 0.020325 0.008419
vertex 0.003965 0.019935 0.008419
endloop
endfacet
facet normal 0.093835 0.952718 0.289004
outer loop
vertex 0.003965 0.019935 0.008419
vertex 0.004210 0.021163 0.004292
vertex 0.000000 0.021577 0.004292
endloop
endfacet
facet normal 0.097550 0.990438 0.097550
outer loop
vertex 0.000000 0.022000 0.000000
vertex 0.000000 0.021577 0.004292
vertex 0.004210 0.021163 0.004292
endloop
endfacet
facet normal 0.097550 0.990438 0.097549
outer loop
vertex 0.004210 0.021163 0.004292
vertex 0.004292 0.021577 0.000000
vertex 0.000000 0.022000 0.000000
endloop
endfacet
facet normal 0.028580 0.290166 0.956549
outer loop
vertex 0.000000 0.008419 0.020325
vertex 0.000000 0.004292 0.021577
vertex 0.000837 0.004210 0.021577
endloop
endfacet
facet normal 0.028578 0.290166 0.956550
outer loop
vertex 0.000837 0.004210 0.021577
vertex 0.001642 0.008257 0.020325
vertex 0.000000 0.008419 0.020325
endloop
endfacet
facet normal 0.277898 0.916106 0.289004
outer loop
vertex 0.004210 0.021163 0.004292
vertex 0.003965 0.019935 0.008419
vertex 0.007778 0.018778 0.008419
endloop
endfacet
facet normal 0.277898 0.916106 0.289004
outer loop
vertex 0.007778 0.018778 0.008419
vertex 0.008257 0.019935 0.004292
vertex 0.004210 0.021163 0.004292
endloop
endfacet
facet normal 0.288901 0.952376 0.097550
outer loop
vertex 0.004292 0.021577 0.000000
vertex 0.004210 0.021163 0.004292
vertex 0.008257 0.019935 0.004292
endloop
endfacet
facet normal 0.288901 0.952376 0.097549
outer loop
vertex 0.008257 0.019935 0.004292
vertex 0.008419 0.020325 0.000000
vertex 0.004292 0.021577 0.000000
endloop
endfacet
facet normal 0.084637 0.279015 0.956550
outer loop
vertex 0.001642 0.008257 0.020325
vertex 0.000837 0.004210 0.021577
vertex 0.001642 0.003965 0.021577
endloop
endfacet
facet normal 0.084639 0.279015 0.956549
outer loop
vertex 0.001642 0.003965 0.021577
vertex 0.003222 0.007778 0.020325
vertex 0.001642 0.008257 0.020325
endloop
endfacet
facet normal 0.137353 0.452794 0.880972
outer loop
vertex 0.002385 0.011988 0.018292
vertex 0.001642 0.008257 0.020325
vertex 0.003222 0.007778 0.020325
endloop
endfacet
facet normal 0.137354 0.452793 0.880972
outer loop
vertex 0.003222 0.007778 0.020325
vertex 0.004677 0.011292 0.018292
vertex 0.002385 0.011988 0.018292
endloop
endfacet
facet normal 0.184685 0.608827 0.771505
outer loop
vertex 0.003035 0.015257 0.015556
vertex 0.002385 0.011988 0.018292
vertex 0.004677 0.011292 0.018292
endloop
endfacet
facet normal 0.184686 0.608827 0.771505
outer loop
vertex 0.004677 0.011292 0.018292
vertex 0.005953 0.014372 0.015556
vertex 0.003035 0.015257 0.015556
endloop
endfacet
facet normal 0.224828 0.741159 0.632563
outer loop
vertex 0.003569 0.017941 0.012223
vertex 0.003035 0.015257 0.015556
vertex 0.005953 0.014372 0.015556
endloop
endfacet
facet normal 0.224829 0.741159 0.632562
outer loop
vertex 0.005953 0.014372 0.015556
vertex 0.007000 0.016900 0.012223
vertex 0.003569 0.017941 0.012223
endloop
endfacet
facet normal 0.256282 0.844848 0.469628
outer loop
vertex 0.003965 0.019935 0.008419
vertex 0.003569 0.017941 0.012223
vertex 0.007000 0.016900 0.012223
endloop
endfacet
facet normal 0.256282 0.844849 0.469628
outer loop
vertex 0.007000 0.016900 0.012223
vertex 0.007778 0.018778 0.008419
vertex 0.003965 0.019935 0.008419
endloop
endfacet
facet normal 0.299913 0.561098 0.771506
outer loop
vertex 0.005953 0.014372 0.015556
vertex 0.004677 0.011292 0.018292
vertex 0.006790 0.010163 0.018292
endloop
endfacet
facet normal 0.299914 0.561098 0.771505
outer loop
vertex 0.006790 0.010163 0.018292
vertex 0.008643 0.012935 0.015556
vertex 0.005953 0.014372 0.015556
endloop
endfacet
facet normal 0.365101 0.683056 0.632563
outer loop
vertex 0.007000 0.016900 0.012223
vertex 0.005953 0.014372 0.015556
vertex 0.008643 0.012935 0.015556
endloop
endfacet
facet normal 0.365101 0.683056 0.632563
outer loop
vertex 0.008643 0.012935 0.015556
vertex 0.010163 0.015210 0.012223
vertex 0.007000 0.016900 0.012223
endloop
endfacet
facet normal 0.416179 0.778617 0.469628
outer loop
vertex 0.007778 0.018778 0.008419
vertex 0.007000 0.016900 0.012223
vertex 0.010163 0.015210 0.012223
endloop
endfacet
facet normal 0.416180 0.778617 0.469628
outer loop
vertex 0.010163 0.015210 0.012223
vertex 0.011292 0.016900 0.008419
vertex 0.007778 0.018778 0.008419
endloop
endfacet
facet normal 0.451281 0.844288 0.289004
outer loop
vertex 0.008257 0.019935 0.004292
vertex 0.007778 0.018778 0.008419
vertex 0.011292 0.016900 0.008419
endloop
endfacet
facet normal 0.451281 0.844288 0.289005
outer loop
vertex 0.011292 0.016900 0.008419
vertex 0.011988 0.017941 0.004292
vertex 0.008257 0.019935 0.004292
endloop
endfacet
facet normal 0.469148 0.877715 0.097549
outer loop
vertex 0.008419 0.020325 0.000000
vertex 0.008257 0.019935 0.004292
vertex 0.011988 0.017941 0.004292
endloop
endfacet
facet normal 0.469149 0.877715 0.097549
outer loop
vertex 0.011988 0.017941 0.004292
vertex 0.012223 0.018292 0.000000
vertex 0.008419 0.020325 0.000000
endloop
endfacet
facet normal 0.137448 0.257142 0.956549
outer loop
vertex 0.003222 0.007778 0.020325
vertex 0.001642 0.003965 0.021577
vertex 0.002385 0.003569 0.021577
endloop
endfacet
facet normal 0.137443 0.257142 0.956550
outer loop
vertex 0.002385 0.003569 0.021577
vertex 0.004677 0.007000 0.020325
vertex 0.003222 0.007778 0.020325
endloop
endfacet
facet normal 0.223049 0.417297 0.880972
outer loop
vertex 0.004677 0.011292 0.018292
vertex 0.003222 0.007778 0.020325
vertex 0.004677 0.007000 0.020325
endloop
endfacet
facet normal 0.223050 0.417297 0.880972
outer loop
vertex 0.004677 0.007000 0.020325
vertex 0.006790 0.010163 0.018292
vertex 0.004677 0.011292 0.018292
endloop
endfacet
facet normal 0.631368 0.769324 0.097549
outer loop
vertex 0.012223 0.018292 0.000000
vertex 0.011988 0.017941 0.004292
vertex 0.015257 0.015257 0.004292
endloop
endfacet
facet normal 0.631368 0.769324 0.097549
outer loop
vertex 0.015257 0.015257 0.004292
vertex 0.015556 0.015556 0.000000
vertex 0.012223 0.018292 0.000000
endloop
endfacet
facet normal 0.184969 0.225387 0.956550
outer loop
vertex 0.004677 0.007000 0.020325
vertex 0.002385 0.003569 0.021577
vertex 0.003035 0.003035 0.021577
endloop
endfacet
facet normal 0.184972 0.225387 0.956549
outer loop
vertex 0.003035 0.003035 0.021577
vertex 0.005953 0.005953 0.020325
vertex 0.004677 0.007000 0.020325
endloop
endfacet
facet normal 0.300174 0.365764 0.880973
outer loop
vertex 0.006790 0.010163 0.018292
vertex 0.004677 0.007000 0.020325
vertex 0.005953 0.005953 0.020325
endloop
endfacet
facet normal 0.300174 0.365764 0.880973
outer loop
vertex 0.005953 0.005953 0.020325
vertex 0.008643 0.008643 0.018292
vertex 0.006790 0.010163 0.018292
endloop
endfacet
facet normal 0.403616 0.491807 0.771506
outer loop
vertex 0.008643 0.012935 0.015556
vertex 0.006790 0.010163 0.018292
vertex 0.008643 0.008643 0.018292
endloop
endfacet
facet normal 0.403616 0.491807 0.771505
outer loop
vertex 0.008643 0.008643 0.018292
vertex 0.011000 0.011000 0.015556
vertex 0.008643 0.012935 0.015556
endloop
endfacet
facet normal 0.491343 0.598704 0.632563
outer loop
vertex 0.010163 0.015210 0.012223
vertex 0.008643 0.012935 0.015556
vertex 0.011000 0.011000 0.015556
endloop
endfacet
facet normal 0.491343 0.598704 0.632563
outer loop
vertex 0.011000 0.011000 0.015556
vertex 0.012935 0.012935 0.012223
vertex 0.010163 0.015210 0.012223
endloop
endfacet
facet normal 0.560083 0.682463 0.469628
outer loop
vertex 0.011292 0.016900 0.008419
vertex 0.010163 0.015210 0.012223
vertex 0.012935 0.012935 0.012223
endloop
endfacet
facet normal 0.560083 0.682463 0.469628
outer loop
vertex 0.012935 0.012935 0.012223
vertex 0.014372 0.014372 0.008419
vertex 0.011292 0.016900 0.008419
endloop
endfacet
facet normal 0.607323 0.740025 0.289003
outer loop
vertex 0.011988 0.017941 0.004292
vertex 0.011292 0.016900 0.008419
vertex 0.014372 0.014372 0.008419
endloop
endfacet
facet normal 0.607323 0.740024 0.289005
outer loop
vertex 0.014372 0.014372 0.008419
vertex 0.015257 0.015257 0.004292
vertex 0.011988 0.017941 0.004292
endloop
endfacet
facet normal 0.598704 0.491343 0.632563
outer loop
vertex 0.012935 0.012935 0.012223
vertex 0.011000 0.011000 0.015556
vertex 0.012935 0.008643 0.015556
endloop
endfacet
facet normal 0.598704 0.491343 0.632563
outer loop
vertex 0.012935 0.008643 0.015556
vertex 0.015210 0.010163 0.012223
vertex 0.012935 0.012935 0.012223
endloop
endfacet
facet normal 0.682463 0.560083 0.469628
outer loop
vertex 0.014372 0.014372 0.008419
vertex 0.012935 0.012935 0.012223
vertex 0.015210 0.010163 0.012223
endloop
endfacet
facet normal 0.682464 0.560083 0.469627
outer loop
vertex 0.015210 0.010163 0.012223
vertex 0.016900 0.011292 0.008419
vertex 0.014372 0.014372 0.008419
endloop
endfacet
facet normal 0.740024 0.607323 0.289004
outer loop
vertex 0.015257 0.015257 0.004292
vertex 0.014372 0.014372 0.008419
vertex 0.016900 0.011292 0.008419
endloop
endfacet
facet normal 0.740025 0.607322 0.289005
outer loop
vertex 0.016900 0.011292 0.008419
vertex 0.017941 0.011988 0.004292
vertex 0.015257 0.015257 0.004292
endloop
endfacet
facet normal 0.769324 0.631367 0.097549
outer loop
vertex 0.015556 0.015556 0.000000
vertex 0.015257 0.015257 0.004292
vertex 0.017941 0.011988 0.004292
endloop
endfacet
facet normal 0.769323 0.631368 0.097549
outer loop
vertex 0.017941 0.011988 0.004292
vertex 0.018292 0.012223 0.000000
vertex 0.015556 0.015556 0.000000
endloop
endfacet
facet normal 0.225386 0.184970 0.956550
outer loop
vertex 0.005953 0.005953 0.020325
vertex 0.003035 0.003035 0.021577
vertex 0.003569 0.002385 0.021577
endloop
endfacet
facet normal 0.225387 0.184970 0.956549
outer loop
vertex 0.003569 0.002385 0.021577
vertex 0.007000 0.004677 0.020325
vertex 0.005953 0.005953 0.020325
endloop
endfacet
facet normal 0.365764 0.300174 0.880972
outer loop
vertex 0.008643 0.008643 0.018292
vertex 0.005953 0.005953 0.020325
vertex 0.007000 0.004677 0.020325
endloop
endfacet
facet normal 0.365763 0.300175 0.880973
outer loop
vertex 0.007000 0.004677 0.020325
vertex 0.010163 0.006790 0.018292
vertex 0.008643 0.008643 0.018292
endloop
endfacet
facet normal 0.491806 0.403616 0.771505
outer loop
vertex 0.011000 0.011000 0.015556
vertex 0.008643 0.008643 0.018292
vertex 0.010163 0.006790 0.018292
endloop
endfacet
facet normal 0.491808 0.403615 0.771505
outer loop
vertex 0.010163 0.006790 0.018292
vertex 0.012935 0.008643 0.015556
vertex 0.011000 0.011000 0.015556
endloop
endfacet
facet normal 0.257144 0.137445 0.956549
outer loop
vertex 0.007000 0.004677 0.020325
vertex 0.003569 0.002385 0.021577
vertex 0.003965 0.001642 0.021577
endloop
endfacet
facet normal 0.257141 0.137445 0.956550
outer loop
vertex 0.003965 0.001642 0.021577
vertex 0.007778 0.003222 0.020325
vertex 0.007000 0.004677 0.020325
endloop
endfacet
facet normal 0.417298 0.223049 0.880972
outer loop
vertex 0.010163 0.006790 0.018292
vertex 0.007000 0.004677 0.020325
vertex 0.007778 0.003222 0.020325
endloop
endfacet
facet normal 0.417296 0.223050 0.880973
outer loop
vertex 0.007778 0.003222 0.020325
vertex 0.011292 0.004677 0.018292
vertex 0.010163 0.006790 0.018292
endloop
endfacet
facet normal 0.561098 0.299914 0.771506
outer loop
vertex 0.012935 0.008643 0.015556
vertex 0.010163 0.006790 0.018292
vertex 0.011292 0.004677 0.018292
endloop
endfacet
facet normal 0.561099 0.299913 0.771505
outer loop
vertex 0.011292 0.004677 0.018292
vertex 0.014372 0.005953 0.015556
vertex 0.012935 0.008643 0.015556
endloop
endfacet
facet normal 0.683056 0.365101 0.632563
outer loop
vertex 0.015210 0.010163 0.012223
vertex 0.012935 0.008643 0.015556
vertex 0.014372 0.005953 0.015556
endloop
endfacet
facet normal 0.683056 0.365101 0.632563
outer loop
vertex 0.014372 0.005953 0.015556
vertex 0.016900 0.007000 0.012223
vertex 0.015210 0.010163 0.012223
endloop
endfacet
facet normal 0.778617 0.416179 0.469628
outer loop
vertex 0.016900 0.011292 0.008419
vertex 0.015210 0.010163 0.012223
vertex 0.016900 0.007000 0.012223
endloop
endfacet
facet normal 0.778617 0.416179 0.469628
outer loop
vertex 0.016900 0.007000 0.012223
vertex 0.018778 0.007778 0.008419
vertex 0.016900 0.011292 0.008419
endloop
endfacet
facet normal 0.844288 0.451281 0.289004
outer loop
vertex 0.017941 0.011988 0.004292
vertex 0.016900 0.011292 0.008419
vertex 0.018778 0.007778 0.008419
endloop
endfacet
facet normal 0.844288 0.451281 0.289004
outer loop
vertex 0.018778 0.007778 0.008419
vertex 0.019935 0.008257 0.004292
vertex 0.017941 0.011988 0.004292
endloop
endfacet
facet normal 0.877715 0.469148 0.097549
outer loop
vertex 0.018292 0.012223 0.000000
vertex 0.017941 0.011988 0.004292
vertex 0.019935 0.008257 0.004292
endloop
endfacet
facet normal 0.877716 0.469148 0.097548
outer loop
vertex 0.019935 0.008257 0.004292
vertex 0.020325 0.008419 0.000000
vertex 0.018292 0.012223 0.000000
endloop
endfacet
facet normal 0.741159 0.224828 0.632563
outer loop
vertex 0.016900 0.007000 0.012223
vertex 0.014372 0.005953 0.015556
vertex 0.015257 0.003035 0.015556
endloop
endfacet
facet normal 0.741159 0.224827 0.632563
outer loop
vertex 0.015257 0.003035 0.015556
vertex 0.017941 0.003569 0.012223
vertex 0.016900 0.007000 0.012223
endloop
endfacet
facet normal 0.844849 0.256282 0.469628
outer loop
vertex 0.018778 0.007778 0.008419
vertex 0.016900 0.007000 0.012223
vertex 0.017941 0.003569 0.012223
endloop
endfacet
facet normal 0.844849 0.256282 0.469628
outer loop
vertex 0.017941 0.003569 0.012223
vertex 0.019935 0.003965 0.008419
vertex 0.018778 0.007778 0.008419
endloop
endfacet
facet normal 0.916106 0.277898 0.289004
outer loop
vertex 0.019935 0.008257 0.004292
vertex 0.018778 0.007778 0.008419
vertex 0.019935 0.003965 0.008419
endloop
endfacet
facet normal 0.916105 0.277898 0.289005
outer loop
vertex 0.019935 0.003965 0.008419
vertex 0.021163 0.004210 0.004292
vertex 0.019935 0.008257 0.004292
endloop
endfacet
facet normal 0.952376 0.288900 0.097548
outer loop
vertex 0.020325 0.008419 0.000000
vertex 0.019935 0.008257 0.004292
vertex 0.021163 0.004210 0.004292
endloop
endfacet
facet normal 0.952377 0.288900 0.097548
outer loop
vertex 0.021163 0.004210 0.004292
vertex 0.021577 0.004292 0.000000
vertex 0.020325 0.008419 0.000000
endloop
endfacet
facet normal 0.279016 0.084638 0.956549
outer loop
vertex 0.007778 0.003222 0.020325
vertex 0.003965 0.001642 0.021577
vertex 0.004210 0.000837 0.021577
endloop
endfacet
facet normal 0.279015 0.084638 0.956550
outer loop
vertex 0.004210 0.000837 0.021577
vertex 0.008257 0.001642 0.020325
vertex 0.007778 0.003222 0.020325
endloop
endfacet
facet normal 0.452793 0.137353 0.880972
outer loop
vertex 0.011292 0.004677 0.018292
vertex 0.007778 0.003222 0.020325
vertex 0.008257 0.001642 0.020325
endloop
endfacet
facet normal 0.452793 0.137354 0.880973
outer loop
vertex 0.008257 0.001642 0.020325
vertex 0.011988 0.002385 0.018292
vertex 0.011292 0.004677 0.018292
endloop
endfacet
facet normal 0.608827 0.184685 0.771506
outer loop
vertex 0.014372 0.005953 0.015556
vertex 0.011292 0.004677 0.018292
vertex 0.011988 0.002385 0.018292
endloop
endfacet
facet normal 0.608828 0.184686 0.771505
outer loop
vertex 0.011988 0.002385 0.018292
vertex 0.015257 0.003035 0.015556
vertex 0.014372 0.005953 0.015556
endloop
endfacet
facet normal 0.290167 0.028579 0.956549
outer loop
vertex 0.008257 0.001642 0.020325
vertex 0.004210 0.000837 0.021577
vertex 0.004292 -0.000000 0.021577
endloop
endfacet
facet normal 0.290165 0.028579 0.956550
outer loop
vertex 0.004292 -0.000000 0.021577
vertex 0.008419 -0.000000 0.020325
vertex 0.008257 0.001642 0.020325
endloop
endfacet
facet normal 0.470891 0.046377 0.880972
outer loop
vertex 0.011988 0.002385 0.018292
vertex 0.008257 0.001642 0.020325
vertex 0.008419 -0.000000 0.020325
endloop
endfacet
facet normal 0.470888 0.046379 0.880973
outer loop
vertex 0.008419 -0.000000 0.020325
vertex 0.012223 0.000000 0.018292
vertex 0.011988 0.002385 0.018292
endloop
endfacet
facet normal 0.633159 0.062360 0.771506
outer loop
vertex 0.015257 0.003035 0.015556
vertex 0.011988 0.002385 0.018292
vertex 0.012223 0.000000 0.018292
endloop
endfacet
facet normal 0.633159 0.062360 0.771505
outer loop
vertex 0.012223 0.000000 0.018292
vertex 0.015556 -0.000000 0.015556
vertex 0.015257 0.003035 0.015556
endloop
endfacet
facet normal 0.770780 0.075915 0.632563
outer loop
vertex 0.017941 0.003569 0.012223
vertex 0.015257 0.003035 0.015556
vertex 0.015556 -0.000000 0.015556
endloop
endfacet
facet normal 0.770780 0.075915 0.632562
outer loop
vertex 0.015556 -0.000000 0.015556
vertex 0.018292 -0.000000 0.012223
vertex 0.017941 0.003569 0.012223
endloop
endfacet
facet normal 0.878613 0.086535 0.469628
outer loop
vertex 0.019935 0.003965 0.008419
vertex 0.017941 0.003569 0.012223
vertex 0.018292 -0.000000 0.012223
endloop
endfacet
facet normal 0.878613 0.086537 0.469628
outer loop
vertex 0.018292 -0.000000 0.012223
vertex 0.020325 -0.000000 0.008419
vertex 0.019935 0.003965 0.008419
endloop
endfacet
facet normal 0.952718 0.093834 0.289005
outer loop
vertex 0.021163 0.004210 0.004292
vertex 0.019935 0.003965 0.008419
vertex 0.020325 -0.000000 0.008419
endloop
endfacet
facet normal 0.952718 0.093834 0.289004
outer loop
vertex 0.020325 -0.000000 0.008419
vertex 0.021577 -0.000000 0.004292
vertex 0.021163 0.004210 0.004292
endloop
endfacet
facet normal 0.990438 0.097550 0.097548
outer loop
vertex 0.021577 0.004292 0.000000
vertex 0.021163 0.004210 0.004292
vertex 0.021577 -0.000000 0.004292
endloop
endfacet
facet normal 0.990439 0.097549 0.097548
outer loop
vertex 0.021577 -0.000000 0.004292
vertex 0.022000 -0.000000 0.000000
vertex 0.021577 0.004292 0.000000
endloop
endfacet
facet normal 0.878613 -0.086537 0.469628
outer loop
vertex 0.020325 -0.000000 0.008419
vertex 0.018292 -0.000000 0.012223
vertex 0.017941 -0.003569 0.012223
endloop
endfacet
facet normal 0.878613 -0.086536 0.469628
outer loop
vertex 0.017941 -0.003569 0.012223
vertex 0.019935 -0.003965 0.008419
vertex 0.020325 -0.000000 0.008419
endloop
endfacet
facet normal 0.952718 -0.093835 0.289004
outer loop
vertex 0.021577 -0.000000 0.004292
vertex 0.020325 -0.000000 0.008419
vertex 0.019935 -0.003965 0.008419
endloop
endfacet
facet normal 0.952718 -0.093834 0.289004
outer loop
vertex 0.019935 -0.003965 0.008419
vertex 0.021163 -0.004210 0.004292
vertex 0.021577 -0.000000 0.004292
endloop
endfacet
facet normal 0.990438 -0.097551 0.097548
outer loop
vertex 0.022000 -0.000000 0.000000
vertex 0.021577 -0.000000 0.004292
vertex 0.021163 -0.004210 0.004292
endloop
endfacet
facet normal 0.990439 -0.097549 0.097548
outer loop
vertex 0.021163 -0.004210 0.004292
vertex 0.021577 -0.004292 0.000000
vertex 0.022000 -0.000000 0.000000
endloop
endfacet
facet normal 0.290166 -0.028579 0.956550
outer loop
vertex 0.008419 -0.000000 0.020325
vertex 0.004292 -0.000000 0.021577
vertex 0.004210 -0.000837 0.021577
endloop
endfacet
facet normal 0.290165 -0.028579 0.956550
outer loop
vertex 0.004210 -0.000837 0.021577
vertex 0.008257 -0.001642 0.020325
vertex 0.008419 -0.000000 0.020325
endloop
endfacet
facet normal 0.470890 -0.046379 0.880972
outer loop
vertex 0.012223 0.000000 0.018292
vertex 0.008419 -0.000000 0.020325
vertex 0.008257 -0.001642 0.020325
endloop
endfacet
facet normal 0.470889 -0.046378 0.880973
outer loop
vertex 0.008257 -0.001642 0.020325
vertex 0.011988 -0.002385 0.018292
vertex 0.012223 0.000000 0.018292
endloop
endfacet
facet normal 0.633160 -0.062361 0.771505
outer loop
vertex 0.015556 -0.000000 0.015556
vertex 0.012223 0.000000 0.018292
vertex 0.011988 -0.002385 0.018292
endloop
endfacet
facet normal 0.633160 -0.062360 0.771505
outer loop
vertex 0.011988 -0.002385 0.018292
vertex 0.015257 -0.003035 0.015556
vertex 0.015556 -0.000000 0.015556
endloop
endfacet
facet normal 0.770780 -0.075915 0.632563
outer loop
vertex 0.018292 -0.000000 0.012223
vertex 0.015556 -0.000000 0.015556
vertex 0.015257 -0.003035 0.015556
endloop
endfacet
facet normal 0.770780 -0.075916 0.632563
outer loop
vertex 0.015257 -0.003035 0.015556
vertex 0.017941 -0.003569 0.012223
vertex 0.018292 -0.000000 0.012223
endloop
endfacet
facet normal 0.279015 -0.084639 0.956550
outer loop
vertex 0.008257 -0.001642 0.020325
vertex 0.004210 -0.000837 0.021577
vertex 0.003965 -0.001642 0.021577
endloop
endfacet
facet normal 0.279014 -0.084639 0.956550
outer loop
vertex 0.003965 -0.001642 0.021577
vertex 0.007778 -0.003222 0.020325
vertex 0.008257 -0.001642 0.020325
endloop
endfacet
facet normal 0.452794 -0.137353 0.880972
outer loop
vertex 0.011988 -0.002385 0.018292
vertex 0.008257 -0.001642 0.020325
vertex 0.007778 -0.003222 0.020325
endloop
endfacet
facet normal 0.452793 -0.137354 0.880973
outer loop
vertex 0.007778 -0.003222 0.020325
vertex 0.011292 -0.004677 0.018292
vertex 0.011988 -0.002385 0.018292
endloop
endfacet
facet normal 0.608827 -0.184686 0.771505
outer loop
vertex 0.015257 -0.003035 0.015556
vertex 0.011988 -0.002385 0.018292
vertex 0.011292 -0.004677 0.018292
endloop
endfacet
facet normal 0.608828 -0.184686 0.771505
outer loop
vertex 0.011292 -0.004677 0.018292
vertex 0.014372 -0.005953 0.015556
vertex 0.015257 -0.003035 0.015556
endloop
endfacet
facet normal 0.741159 -0.224828 0.632562
outer loop
vertex 0.017941 -0.003569 0.012223
vertex 0.015257 -0.003035 0.015556
vertex 0.014372 -0.005953 0.015556
endloop
endfacet
facet normal 0.741159 -0.224828 0.632563
outer loop
vertex 0.014372 -0.005953 0.015556
vertex 0.016900 -0.007000 0.012223
vertex 0.017941 -0.003569 0.012223
endloop
endfacet
facet normal 0.844849 -0.256282 0.469628
outer loop
vertex 0.019935 -0.003965 0.008419
vertex 0.017941 -0.003569 0.012223
vertex 0.016900 -0.007000 0.012223
endloop
endfacet
facet normal 0.844848 -0.256283 0.469628
outer loop
vertex 0.016900 -0.007000 0.012223
vertex 0.018778 -0.007778 0.008419
vertex 0.019935 -0.003965 0.008419
endloop
endfacet
facet normal 0.916106 -0.277898 0.289004
outer loop
vertex 0.021163 -0.004210 0.004292
vertex 0.019935 -0.003965 0.008419
vertex 0.018778 -0.007778 0.008419
endloop
endfacet
facet normal 0.916105 -0.277898 0.289004
outer loop
vertex 0.018778 -0.007778 0.008419
vertex 0.019935 -0.008257 0.004292
vertex 0.021163 -0.004210 0.004292
endloop
endfacet
facet normal 0.952376 -0.288901 0.097548
outer loop
vertex 0.021577 -0.004292 0.000000
vertex 0.021163 -0.004210 0.004292
vertex 0.019935 -0.008257 0.004292
endloop
endfacet
facet normal 0.952376 -0.288900 0.097548
outer loop
vertex 0.019935 -0.008257 0.004292
vertex 0.020325 -0.008419 0.000000
vertex 0.021577 -0.004292 0.000000
endloop
endfacet
facet normal 0.778617 -0.416180 0.469628
outer loop
vertex 0.018778 -0.007778 0.008419
vertex 0.016900 -0.007000 0.012223
vertex 0.015210 -0.010163 0.012223
endloop
endfacet
facet normal 0.778617 -0.416180 0.469628
outer loop
vertex 0.015210 -0.010163 0.012223
vertex 0.016900 -0.011292 0.008419
vertex 0.018778 -0.007778 0.008419
endloop
endfacet
facet normal 0.844287 -0.451282 0.289004
outer loop
vertex 0.019935 -0.008257 0.004292
vertex 0.018778 -0.007778 0.008419
vertex 0.016900 -0.011292 0.008419
endloop
endfacet
facet normal 0.844288 -0.451281 0.289004
outer loop
vertex 0.016900 -0.011292 0.008419
vertex 0.017941 -0.011988 0.004292
vertex 0.019935 -0.008257 0.004292
endloop
endfacet
facet normal 0.877715 -0.469149 0.097548
outer loop
vertex 0.020325 -0.008419 0.000000
vertex 0.019935 -0.008257 0.004292
vertex 0.017941 -0.011988 0.004292
endloop
endfacet
facet normal 0.877715 -0.469149 0.097548
outer loop
vertex 0.017941 -0.011988 0.004292
vertex 0.018292 -0.012223 0.000000
vertex 0.020325 -0.008419 0.000000
endloop
endfacet
facet normal 0.257142 -0.137445 0.956549
outer loop
vertex 0.007778 -0.003222 0.020325
vertex 0.003965 -0.001642 0.021577
vertex 0.003569 -0.002385 0.021577
endloop
endfacet
facet normal 0.257142 -0.137445 0.956549
outer loop
vertex 0.003569 -0.002385 0.021577
vertex 0.007000 -0.004677 0.020325
vertex 0.007778 -0.003222 0.020325
endloop
endfacet
facet normal 0.417297 -0.223050 0.880972
outer loop
vertex 0.011292 -0.004677 0.018292
vertex 0.007778 -0.003222 0.020325
vertex 0.007000 -0.004677 0.020325
endloop
endfacet
facet normal 0.417296 -0.223050 0.880973
outer loop
vertex 0.007000 -0.004677 0.020325
vertex 0.010163 -0.006790 0.018292
vertex 0.011292 -0.004677 0.018292
endloop
endfacet
facet normal 0.561098 -0.299913 0.771505
outer loop
vertex 0.014372 -0.005953 0.015556
vertex 0.011292 -0.004677 0.018292
vertex 0.010163 -0.006790 0.018292
endloop
endfacet
facet normal 0.561099 -0.299913 0.771505
outer loop
vertex 0.010163 -0.006790 0.018292
vertex 0.012935 -0.008643 0.015556
vertex 0.014372 -0.005953 0.015556
endloop
endfacet
facet normal 0.683056 -0.365102 0.632563
outer loop
vertex 0.016900 -0.007000 0.012223
vertex 0.014372 -0.005953 0.015556
vertex 0.012935 -0.008643 0.015556
endloop
endfacet
facet normal 0.683056 -0.365102 0.632563
outer loop
vertex 0.012935 -0.008643 0.015556
vertex 0.015210 -0.010163 0.012223
vertex 0.016900 -0.007000 0.012223
endloop
endfacet
facet normal 0.365764 -0.300174 0.880972
outer loop
vertex 0.010163 -0.006790 0.018292
vertex 0.007000 -0.004677 0.020325
vertex 0.005953 -0.005953 0.020325
endloop
endfacet
facet normal 0.365764 -0.300175 0.880972
outer loop
vertex 0.005953 -0.005953 0.020325
vertex 0.008643 -0.008643 0.018292
vertex 0.010163 -0.006790 0.018292
endloop
endfacet
facet normal 0.491806 -0.403616 0.771506
outer loop
vertex 0.012935 -0.008643 0.015556
vertex 0.010163 -0.006790 0.018292
vertex 0.008643 -0.008643 0.018292
endloop
endfacet
facet normal 0.491807 -0.403616 0.771505
outer loop
vertex 0.008643 -0.008643 0.018292
vertex 0.011000 -0.011000 0.015556
vertex 0.012935 -0.008643 0.015556
endloop
endfacet
facet normal 0.598704 -0.491343 0.632563
outer loop
vertex 0.015210 -0.010163 0.012223
vertex 0.012935 -0.008643 0.015556
vertex 0.011000 -0.011000 0.015556
endloop
endfacet
facet normal 0.598703 -0.491344 0.632563
outer loop
vertex 0.011000 -0.011000 0.015556
vertex 0.012935 -0.012935 0.012223
vertex 0.015210 -0.010163 0.012223
endloop
endfacet
facet normal 0.682463 -0.560083 0.469628
outer loop
vertex 0.016900 -0.011292 0.008419
vertex 0.015210 -0.010163 0.012223
vertex 0.012935 -0.012935 0.012223
endloop
endfacet
facet normal 0.682463 -0.560083 0.469628
outer loop
vertex 0.012935 -0.012935 0.012223
vertex 0.014372 -0.014372 0.008419
vertex 0.016900 -0.011292 0.008419
endloop
endfacet
facet normal 0.740024 -0.607322 0.289005
outer loop
vertex 0.017941 -0.011988 0.004292
vertex 0.016900 -0.011292 0.008419
vertex 0.014372 -0.014372 0.008419
endloop
endfacet
facet normal 0.740024 -0.607323 0.289005
outer loop
vertex 0.014372 -0.014372 0.008419
vertex 0.015257 -0.015257 0.004292
vertex 0.017941 -0.011988 0.004292
endloop
endfacet
facet normal 0.769324 -0.631368 0.097548
outer loop
vertex 0.018292 -0.012223 0.000000
vertex 0.017941 -0.011988 0.004292
vertex 0.015257 -0.015257 0.004292
endloop
endfacet
facet normal 0.769324 -0.631368 0.097547
outer loop
vertex 0.015257 -0.015257 0.004292
vertex 0.015556 -0.015556 0.000000
vertex 0.018292 -0.012223 0.000000
endloop
endfacet
facet normal 0.225387 -0.184970 0.956549
outer loop
vertex 0.007000 -0.004677 0.020325
vertex 0.003569 -0.002385 0.021577
vertex 0.003035 -0.003035 0.021577
endloop
endfacet
facet normal 0.225387 -0.184970 0.956549
outer loop
vertex 0.003035 -0.003035 0.021577
vertex 0.005953 -0.005953 0.020325
vertex 0.007000 -0.004677 0.020325
endloop
endfacet
facet normal 0.607322 -0.740024 0.289005
outer loop
vertex 0.015257 -0.015257 0.004292
vertex 0.014372 -0.014372 0.008419
vertex 0.011292 -0.016900 0.008419
endloop
endfacet
facet normal 0.607322 -0.740025 0.289004
outer loop
vertex 0.011292 -0.016900 0.008419
vertex 0.011988 -0.017941 0.004292
vertex 0.015257 -0.015257 0.004292
endloop
endfacet
facet normal 0.631368 -0.769324 0.097547
outer loop
vertex 0.015556 -0.015556 0.000000
vertex 0.015257 -0.015257 0.004292
vertex 0.011988 -0.017941 0.004292
endloop
endfacet
facet normal 0.631368 -0.769324 0.097547
outer loop
vertex 0.011988 -0.017941 0.004292
vertex 0.012223 -0.018292 0.000000
vertex 0.015556 -0.015556 0.000000
endloop
endfacet
facet normal 0.184969 -0.225387 0.956550
outer loop
vertex 0.005953 -0.005953 0.020325
vertex 0.003035 -0.003035 0.021577
vertex 0.002385 -0.003569 0.021577
endloop
endfacet
facet normal 0.184970 -0.225387 0.956549
outer loop
vertex 0.002385 -0.003569 0.021577
vertex 0.004677 -0.007000 0.020325
vertex 0.005953 -0.005953 0.020325
endloop
endfacet
facet normal 0.300174 -0.365764 0.880972
outer loop
vertex 0.008643 -0.008643 0.018292
vertex 0.005953 -0.005953 0.020325
vertex 0.004677 -0.007000 0.020325
endloop
endfacet
facet normal 0.300174 -0.365764 0.880973
outer loop
vertex 0.004677 -0.007000 0.020325
vertex 0.006790 -0.010163 0.018292
vertex 0.008643 -0.008643 0.018292
endloop
endfacet
facet normal 0.403615 -0.491807 0.771505
outer loop
vertex 0.011000 -0.011000 0.015556
vertex 0.008643 -0.008643 0.018292
vertex 0.006790 -0.010163 0.018292
endloop
endfacet
facet normal 0.403616 -0.491807 0.771505
outer loop
vertex 0.006790 -0.010163 0.018292
vertex 0.008643 -0.012935 0.015556
vertex 0.011000 -0.011000 0.015556
endloop
endfacet
facet normal 0.491343 -0.598704 0.632562
outer loop
vertex 0.012935 -0.012935 0.012223
vertex 0.011000 -0.011000 0.015556
vertex 0.008643 -0.012935 0.015556
endloop
endfacet
facet normal 0.491343 -0.598704 0.632563
outer loop
vertex 0.008643 -0.012935 0.015556
vertex 0.010163 -0.015210 0.012223
vertex 0.012935 -0.012935 0.012223
endloop
endfacet
facet normal 0.560083 -0.682464 0.469628
outer loop
vertex 0.014372 -0.014372 0.008419
vertex 0.012935 -0.012935 0.012223
vertex 0.010163 -0.015210 0.012223
endloop
endfacet
facet normal 0.560083 -0.682464 0.469628
outer loop
vertex 0.010163 -0.015210 0.012223
vertex 0.011292 -0.016900 0.008419
vertex 0.014372 -0.014372 0.008419
endloop
endfacet
facet normal 0.299913 -0.561099 0.771505
outer loop
vertex 0.008643 -0.012935 0.015556
vertex 0.006790 -0.010163 0.018292
vertex 0.004677 -0.011292 0.018292
endloop
endfacet
facet normal 0.299914 -0.561099 0.771505
outer loop
vertex 0.004677 -0.011292 0.018292
vertex 0.005953 -0.014372 0.015556
vertex 0.008643 -0.012935 0.015556
endloop
endfacet
facet normal 0.365101 -0.683056 0.632562
outer loop
vertex 0.010163 -0.015210 0.012223
vertex 0.008643 -0.012935 0.015556
vertex 0.005953 -0.014372 0.015556
endloop
endfacet
facet normal 0.365101 -0.683056 0.632563
outer loop
vertex 0.005953 -0.014372 0.015556
vertex 0.007000 -0.016900 0.012223
vertex 0.010163 -0.015210 0.012223
endloop
endfacet
facet normal 0.416179 -0.778617 0.469629
outer loop
vertex 0.011292 -0.016900 0.008419
vertex 0.010163 -0.015210 0.012223
vertex 0.007000 -0.016900 0.012223
endloop
endfacet
facet normal 0.416179 -0.778617 0.469627
outer loop
vertex 0.007000 -0.016900 0.012223
vertex 0.007778 -0.018778 0.008419
vertex 0.011292 -0.016900 0.008419
endloop
endfacet
facet normal 0.451281 -0.844288 0.289005
outer loop
vertex 0.011988 -0.017941 0.004292
vertex 0.011292 -0.016900 0.008419
vertex 0.007778 -0.018778 0.008419
endloop
endfacet
facet normal 0.451281 -0.844288 0.289005
outer loop
vertex 0.007778 -0.018778 0.008419
vertex 0.008257 -0.019935 0.004292
vertex 0.011988 -0.017941 0.004292
endloop
endfacet
facet normal 0.469148 -0.877716 0.097547
outer loop
vertex 0.012223 -0.018292 0.000000
vertex 0.011988 -0.017941 0.004292
vertex 0.008257 -0.019935 0.004292
endloop
endfacet
facet normal 0.469148 -0.877716 0.097547
outer loop
vertex 0.008257 -0.019935 0.004292
vertex 0.008419 -0.020325 0.000000
vertex 0.012223 -0.018292 0.000000
endloop
endfacet
facet normal 0.137445 -0.257142 0.956550
outer loop
vertex 0.004677 -0.007000 0.020325
vertex 0.002385 -0.003569 0.021577
vertex 0.001642 -0.003965 0.021577
endloop
endfacet
facet normal 0.137445 -0.257142 0.956549
outer loop
vertex 0.001642 -0.003965 0.021577
vertex 0.003222 -0.007778 0.020325
vertex 0.004677 -0.007000 0.020325
endloop
endfacet
facet normal 0.223050 -0.417297 0.880972
outer loop
vertex 0.006790 -0.010163 0.018292
vertex 0.004677 -0.007000 0.020325
vertex 0.003222 -0.007778 0.020325
endloop
endfacet
facet normal 0.223049 -0.417297 0.880972
outer loop
vertex 0.003222 -0.007778 0.020325
vertex 0.004677 -0.011292 0.018292
vertex 0.006790 -0.010163 0.018292
endloop
endfacet
facet normal 0.288900 -0.952377 0.097548
outer loop
vertex 0.008419 -0.020325 0.000000
vertex 0.008257 -0.019935 0.004292
vertex 0.004210 -0.021163 0.004292
endloop
endfacet
facet normal 0.288900 -0.952377 0.097547
outer loop
vertex 0.004210 -0.021163 0.004292
vertex 0.004292 -0.021577 0.000000
vertex 0.008419 -0.020325 0.000000
endloop
endfacet
facet normal 0.084638 -0.279015 0.956549
outer loop
vertex 0.003222 -0.007778 0.020325
vertex 0.001642 -0.003965 0.021577
vertex 0.000837 -0.004210 0.021577
endloop
endfacet
facet normal 0.084639 -0.279015 0.956549
outer loop
vertex 0.000837 -0.004210 0.021577
vertex 0.001642 -0.008257 0.020325
vertex 0.003222 -0.007778 0.020325
endloop
endfacet
facet normal 0.137353 -0.452794 0.880972
outer loop
vertex 0.004677 -0.011292 0.018292
vertex 0.003222 -0.007778 0.020325
vertex 0.001642 -0.008257 0.020325
endloop
endfacet
facet normal 0.137352 -0.452793 0.880973
outer loop
vertex 0.001642 -0.008257 0.020325
vertex 0.002385 -0.011988 0.018292
vertex 0.004677 -0.011292 0.018292
endloop
endfacet
facet normal 0.184685 -0.608828 0.771505
outer loop
vertex 0.005953 -0.014372 0.015556
vertex 0.004677 -0.011292 0.018292
vertex 0.002385 -0.011988 0.018292
endloop
endfacet
facet normal 0.184686 -0.608828 0.771505
outer loop
vertex 0.002385 -0.011988 0.018292
vertex 0.003035 -0.015257 0.015556
vertex 0.005953 -0.014372 0.015556
endloop
endfacet
facet normal 0.224828 -0.741159 0.632563
outer loop
vertex 0.007000 -0.016900 0.012223
vertex 0.005953 -0.014372 0.015556
vertex 0.003035 -0.015257 0.015556
endloop
endfacet
facet normal 0.224828 -0.741159 0.632563
outer loop
vertex 0.003035 -0.015257 0.015556
vertex 0.003569 -0.017941 0.012223
vertex 0.007000 -0.016900 0.012223
endloop
endfacet
facet normal 0.256282 -0.844848 0.469628
outer loop
vertex 0.007778 -0.018778 0.008419
vertex 0.007000 -0.016900 0.012223
vertex 0.003569 -0.017941 0.012223
endloop
endfacet
facet normal 0.256282 -0.844849 0.469628
outer loop
vertex 0.003569 -0.017941 0.012223
vertex 0.003965 -0.019935 0.008419
vertex 0.007778 -0.018778 0.008419
endloop
endfacet
facet normal 0.277897 -0.916106 0.289003
outer loop
vertex 0.008257 -0.019935 0.004292
vertex 0.007778 -0.018778 0.008419
vertex 0.003965 -0.019935 0.008419
endloop
endfacet
facet normal 0.277897 -0.916105 0.289005
outer loop
vertex 0.003965 -0.019935 0.008419
vertex 0.004210 -0.021163 0.004292
vertex 0.008257 -0.019935 0.004292
endloop
endfacet
facet normal 0.062361 -0.633159 0.771505
outer loop
vertex 0.003035 -0.015257 0.015556
vertex 0.002385 -0.011988 0.018292
vertex 0.000000 -0.012223 0.018292
endloop
endfacet
facet normal 0.062361 -0.633160 0.771505
outer loop
vertex 0.000000 -0.012223 0.018292
vertex 0.000000 -0.015556 0.015556
vertex 0.003035 -0.015257 0.015556
endloop
endfacet
facet normal 0.075915 -0.770780 0.632563
outer loop
vertex 0.003569 -0.017941 0.012223
vertex 0.003035 -0.015257 0.015556
vertex 0.000000 -0.015556 0.015556
endloop
endfacet
facet normal 0.075915 -0.770780 0.632562
outer loop
vertex 0.000000 -0.015556 0.015556
vertex 0.000000 -0.018292 0.012223
vertex 0.003569 -0.017941 0.012223
endloop
endfacet
facet normal 0.086536 -0.878613 0.469628
outer loop
vertex 0.003965 -0.019935 0.008419
vertex 0.003569 -0.017941 0.012223
vertex 0.000000 -0.018292 0.012223
endloop
endfacet
facet normal 0.086535 -0.878613 0.469628
outer loop
vertex 0.000000 -0.018292 0.012223
vertex 0.000000 -0.020325 0.008419
vertex 0.003965 -0.019935 0.008419
endloop
endfacet
facet normal 0.093834 -0.952718 0.289004
outer loop
vertex 0.004210 -0.021163 0.004292
vertex 0.003965 -0.019935 0.008419
vertex 0.000000 -0.020325 0.008419
endloop
endfacet
facet normal 0.093834 -0.952718 0.289005
outer loop
vertex 0.000000 -0.020325 0.008419
vertex 0.000000 -0.021577 0.004292
vertex 0.004210 -0.021163 0.004292
endloop
endfacet
facet normal 0.097549 -0.990439 0.097546
outer loop
vertex 0.004292 -0.021577 0.000000
vertex 0.004210 -0.021163 0.004292
vertex 0.000000 -0.021577 0.004292
endloop
endfacet
facet normal 0.097549 -0.990439 0.097547
outer loop
vertex 0.000000 -0.021577 0.004292
vertex 0.000000 -0.022000 0.000000
vertex 0.004292 -0.021577 0.000000
endloop
endfacet
facet normal 0.028578 -0.290166 0.956549
outer loop
vertex 0.001642 -0.008257 0.020325
vertex 0.000837 -0.004210 0.021577
vertex 0.000000 -0.004292 0.021577
endloop
endfacet
facet normal 0.028579 -0.290166 0.956549
outer loop
vertex 0.000000 -0.004292 0.021577
vertex 0.000000 -0.008419 0.020325
vertex 0.001642 -0.008257 0.020325
endloop
endfacet
facet normal 0.046379 -0.470889 0.880972
outer loop
vertex 0.002385 -0.011988 0.018292
vertex 0.001642 -0.008257 0.020325
vertex 0.000000 -0.008419 0.020325
endloop
endfacet
facet normal 0.046379 -0.470890 0.880972
outer loop
vertex 0.000000 -0.008419 0.020325
vertex 0.000000 -0.012223 0.018292
vertex 0.002385 -0.011988 0.018292
endloop
endfacet
facet normal -0.097550 -0.990438 0.097547
outer loop
vertex 0.000000 -0.022000 0.000000
vertex 0.000000 -0.021577 0.004292
vertex -0.004210 -0.021163 0.004292
endloop
endfacet
facet normal -0.097550 -0.990439 0.097546
outer loop
vertex -0.004210 -0.021163 0.004292
vertex -0.004292 -0.021577 0.000000
vertex 0.000000 -0.022000 0.000000
endloop
endfacet
facet normal -0.028581 -0.290166 0.956549
outer loop
vertex 0.000000 -0.008419 0.020325
vertex 0.000000 -0.004292 0.021577
vertex -0.000837 -0.004210 0.021577
endloop
endfacet
facet normal -0.028579 -0.290166 0.956549
outer loop
vertex -0.000837 -0.004210 0.021577
vertex -0.001642 -0.008257 0.020325
vertex 0.000000 -0.008419 0.020325
endloop
endfacet
facet normal -0.046379 -0.470890 0.880972
outer loop
vertex 0.000000 -0.012223 0.018292
vertex 0.000000 -0.008419 0.020325
vertex -0.001642 -0.008257 0.020325
endloop
endfacet
facet normal -0.046380 -0.470889 0.880972
outer loop
vertex -0.001642 -0.008257 0.020325
vertex -0.002384 -0.011988 0.018292
vertex 0.000000 -0.012223 0.018292
endloop
endfacet
facet normal -0.062361 -0.633159 0.771505
outer loop
vertex 0.000000 -0.015556 0.015556
vertex 0.000000 -0.012223 0.018292
vertex -0.002384 -0.011988 0.018292
endloop
endfacet
facet normal -0.062361 -0.633160 0.771505
outer loop
vertex -0.002384 -0.011988 0.018292
vertex -0.003035 -0.015257 0.015556
vertex 0.000000 -0.015556 0.015556
endloop
endfacet
facet normal -0.075916 -0.770780 0.632563
outer loop
vertex 0.000000 -0.018292 0.012223
vertex 0.000000 -0.015556 0.015556
vertex -0.003035 -0.015257 0.015556
endloop
endfacet
facet normal -0.075915 -0.770780 0.632563
outer loop
vertex -0.003035 -0.015257 0.015556
vertex -0.003569 -0.017941 0.012223
vertex 0.000000 -0.018292 0.012223
endloop
endfacet
facet normal -0.086536 -0.878614 0.469627
outer loop
vertex 0.000000 -0.020325 0.008419
vertex 0.000000 -0.018292 0.012223
vertex -0.003569 -0.017941 0.012223
endloop
endfacet
facet normal -0.086537 -0.878613 0.469627
outer loop
vertex -0.003569 -0.017941 0.012223
vertex -0.003965 -0.019935 0.008419
vertex 0.000000 -0.020325 0.008419
endloop
endfacet
facet normal -0.093835 -0.952718 0.289005
outer loop
vertex 0.000000 -0.021577 0.004292
vertex 0.000000 -0.020325 0.008419
vertex -0.003965 -0.019935 0.008419
endloop
endfacet
facet normal -0.093835 -0.952718 0.289005
outer loop
vertex -0.003965 -0.019935 0.008419
vertex -0.004210 -0.021163 0.004292
vertex 0.000000 -0.021577 0.004292
endloop
endfacet
facet normal -0.224828 -0.741159 0.632563
outer loop
vertex -0.003569 -0.017941 0.012223
vertex -0.003035 -0.015257 0.015556
vertex -0.005953 -0.014372 0.015556
endloop
endfacet
facet normal -0.224829 -0.741159 0.632562
outer loop
vertex -0.005953 -0.014372 0.015556
vertex -0.007000 -0.016900 0.012223
vertex -0.003569 -0.017941 0.012223
endloop
endfacet
facet normal -0.256282 -0.844848 0.469628
outer loop
vertex -0.003965 -0.019935 0.008419
vertex -0.003569 -0.017941 0.012223
vertex -0.007000 -0.016900 0.012223
endloop
endfacet
facet normal -0.256282 -0.844849 0.469627
outer loop
vertex -0.007000 -0.016900 0.012223
vertex -0.007778 -0.018778 0.008419
vertex -0.003965 -0.019935 0.008419
endloop
endfacet
facet normal -0.277898 -0.916105 0.289005
outer loop
vertex -0.004210 -0.021163 0.004292
vertex -0.003965 -0.019935 0.008419
vertex -0.007778 -0.018778 0.008419
endloop
endfacet
facet normal -0.277898 -0.916106 0.289004
outer loop
vertex -0.007778 -0.018778 0.008419
vertex -0.008257 -0.019935 0.004292
vertex -0.004210 -0.021163 0.004292
endloop
endfacet
facet normal -0.288901 -0.952376 0.097547
outer loop
vertex -0.004292 -0.021577 0.000000
vertex -0.004210 -0.021163 0.004292
vertex -0.008257 -0.019935 0.004292
endloop
endfacet
facet normal -0.288901 -0.952376 0.097547
outer loop
vertex -0.008257 -0.019935 0.004292
vertex -0.008419 -0.020325 0.000000
vertex -0.004292 -0.021577 0.000000
endloop
endfacet
facet normal -0.084637 -0.279016 0.956550
outer loop
vertex -0.001642 -0.008257 0.020325
vertex -0.000837 -0.004210 0.021577
vertex -0.001642 -0.003965 0.021577
endloop
endfacet
facet normal -0.084639 -0.279015 0.956549
outer loop
vertex -0.001642 -0.003965 0.021577
vertex -0.003222 -0.007778 0.020325
vertex -0.001642 -0.008257 0.020325
endloop
endfacet
facet normal -0.137353 -0.452793 0.880972
outer loop
vertex -0.002384 -0.011988 0.018292
vertex -0.001642 -0.008257 0.020325
vertex -0.003222 -0.007778 0.020325
endloop
endfacet
facet normal -0.137353 -0.452793 0.880972
outer loop
vertex -0.003222 -0.007778 0.020325
vertex -0.004677 -0.011292 0.018292
vertex -0.002384 -0.011988 0.018292
endloop
endfacet
facet normal -0.184686 -0.608828 0.771505
outer loop
vertex -0.003035 -0.015257 0.015556
vertex -0.002384 -0.011988 0.018292
vertex -0.004677 -0.011292 0.018292
endloop
endfacet
facet normal -0.184686 -0.608828 0.771505
outer loop
vertex -0.004677 -0.011292 0.018292
vertex -0.005953 -0.014372 0.015556
vertex -0.003035 -0.015257 0.015556
endloop
endfacet
facet normal -0.137444 -0.257142 0.956550
outer loop
vertex -0.003222 -0.007778 0.020325
vertex -0.001642 -0.003965 0.021577
vertex -0.002384 -0.003569 0.021577
endloop
endfacet
facet normal -0.137446 -0.257142 0.956549
outer loop
vertex -0.002384 -0.003569 0.021577
vertex -0.004677 -0.007000 0.020325
vertex -0.003222 -0.007778 0.020325
endloop
endfacet
facet normal -0.223051 -0.417297 0.880972
outer loop
vertex -0.004677 -0.011292 0.018292
vertex -0.003222 -0.007778 0.020325
vertex -0.004677 -0.007000 0.020325
endloop
endfacet
facet normal -0.223048 -0.417297 0.880973
outer loop
vertex -0.004677 -0.007000 0.020325
vertex -0.006790 -0.010163 0.018292
vertex -0.004677 -0.011292 0.018292
endloop
endfacet
facet normal -0.299914 -0.561099 0.771505
outer loop
vertex -0.005953 -0.014372 0.015556
vertex -0.004677 -0.011292 0.018292
vertex -0.006790 -0.010163 0.018292
endloop
endfacet
facet normal -0.299914 -0.561099 0.771505
outer loop
vertex -0.006790 -0.010163 0.018292
vertex -0.008643 -0.012935 0.015556
vertex -0.005953 -0.014372 0.015556
endloop
endfacet
facet normal -0.365101 -0.683056 0.632563
outer loop
vertex -0.007000 -0.016900 0.012223
vertex -0.005953 -0.014372 0.015556
vertex -0.008643 -0.012935 0.015556
endloop
endfacet
facet normal -0.365101 -0.683056 0.632563
outer loop
vertex -0.008643 -0.012935 0.015556
vertex -0.010163 -0.015210 0.012223
vertex -0.007000 -0.016900 0.012223
endloop
endfacet
facet normal -0.416180 -0.778617 0.469628
outer loop
vertex -0.007778 -0.018778 0.008419
vertex -0.007000 -0.016900 0.012223
vertex -0.010163 -0.015210 0.012223
endloop
endfacet
facet normal -0.416180 -0.778617 0.469627
outer loop
vertex -0.010163 -0.015210 0.012223
vertex -0.011292 -0.016900 0.008419
vertex -0.007778 -0.018778 0.008419
endloop
endfacet
facet normal -0.451282 -0.844287 0.289005
outer loop
vertex -0.008257 -0.019935 0.004292
vertex -0.007778 -0.018778 0.008419
vertex -0.011292 -0.016900 0.008419
endloop
endfacet
facet normal -0.451281 -0.844288 0.289005
outer loop
vertex -0.011292 -0.016900 0.008419
vertex -0.011988 -0.017941 0.004292
vertex -0.008257 -0.019935 0.004292
endloop
endfacet
facet normal -0.469149 -0.877715 0.097546
outer loop
vertex -0.008419 -0.020325 0.000000
vertex -0.008257 -0.019935 0.004292
vertex -0.011988 -0.017941 0.004292
endloop
endfacet
facet normal -0.469149 -0.877715 0.097546
outer loop
vertex -0.011988 -0.017941 0.004292
vertex -0.012223 -0.018292 0.000000
vertex -0.008419 -0.020325 0.000000
endloop
endfacet
facet normal -0.491344 -0.598703 0.632563
outer loop
vertex -0.010163 -0.015210 0.012223
vertex -0.008643 -0.012935 0.015556
vertex -0.011000 -0.011000 0.015556
endloop
endfacet
facet normal -0.491344 -0.598703 0.632563
outer loop
vertex -0.011000 -0.011000 0.015556
vertex -0.012935 -0.012935 0.012223
vertex -0.010163 -0.015210 0.012223
endloop
endfacet
facet normal -0.560084 -0.682463 0.469628
outer loop
vertex -0.011292 -0.016900 0.008419
vertex -0.010163 -0.015210 0.012223
vertex -0.012935 -0.012935 0.012223
endloop
endfacet
facet normal -0.560084 -0.682463 0.469628
outer loop
vertex -0.012935 -0.012935 0.012223
vertex -0.014372 -0.014372 0.008419
vertex -0.011292 -0.016900 0.008419
endloop
endfacet
facet normal -0.607323 -0.740024 0.289005
outer loop
vertex -0.011988 -0.017941 0.004292
vertex -0.011292 -0.016900 0.008419
vertex -0.014372 -0.014372 0.008419
endloop
endfacet
facet normal -0.607323 -0.740024 0.289005
outer loop
vertex -0.014372 -0.014372 0.008419
vertex -0.015257 -0.015257 0.004292
vertex -0.011988 -0.017941 0.004292
endloop
endfacet
facet normal -0.631368 -0.769324 0.097546
outer loop
vertex -0.012223 -0.018292 0.000000
vertex -0.011988 -0.017941 0.004292
vertex -0.015257 -0.015257 0.004292
endloop
endfacet
facet normal -0.631369 -0.769323 0.097546
outer loop
vertex -0.015257 -0.015257 0.004292
vertex -0.015556 -0.015556 0.000000
vertex -0.012223 -0.018292 0.000000
endloop
endfacet
facet normal -0.184970 -0.225387 0.956550
outer loop
vertex -0.004677 -0.007000 0.020325
vertex -0.002384 -0.003569 0.021577
vertex -0.003035 -0.003035 0.021577
endloop
endfacet
facet normal -0.184971 -0.225387 0.956549
outer loop
vertex -0.003035 -0.003035 0.021577
vertex -0.005953 -0.005953 0.020325
vertex -0.004677 -0.007000 0.020325
endloop
endfacet
facet normal -0.300176 -0.365763 0.880972
outer loop
vertex -0.006790 -0.010163 0.018292
vertex -0.004677 -0.007000 0.020325
vertex -0.005953 -0.005953 0.020325
endloop
endfacet
facet normal -0.300175 -0.365764 0.880972
outer loop
vertex -0.005953 -0.005953 0.020325
vertex -0.008643 -0.008643 0.018292
vertex -0.006790 -0.010163 0.018292
endloop
endfacet
facet normal -0.403616 -0.491807 0.771505
outer loop
vertex -0.008643 -0.012935 0.015556
vertex -0.006790 -0.010163 0.018292
vertex -0.008643 -0.008643 0.018292
endloop
endfacet
facet normal -0.403616 -0.491807 0.771505
outer loop
vertex -0.008643 -0.008643 0.018292
vertex -0.011000 -0.011000 0.015556
vertex -0.008643 -0.012935 0.015556
endloop
endfacet
facet normal -0.225387 -0.184970 0.956549
outer loop
vertex -0.005953 -0.005953 0.020325
vertex -0.003035 -0.003035 0.021577
vertex -0.003569 -0.002385 0.021577
endloop
endfacet
facet normal -0.225386 -0.184970 0.956550
outer loop
vertex -0.003569 -0.002385 0.021577
vertex -0.007000 -0.004677 0.020325
vertex -0.005953 -0.005953 0.020325
endloop
endfacet
facet normal -0.365764 -0.300175 0.880972
outer loop
vertex -0.008643 -0.008643 0.018292
vertex -0.005953 -0.005953 0.020325
vertex -0.007000 -0.004677 0.020325
endloop
endfacet
facet normal -0.365764 -0.300175 0.880972
outer loop
vertex -0.007000 -0.004677 0.020325
vertex -0.010163 -0.006790 0.018292
vertex -0.008643 -0.008643 0.018292
endloop
endfacet
facet normal -0.491807 -0.403616 0.771505
outer loop
vertex -0.011000 -0.011000 0.015556
vertex -0.008643 -0.008643 0.018292
vertex -0.010163 -0.006790 0.018292
endloop
endfacet
facet normal -0.491807 -0.403616 0.771505
outer loop
vertex -0.010163 -0.006790 0.018292
vertex -0.012935 -0.008643 0.015556
vertex -0.011000 -0.011000 0.015556
endloop
endfacet
facet normal -0.598703 -0.491344 0.632562
outer loop
vertex -0.012935 -0.012935 0.012223
vertex -0.011000 -0.011000 0.015556
vertex -0.012935 -0.008643 0.015556
endloop
endfacet
facet normal -0.598704 -0.491343 0.632562
outer loop
vertex -0.012935 -0.008643 0.015556
vertex -0.015210 -0.010163 0.012223
vertex -0.012935 -0.012935 0.012223
endloop
endfacet
facet normal -0.682463 -0.560084 0.469628
outer loop
vertex -0.014372 -0.014372 0.008419
vertex -0.012935 -0.012935 0.012223
vertex -0.015210 -0.010163 0.012223
endloop
endfacet
facet normal -0.682464 -0.560083 0.469628
outer loop
vertex -0.015210 -0.010163 0.012223
vertex -0.016900 -0.011292 0.008419
vertex -0.014372 -0.014372 0.008419
endloop
endfacet
facet normal -0.740025 -0.607322 0.289004
outer loop
vertex -0.015257 -0.015257 0.004292
vertex -0.014372 -0.014372 0.008419
vertex -0.016900 -0.011292 0.008419
endloop
endfacet
facet normal -0.740025 -0.607322 0.289005
outer loop
vertex -0.016900 -0.011292 0.008419
vertex -0.017941 -0.011988 0.004292
vertex -0.015257 -0.015257 0.004292
endloop
endfacet
facet normal -0.769324 -0.631368 0.097546
outer loop
vertex -0.015556 -0.015556 0.000000
vertex -0.015257 -0.015257 0.004292
vertex -0.017941 -0.011988 0.004292
endloop
endfacet
facet normal -0.769325 -0.631367 0.097546
outer loop
vertex -0.017941 -0.011988 0.004292
vertex -0.018292 -0.012223 0.000000
vertex -0.015556 -0.015556 0.000000
endloop
endfacet
facet normal -0.778617 -0.416179 0.469628
outer loop
vertex -0.016900 -0.011292 0.008419
vertex -0.015210 -0.010163 0.012223
vertex -0.016900 -0.007000 0.012223
endloop
endfacet
facet normal -0.778617 -0.416179 0.469627
outer loop
vertex -0.016900 -0.007000 0.012223
vertex -0.018778 -0.007778 0.008419
vertex -0.016900 -0.011292 0.008419
endloop
endfacet
facet normal -0.844288 -0.451281 0.289004
outer loop
vertex -0.017941 -0.011988 0.004292
vertex -0.016900 -0.011292 0.008419
vertex -0.018778 -0.007778 0.008419
endloop
endfacet
facet normal -0.844288 -0.451281 0.289005
outer loop
vertex -0.018778 -0.007778 0.008419
vertex -0.019935 -0.008257 0.004292
vertex -0.017941 -0.011988 0.004292
endloop
endfacet
facet normal -0.877715 -0.469149 0.097546
outer loop
vertex -0.018292 -0.012223 0.000000
vertex -0.017941 -0.011988 0.004292
vertex -0.019935 -0.008257 0.004292
endloop
endfacet
facet normal -0.877716 -0.469148 0.097546
outer loop
vertex -0.019935 -0.008257 0.004292
vertex -0.020325 -0.008419 0.000000
vertex -0.018292 -0.012223 0.000000
endloop
endfacet
facet normal -0.257143 -0.137445 0.956549
outer loop
vertex -0.007000 -0.004677 0.020325
vertex -0.003569 -0.002385 0.021577
vertex -0.003965 -0.001642 0.021577
endloop
endfacet
facet normal -0.257142 -0.137445 0.956550
outer loop
vertex -0.003965 -0.001642 0.021577
vertex -0.007778 -0.003222 0.020325
vertex -0.007000 -0.004677 0.020325
endloop
endfacet
facet normal -0.417297 -0.223050 0.880972
outer loop
vertex -0.010163 -0.006790 0.018292
vertex -0.007000 -0.004677 0.020325
vertex -0.007778 -0.003222 0.020325
endloop
endfacet
facet normal -0.417296 -0.223049 0.880973
outer loop
vertex -0.007778 -0.003222 0.020325
vertex -0.011292 -0.004677 0.018292
vertex -0.010163 -0.006790 0.018292
endloop
endfacet
facet normal -0.561099 -0.299913 0.771505
outer loop
vertex -0.012935 -0.008643 0.015556
vertex -0.010163 -0.006790 0.018292
vertex -0.011292 -0.004677 0.018292
endloop
endfacet
facet normal -0.561099 -0.299913 0.771505
outer loop
vertex -0.011292 -0.004677 0.018292
vertex -0.014372 -0.005953 0.015556
vertex -0.012935 -0.008643 0.015556
endloop
endfacet
facet normal -0.683056 -0.365101 0.632562
outer loop
vertex -0.015210 -0.010163 0.012223
vertex -0.012935 -0.008643 0.015556
vertex -0.014372 -0.005953 0.015556
endloop
endfacet
facet normal -0.683056 -0.365101 0.632562
outer loop
vertex -0.014372 -0.005953 0.015556
vertex -0.016900 -0.007000 0.012223
vertex -0.015210 -0.010163 0.012223
endloop
endfacet
facet normal -0.452794 -0.137353 0.880972
outer loop
vertex -0.011292 -0.004677 0.018292
vertex -0.007778 -0.003222 0.020325
vertex -0.008257 -0.001642 0.020325
endloop
endfacet
facet normal -0.452793 -0.137354 0.880972
outer loop
vertex -0.008257 -0.001642 0.020325
vertex -0.011988 -0.002384 0.018292
vertex -0.011292 -0.004677 0.018292
endloop
endfacet
facet normal -0.608827 -0.184686 0.771505
outer loop
vertex -0.014372 -0.005953 0.015556
vertex -0.011292 -0.004677 0.018292
vertex -0.011988 -0.002384 0.018292
endloop
endfacet
facet normal -0.608828 -0.184686 0.771505
outer loop
vertex -0.011988 -0.002384 0.018292
vertex -0.015257 -0.003035 0.015556
vertex -0.014372 -0.005953 0.015556
endloop
endfacet
facet normal -0.741159 -0.224828 0.632563
outer loop
vertex -0.016900 -0.007000 0.012223
vertex -0.014372 -0.005953 0.015556
vertex -0.015257 -0.003035 0.015556
endloop
endfacet
facet normal -0.741160 -0.224828 0.632562
outer loop
vertex -0.015257 -0.003035 0.015556
vertex -0.017941 -0.003569 0.012223
vertex -0.016900 -0.007000 0.012223
endloop
endfacet
facet normal -0.844849 -0.256281 0.469628
outer loop
vertex -0.018778 -0.007778 0.008419
vertex -0.016900 -0.007000 0.012223
vertex -0.017941 -0.003569 0.012223
endloop
endfacet
facet normal -0.844849 -0.256282 0.469628
outer loop
vertex -0.017941 -0.003569 0.012223
vertex -0.019935 -0.003965 0.008419
vertex -0.018778 -0.007778 0.008419
endloop
endfacet
facet normal -0.916106 -0.277897 0.289005
outer loop
vertex -0.019935 -0.008257 0.004292
vertex -0.018778 -0.007778 0.008419
vertex -0.019935 -0.003965 0.008419
endloop
endfacet
facet normal -0.916106 -0.277897 0.289005
outer loop
vertex -0.019935 -0.003965 0.008419
vertex -0.021163 -0.004210 0.004292
vertex -0.019935 -0.008257 0.004292
endloop
endfacet
facet normal -0.952377 -0.288900 0.097546
outer loop
vertex -0.020325 -0.008419 0.000000
vertex -0.019935 -0.008257 0.004292
vertex -0.021163 -0.004210 0.004292
endloop
endfacet
facet normal -0.952377 -0.288901 0.097546
outer loop
vertex -0.021163 -0.004210 0.004292
vertex -0.021577 -0.004292 0.000000
vertex -0.020325 -0.008419 0.000000
endloop
endfacet
facet normal -0.279017 -0.084638 0.956549
outer loop
vertex -0.007778 -0.003222 0.020325
vertex -0.003965 -0.001642 0.021577
vertex -0.004210 -0.000837 0.021577
endloop
endfacet
facet normal -0.279013 -0.084639 0.956550
outer loop
vertex -0.004210 -0.000837 0.021577
vertex -0.008257 -0.001642 0.020325
vertex -0.007778 -0.003222 0.020325
endloop
endfacet
facet normal -0.098012 0.009653 0.995138
outer loop
vertex -0.004292 0.000000 0.021577
vertex 0.000000 -0.000000 0.022000
vertex -0.004210 0.000837 0.021577
endloop
endfacet
facet normal -0.094248 0.028589 0.995138
outer loop
vertex -0.004210 0.000837 0.021577
vertex 0.000000 -0.000000 0.022000
vertex -0.003965 0.001642 0.021577
endloop
endfacet
facet normal -0.086858 0.046426 0.995138
outer loop
vertex -0.003965 0.001642 0.021577
vertex 0.000000 -0.000000 0.022000
vertex -0.003569 0.002385 0.021577
endloop
endfacet
facet normal -0.076129 0.062479 0.995139
outer loop
vertex -0.003569 0.002385 0.021577
vertex 0.000000 -0.000000 0.022000
vertex -0.003035 0.003035 0.021577
endloop
endfacet
facet normal -0.062481 0.076131 0.995138
outer loop
vertex -0.003035 0.003035 0.021577
vertex 0.000000 -0.000000 0.022000
vertex -0.002384 0.003569 0.021577
endloop
endfacet
facet normal -0.046424 0.086857 0.995138
outer loop
vertex -0.002384 0.003569 0.021577
vertex 0.000000 -0.000000 0.022000
vertex -0.001642 0.003965 0.021577
endloop
endfacet
facet normal -0.028589 0.094246 0.995138
outer loop
vertex -0.001642 0.003965 0.021577
vertex 0.000000 -0.000000 0.022000
vertex -0.000837 0.004210 0.021577
endloop
endfacet
facet normal -0.009655 0.098012 0.995138
outer loop
vertex -0.000837 0.004210 0.021577
vertex 0.000000 -0.000000 0.022000
vertex 0.000000 0.004292 0.021577
endloop
endfacet
facet normal 0.009655 0.098012 0.995138
outer loop
vertex 0.000000 0.004292 0.021577
vertex 0.000000 -0.000000 0.022000
vertex 0.000837 0.004210 0.021577
endloop
endfacet
facet normal 0.028589 0.094246 0.995138
outer loop
vertex 0.000837 0.004210 0.021577
vertex 0.000000 -0.000000 0.022000
vertex 0.001642 0.003965 0.021577
endloop
endfacet
facet normal 0.046428 0.086857 0.995138
outer loop
vertex 0.001642 0.003965 0.021577
vertex 0.000000 -0.000000 0.022000
vertex 0.002385 0.003569 0.021577
endloop
endfacet
facet normal 0.062481 0.076131 0.995138
outer loop
vertex 0.002385 0.003569 0.021577
vertex 0.000000 -0.000000 0.022000
vertex 0.003035 0.003035 0.021577
endloop
endfacet
facet normal 0.076129 0.062479 0.995139
outer loop
vertex 0.003035 0.003035 0.021577
vertex 0.000000 -0.000000 0.022000
vertex 0.003569 0.002385 0.021577
endloop
endfacet
facet normal 0.086858 0.046426 0.995138
outer loop
vertex 0.003569 0.002385 0.021577
vertex 0.000000 -0.000000 0.022000
vertex 0.003965 0.001642 0.021577
endloop
endfacet
facet normal 0.094246 0.028589 0.995138
outer loop
vertex 0.003965 0.001642 0.021577
vertex 0.000000 -0.000000 0.022000
vertex 0.004210 0.000837 0.021577
endloop
endfacet
facet normal 0.098012 0.009653 0.995138
outer loop
vertex 0.004210 0.000837 0.021577
vertex 0.000000 -0.000000 0.022000
vertex 0.004292 -0.000000 0.021577
endloop
endfacet
facet normal 0.098013 -0.009653 0.995138
outer loop
vertex 0.004292 -0.000000 0.021577
vertex 0.000000 -0.000000 0.022000
vertex 0.004210 -0.000837 0.021577
endloop
endfacet
facet normal 0.094246 -0.028589 0.995138
outer loop
vertex 0.004210 -0.000837 0.021577
vertex 0.000000 -0.000000 0.022000
vertex 0.003965 -0.001642 0.021577
endloop
endfacet
facet normal 0.086858 -0.046426 0.995138
outer loop
vertex 0.003965 -0.001642 0.021577
vertex 0.000000 -0.000000 0.022000
vertex 0.003569 -0.002385 0.021577
endloop
endfacet
facet normal 0.076133 -0.062479 0.995138
outer loop
vertex 0.003569 -0.002385 0.021577
vertex 0.000000 -0.000000 0.022000
vertex 0.003035 -0.003035 0.021577
endloop
endfacet
facet normal 0.062481 -0.076131 0.995138
outer loop
vertex 0.003035 -0.003035 0.021577
vertex 0.000000 -0.000000 0.022000
vertex 0.002385 -0.003569 0.021577
endloop
endfacet
facet normal 0.046428 -0.086858 0.995138
outer loop
vertex 0.002385 -0.003569 0.021577
vertex 0.000000 -0.000000 0.022000
vertex 0.001642 -0.003965 0.021577
endloop
endfacet
facet normal 0.028589 -0.094246 0.995138
outer loop
vertex 0.001642 -0.003965 0.021577
vertex 0.000000 -0.000000 0.022000
vertex 0.000837 -0.004210 0.021577
endloop
endfacet
facet normal 0.009651 -0.098013 0.995138
outer loop
vertex 0.000837 -0.004210 0.021577
vertex 0.000000 -0.000000 0.022000
vertex 0.000000 -0.004292 0.021577
endloop
endfacet
facet normal -0.009651 -0.098013 0.995138
outer loop
vertex 0.000000 -0.004292 0.021577
vertex 0.000000 -0.000000 0.022000
vertex -0.000837 -0.004210 0.021577
endloop
endfacet
facet normal -0.028589 -0.094246 0.995138
outer loop
vertex -0.000837 -0.004210 0.021577
vertex 0.000000 -0.000000 0.022000
vertex -0.001642 -0.003965 0.021577
endloop
endfacet
facet normal -0.046424 -0.086858 0.995138
outer loop
vertex -0.001642 -0.003965 0.021577
vertex 0.000000 -0.000000 0.022000
vertex -0.002384 -0.003569 0.021577
endloop
endfacet
facet normal -0.062481 -0.076131 0.995138
outer loop
vertex -0.002384 -0.003569 0.021577
vertex 0.000000 -0.000000 0.022000
vertex -0.003035 -0.003035 0.021577
endloop
endfacet
facet normal -0.076129 -0.062479 0.995139
outer loop
vertex -0.003035 -0.003035 0.021577
vertex 0.000000 -0.000000 0.022000
vertex -0.003569 -0.002385 0.021577
endloop
endfacet
facet normal -0.086858 -0.046426 0.995138
outer loop
vertex -0.003569 -0.002385 0.021577
vertex 0.000000 -0.000000 0.022000
vertex -0.003965 -0.001642 0.021577
endloop
endfacet
facet normal -0.094246 -0.028589 0.995138
outer loop
vertex -0.003965 -0.001642 0.021577
vertex 0.000000 -0.000000 0.022000
vertex -0.004210 -0.000837 0.021577
endloop
endfacet
facet normal -0.952717 -0.093840 0.289004
outer loop
vertex -0.021163 -0.004210 0.004292
vertex -0.019935 -0.003965 0.008419
vertex -0.020325 0.000000 0.008419
endloop
endfacet
facet normal -0.952718 -0.093838 0.289004
outer loop
vertex -0.020325 0.000000 0.008419
vertex -0.021577 0.000000 0.004292
vertex -0.021163 -0.004210 0.004292
endloop
endfacet
facet normal -0.990438 -0.097554 0.097546
outer loop
vertex -0.021577 -0.004292 0.000000
vertex -0.021163 -0.004210 0.004292
vertex -0.021577 0.000000 0.004292
endloop
endfacet
facet normal -0.990438 -0.097557 0.097550
outer loop
vertex -0.021577 0.000000 0.004292
vertex -0.022000 0.000000 0.000000
vertex -0.021577 -0.004292 0.000000
endloop
endfacet
facet normal -0.098012 -0.009654 0.995138
outer loop
vertex -0.004210 -0.000837 0.021577
vertex 0.000000 -0.000000 0.022000
vertex -0.004292 0.000000 0.021577
endloop
endfacet
facet normal -0.290166 -0.028580 0.956549
outer loop
vertex -0.004292 0.000000 0.021577
vertex -0.008419 0.000000 0.020325
vertex -0.008257 -0.001642 0.020325
endloop
endfacet
facet normal -0.290166 -0.028580 0.956549
outer loop
vertex -0.008257 -0.001642 0.020325
vertex -0.004210 -0.000837 0.021577
vertex -0.004292 0.000000 0.021577
endloop
endfacet
facet normal -0.470889 -0.046380 0.880972
outer loop
vertex -0.011988 -0.002384 0.018292
vertex -0.008257 -0.001642 0.020325
vertex -0.008419 0.000000 0.020325
endloop
endfacet
facet normal -0.470889 -0.046380 0.880972
outer loop
vertex -0.008419 0.000000 0.020325
vertex -0.012223 0.000000 0.018292
vertex -0.011988 -0.002384 0.018292
endloop
endfacet
facet normal -0.633159 -0.062362 0.771505
outer loop
vertex -0.015257 -0.003035 0.015556
vertex -0.011988 -0.002384 0.018292
vertex -0.012223 0.000000 0.018292
endloop
endfacet
facet normal -0.633159 -0.062364 0.771506
outer loop
vertex -0.012223 0.000000 0.018292
vertex -0.015556 0.000000 0.015556
vertex -0.015257 -0.003035 0.015556
endloop
endfacet
facet normal -0.770779 -0.075919 0.632563
outer loop
vertex -0.017941 -0.003569 0.012223
vertex -0.015257 -0.003035 0.015556
vertex -0.015556 0.000000 0.015556
endloop
endfacet
facet normal -0.770779 -0.075919 0.632562
outer loop
vertex -0.015556 0.000000 0.015556
vertex -0.018292 0.000000 0.012223
vertex -0.017941 -0.003569 0.012223
endloop
endfacet
facet normal -0.878613 -0.086542 0.469628
outer loop
vertex -0.019935 -0.003965 0.008419
vertex -0.017941 -0.003569 0.012223
vertex -0.018292 0.000000 0.012223
endloop
endfacet
facet normal -0.878613 -0.086539 0.469628
outer loop
vertex -0.018292 0.000000 0.012223
vertex -0.020325 0.000000 0.008419
vertex -0.019935 -0.003965 0.008419
endloop
endfacet
endsolid Exported from Blender-2.76 (sub 0)
